<svg width="100" height="100" viewBox="0 0 100 100" fill="none" xmlns="http://www.w3.org/2000/svg">
<path d="M74.9959 0.0208067L62.0283 0C47.4596 0 38.0447 9.6595 38.0447 24.6101V35.9571H25.0063C23.8796 35.9571 22.9673 36.8705 22.9673 37.9971V54.4375C22.9673 55.5642 23.8807 56.4766 25.0063 56.4766H38.0447V97.9609C38.0447 99.0876 38.957 100 40.0837 100H57.0951C58.2217 100 59.1341 99.0866 59.1341 97.9609V56.4766H74.379C75.5057 56.4766 76.418 55.5642 76.418 54.4375L76.4243 37.9971C76.4243 37.4562 76.2089 36.9381 75.8271 36.5552C75.4453 36.1724 74.9252 35.9571 74.3842 35.9571H59.1341V26.3381C59.1341 21.7149 60.2358 19.3679 66.2582 19.3679L74.9938 19.3648C76.1195 19.3648 77.0318 18.4514 77.0318 17.3257V2.05986C77.0318 0.93526 76.1205 0.0228873 74.9959 0.0208067Z" fill="#184A88"/>
</svg>
