<svg width="100" height="100" viewBox="0 0 100 100" fill="none" xmlns="http://www.w3.org/2000/svg">
<path d="M14.4453 5.07812C7.57084 5.07812 3.07617 9.59225 3.07617 15.5254C3.07617 21.3276 7.43694 25.9705 14.1815 25.9705H14.312C21.3209 25.9705 25.6828 21.3276 25.6828 15.5254C25.5518 9.59225 21.3209 5.07812 14.4453 5.07812V5.07812Z" fill="#184A88"/>
<path d="M4.26416 34.2188H24.3611V94.6813H4.26416V34.2188Z" fill="#184A88"/>
<path d="M73.6894 32.8125C62.8479 32.8125 55.578 43 55.578 43V34.2316H35.4805V94.6941H55.5769V60.9295C55.5769 59.1219 55.7079 57.3172 56.2389 56.0245C57.6917 52.4151 60.9979 48.6757 66.55 48.6757C73.8222 48.6757 76.7307 54.2204 76.7307 62.3486V94.6941H96.826V60.026C96.826 41.4545 86.9108 32.8125 73.6894 32.8125V32.8125Z" fill="#184A88"/>
</svg>
