<svg width="100" height="100" viewBox="0 0 100 100" fill="none" xmlns="http://www.w3.org/2000/svg">
<path d="M24.0125 54.3396C24.1376 54.0276 25.3896 49.2165 25.4773 48.8907C23.5227 45.9496 21.3514 36.3182 23.0168 28.5004C24.8136 17.0296 36.9695 11.3907 48.4464 11.3907V11.3693C62.8156 11.3785 73.5715 19.3733 73.5829 33.1421C73.5921 43.9194 67.0995 58.165 56.0132 58.165C56.0102 58.165 56.0079 58.165 56.0048 58.165C52.0482 58.165 47.0388 56.3705 45.725 54.6082C44.209 52.5772 43.8367 50.071 44.6378 47.393C46.6008 41.127 49.104 33.6212 49.3962 28.6163C49.6671 23.893 46.3155 20.8199 41.969 20.8199C38.6983 20.8199 34.4503 22.7196 32.3331 28.0579C30.5844 32.4928 30.6218 37.1361 32.4475 42.2516C33.1594 44.2513 29.292 57.2876 28.053 61.5326C24.9746 72.0779 20.7601 85.4202 21.6611 92.8505L22.5309 100L26.8994 94.2749C32.945 86.3609 39.1957 65.8897 40.8612 60.9085C45.7853 67.2852 56.0392 67.4683 57.2347 67.4683C71.919 67.4683 88.5701 52.887 88.0979 32.5928C87.6836 14.7957 74.6587 0 51.2555 0V0.0228883C28.9945 0.0228883 16.0016 11.9049 12.8209 26.918C9.90802 40.8386 16.3861 51.4336 24.0125 54.3396Z" fill="#184A88"/>
</svg>
