<svg width="100" height="100" viewBox="0 0 100 100" fill="none" xmlns="http://www.w3.org/2000/svg">
<path d="M70.9518 0H29.0484C13.0311 0 0 13.0311 0 29.0484V70.9516C0 86.9689 13.0311 100 29.0484 100H70.9516C86.9689 100 100 86.9689 100 70.9518V29.0484C100 13.0311 86.9689 0 70.9518 0ZM92.1875 70.9516C92.1875 82.6611 82.6611 92.1875 70.9518 92.1875H29.0484C17.3389 92.1875 7.8125 82.6611 7.8125 70.9518V29.0484C7.8125 17.3389 17.3389 7.8125 29.0484 7.8125H70.9516C82.6611 7.8125 92.1875 17.3389 92.1875 29.0484V70.9516Z" fill="#184A88"/>
<path d="M50 23.0469C35.1379 23.0469 23.0469 35.1379 23.0469 50C23.0469 64.8621 35.1379 76.9531 50 76.9531C64.8621 76.9531 76.9531 64.8621 76.9531 50C76.9531 35.1379 64.8621 23.0469 50 23.0469ZM50 69.1406C39.4459 69.1406 30.8594 60.5541 30.8594 50C30.8594 39.4459 39.4459 30.8594 50 30.8594C60.5541 30.8594 69.1406 39.4459 69.1406 50C69.1406 60.5541 60.5541 69.1406 50 69.1406Z" fill="#184A88"/>
<path d="M77.3438 26.5625C79.5011 26.5625 81.25 24.8136 81.25 22.6562C81.25 20.4989 79.5011 18.75 77.3438 18.75C75.1864 18.75 73.4375 20.4989 73.4375 22.6562C73.4375 24.8136 75.1864 26.5625 77.3438 26.5625Z" fill="#184A88"/>
</svg>
