<svg width="20" height="20" viewBox="0 0 20 20" fill="none" xmlns="http://www.w3.org/2000/svg">
<path fill-rule="evenodd" clip-rule="evenodd" d="M11.9803 10.3974C13.3719 8.44472 13.1918 5.71632 11.4399 3.96447C9.48731 2.01184 6.32148 2.01184 4.36886 3.96447C2.41624 5.91709 2.41624 9.08291 4.36886 11.0355C6.12072 12.7874 8.84912 12.9675 10.8018 11.5759L15.5647 16.3388L16.7432 15.1603L11.9803 10.3974ZM10.2614 5.14298C11.5632 6.44472 11.5632 8.55528 10.2614 9.85702C8.95967 11.1588 6.84912 11.1588 5.54737 9.85702C4.24563 8.55527 4.24563 6.44472 5.54737 5.14298C6.84912 3.84123 8.95967 3.84123 10.2614 5.14298Z" fill="#A1A1A1"/>
</svg>
