<svg width="462" height="462" viewBox="0 0 462 462" fill="none" xmlns="http://www.w3.org/2000/svg">
<path fill-rule="evenodd" clip-rule="evenodd" d="M235.394 285.622C240.33 285.439 240.812 281.341 256.13 284.042C258.863 284.524 263.947 287.491 267.132 288.813C273.22 291.34 284.02 298.741 284.02 298.741C284.02 298.741 288.695 302.827 297.033 304.462C305.371 306.097 310.323 304.622 319.159 306.18C325.603 307.316 330.823 310.42 336.344 311.393C341.864 312.367 349.617 313.008 350.626 308.805C364.226 252.188 349.565 225.142 340.185 202.709C325.313 167.138 339.514 119.675 309.434 138.715C301.803 143.545 300.145 148.346 287.385 152.698C277.227 156.162 269.837 155.902 264.378 158.153C249.266 164.384 240.009 175.145 229.54 179.229C211.258 186.36 206.56 181.335 192.295 185.906C190.412 186.509 188.276 187.452 185.998 187.936C181.469 188.898 176.407 189.431 171.855 191.571C168.176 193.301 161.974 199.058 161.974 199.058L129.058 204.392C129.058 204.392 121.606 206.377 122.474 218.304C123.341 230.23 127.953 257.094 127.953 257.094C127.953 257.094 136.609 258.493 143.083 264.109C149.557 269.725 150.257 279.63 150.257 279.63C150.257 279.63 168.547 277.449 176.377 276.181C178.528 275.832 183.424 274.859 190.488 275.76C198.232 276.749 203.35 281.574 214.416 284.097C220.634 285.514 230.458 285.806 235.394 285.622Z" fill="#184A88"/>
<path fill-rule="evenodd" clip-rule="evenodd" d="M363.254 271.775C363.106 271.075 361.941 271.182 361.611 271.817C361.295 272.425 361.48 273.153 361.651 273.823L361.673 273.91C363.457 280.952 359.63 288.997 353.041 292.057C352.41 291.5 352.022 290.731 351.636 289.965C351.205 289.111 350.777 288.261 350.015 287.713C349.349 287.233 348.518 287.057 347.714 286.893L340.545 285.426C339.674 285.247 338.606 285.133 338.046 285.824C336.824 287.331 334.227 287.56 332.935 286.114C331.642 284.668 332.396 281.889 334.298 281.505C334.439 281.477 334.584 281.46 334.728 281.443C335.044 281.406 335.359 281.369 335.631 281.213C335.988 281.009 336.209 280.636 336.413 280.279L340.573 273.031C340.835 272.576 341.101 272.107 341.179 271.588C341.34 270.53 340.697 269.524 339.998 268.714C339.887 268.585 339.774 268.458 339.66 268.33L339.659 268.329C339.055 267.65 338.441 266.96 338.194 266.094C337.901 265.066 338.418 263.71 339.481 263.584C345.053 262.921 351.18 262.958 355.665 266.331C355.79 266.426 355.915 266.523 356.04 266.62L356.04 266.62C356.681 267.12 357.332 267.627 358.12 267.789C359.06 267.982 360.242 267.393 360.234 266.432C360.229 265.818 359.772 265.286 359.333 264.776C358.807 264.162 358.308 263.581 358.653 262.929C358.79 262.672 359.038 262.496 359.278 262.33L366.64 257.24C367.063 256.106 365.472 255.166 364.293 255.436C363.709 255.57 363.176 255.854 362.644 256.138C362.101 256.428 361.558 256.717 360.961 256.847C358.571 257.369 356.482 255.256 355.007 253.304C349.726 246.318 345.294 238.69 341.842 230.641C341.684 230.272 341.524 229.868 341.622 229.479C341.748 228.978 342.247 228.679 342.701 228.434L354.577 222.041C355.534 221.526 356.959 221.124 357.506 222.062L372.705 248.118C372.947 248.533 373.195 248.97 373.208 249.449C373.235 250.434 372.291 251.154 371.391 251.558C371.251 251.62 371.108 251.681 370.965 251.742L370.964 251.743C370.184 252.075 369.382 252.416 368.938 253.119C368.412 253.953 368.98 255.418 369.943 255.209C375.124 252.717 380.529 250.171 386.277 250.174C387.365 250.174 388.526 250.295 389.374 250.977C391.262 252.492 390.425 255.518 389.234 257.625C387.062 261.471 384.235 264.945 380.91 267.852C380.248 268.432 379.501 269.136 379.584 270.012C379.7 271.251 381.314 271.685 382.549 271.542C382.745 271.519 382.944 271.491 383.146 271.463L383.146 271.463C384.215 271.312 385.332 271.154 386.17 271.782C386.61 272.112 386.886 272.61 387.149 273.093L400.501 297.569C396.007 299.977 391.459 302.282 386.861 304.482C386.407 304.699 385.903 304.921 385.416 304.793C384.84 304.641 384.5 304.061 384.223 303.533L371.539 279.377C370.998 278.347 371.897 277.108 372.924 276.561C373.295 276.363 373.692 276.208 374.087 276.053C374.786 275.779 375.482 275.507 376.028 275.004C376.885 274.216 376.999 272.486 375.897 272.114C375.27 271.903 374.599 272.246 374.053 272.62C373.626 272.913 373.213 273.233 372.799 273.554C371.735 274.379 370.671 275.203 369.385 275.545C366.791 276.233 363.81 274.4 363.254 271.775ZM337.902 280.923C337.856 280.999 337.809 281.078 337.795 281.166C337.755 281.418 338.013 281.637 338.267 281.655C338.521 281.674 338.762 281.552 338.988 281.435L345.015 278.292C345.329 278.128 345.679 277.918 345.739 277.569C345.785 277.297 345.635 277.034 345.491 276.798L343.625 273.744C343.527 273.585 343.422 273.418 343.256 273.333C342.802 273.1 342.332 273.603 342.067 274.04L337.902 280.923ZM346.912 279.891C347.054 279.978 347.144 280.127 347.229 280.271L349.742 284.542C349.769 284.855 349.314 284.929 349.004 284.881L340.517 283.553C340.101 283.488 339.664 283.414 339.337 283.15C341.279 281.461 343.68 280.306 346.212 279.842C346.447 279.799 346.707 279.766 346.912 279.891Z" fill="white"/>
<path fill-rule="evenodd" clip-rule="evenodd" d="M179.843 238.726C180.442 236.307 182.639 234.369 185.113 234.077C186.6 233.901 187.823 232.719 188.425 231.348C189.028 229.978 189.11 228.439 189.095 226.942C189.045 222.161 187.887 217.032 184.29 213.884C180.389 210.47 174.627 210.235 169.515 211.09C167.287 211.462 164.926 212.103 163.484 213.841C162.596 214.911 162.164 216.275 161.751 217.602C160.907 220.316 160.058 223.056 159.823 225.888C159.587 228.72 160.013 231.691 161.553 234.079C162.625 235.742 164.47 237.143 166.429 236.866C167.965 236.648 169.059 238.233 170.317 239.14C172.034 240.379 174.316 240.394 176.433 240.36C177.794 240.338 179.515 240.047 179.843 238.726Z" fill="white"/>
<path fill-rule="evenodd" clip-rule="evenodd" d="M222.391 284.411C227.233 284.761 232.076 285.112 236.918 285.462C235.84 286.611 234.066 286.675 232.491 286.638C223.226 286.421 213.751 285.378 205.44 281.277C196.732 276.98 186.745 275.317 177.114 276.559C177.387 275.431 178.773 275.045 179.926 274.91C187.695 274.004 195.705 275.272 202.815 278.532C205.96 279.975 208.945 281.803 212.24 282.86C215.508 283.909 218.969 284.163 222.391 284.411Z" fill="#00160A"/>
<path fill-rule="evenodd" clip-rule="evenodd" d="M201.824 182.837C206.694 182.478 211.644 183.313 216.447 182.427C216.654 182.653 216.861 182.88 217.068 183.106C214.597 184.78 211.324 184.225 208.352 183.955C202.703 183.442 196.939 184.229 191.634 186.238C189.089 187.202 186.579 188.459 183.862 188.614C177.387 188.984 171.049 191.468 166.046 195.597C165.852 195.06 165.449 194.602 164.941 194.341C168.751 192.012 172.828 190.121 177.067 188.718C179.631 187.869 182.25 187.199 184.867 186.53C187.067 185.968 189.267 185.406 191.467 184.843C194.879 183.971 198.312 183.095 201.824 182.837V182.837Z" fill="#00160A"/>
<path fill-rule="evenodd" clip-rule="evenodd" d="M302.446 144.341C301.437 145.308 300.472 146.328 299.366 147.184C297.903 148.315 296.226 149.132 294.554 149.923C289.502 152.315 284.324 154.565 278.844 155.671C276.291 156.187 273.692 156.449 271.142 156.98C263.153 158.646 255.907 162.903 249.533 168C249.038 168.396 248.509 168.814 247.879 168.888C247.248 168.961 246.515 168.52 246.534 167.885C253.824 163.057 261.308 158.142 269.811 156.102C273.599 155.193 277.512 154.877 281.29 153.929C285.048 152.986 288.622 151.43 292.139 149.805C294.479 148.724 296.821 147.599 298.884 146.052C302.13 143.618 304.672 140.156 308.39 138.53C308.841 138.333 309.574 138.32 309.611 138.811C307.035 140.392 304.628 142.249 302.446 144.341Z" fill="#00160A"/>
<path fill-rule="evenodd" clip-rule="evenodd" d="M141.374 140.43C141.937 142.261 143.253 143.848 144.948 144.741C144.904 144.949 144.859 145.157 144.814 145.365C143.103 146.028 141.921 147.862 142.025 149.694C142.057 150.258 141.216 150.504 140.755 150.177C140.295 149.85 140.139 149.25 139.991 148.704C139.806 148.02 139.574 147.332 139.141 146.77C138.708 146.208 138.041 145.787 137.332 145.81C136.813 145.827 136.449 145.214 136.547 144.704C136.646 144.194 137.057 143.804 137.485 143.51C137.914 143.217 138.389 142.976 138.738 142.59C139.145 142.139 139.336 141.537 139.475 140.945C139.561 140.576 139.638 140.19 139.865 139.887C140.092 139.583 140.522 139.393 140.859 139.567C141.165 139.725 141.273 140.1 141.374 140.43L141.374 140.43Z" fill="#00160A"/>
<path fill-rule="evenodd" clip-rule="evenodd" d="M305.508 306.405C298.676 306.131 291.916 304.22 285.952 300.875C284.927 300.3 283.77 299.311 284.131 298.191C289.871 302.006 296.614 304.296 303.489 304.765C308.069 305.078 312.697 304.6 317.245 305.225C322.394 305.933 327.233 308.023 332.182 309.612C337.131 311.201 342.475 312.298 347.501 310.969C347.97 310.845 348.478 310.702 348.928 310.883C349.379 311.063 349.635 311.741 349.253 312.041C349.137 312.132 348.988 312.169 348.844 312.203C344.833 313.134 340.625 313.204 336.585 312.406C330.1 311.125 324.159 307.668 317.614 306.736C313.614 306.167 309.545 306.567 305.508 306.405Z" fill="#00160A"/>
<path fill-rule="evenodd" clip-rule="evenodd" d="M347.528 194.629C347.491 195.257 347.491 196.146 346.864 196.212C346.28 196.273 346.052 195.496 345.912 194.925C345.537 193.39 344.223 192.127 342.675 191.811C342.062 191.686 342.129 190.695 342.639 190.333C343.149 189.971 343.827 189.982 344.424 189.797C345.355 189.508 346.073 188.733 346.512 187.863C346.952 186.993 347.15 186.024 347.344 185.069C347.393 184.827 347.7 184.709 347.935 184.783C348.17 184.857 348.339 185.064 348.464 185.276C349.327 186.731 348.823 188.766 349.87 190.094C350.356 190.711 351.131 191.098 351.467 191.808C351.044 192.164 350.423 192.077 349.875 192.141C348.645 192.285 347.6 193.393 347.528 194.629L347.528 194.629Z" fill="#00160A"/>
<path fill-rule="evenodd" clip-rule="evenodd" d="M170.475 159.065C171.228 159.857 171.496 160.983 172.055 161.922C172.646 162.918 173.583 163.703 174.666 164.113C172.926 164.706 171.571 166.307 171.273 168.122C171.203 168.55 171.036 169.125 170.603 169.087C170.491 169.077 170.39 169.022 170.295 168.961C168.751 167.964 168.493 165.429 166.732 164.902C166.111 164.716 166.165 163.75 166.625 163.293C167.085 162.836 167.755 162.652 168.246 162.229C169.236 161.374 169.332 159.701 170.475 159.065V159.065Z" fill="#00160A"/>
<path fill-rule="evenodd" clip-rule="evenodd" d="M215.347 144.129C214.909 144.295 214.426 143.953 214.201 143.542C213.975 143.13 213.907 142.649 213.695 142.231C213.15 141.153 211.765 140.665 211.314 139.544C211.171 139.188 211.171 138.713 211.486 138.494C211.611 138.406 211.766 138.375 211.912 138.331C212.957 138.018 213.632 137.009 214.053 136.004C214.475 134.998 214.745 133.908 215.394 133.032C215.555 132.814 215.758 132.601 216.024 132.547C216.29 132.493 216.614 132.679 216.605 132.95C216.575 133.938 216.544 134.925 216.513 135.912C216.495 136.484 216.481 137.076 216.705 137.602C216.928 138.128 217.461 138.569 218.028 138.494C218.422 138.442 218.628 139.022 218.429 139.366C218.23 139.71 217.833 139.874 217.494 140.082C216.649 140.601 216.069 141.527 215.97 142.513C215.909 143.122 215.92 143.911 215.347 144.129V144.129Z" fill="#00160A"/>
<path fill-rule="evenodd" clip-rule="evenodd" d="M138.488 204.195C138.968 204.02 139.264 204.859 138.901 205.219C138.538 205.58 137.959 205.556 137.447 205.549C134.201 205.505 131.107 207.14 128.759 209.383C127.529 210.559 126.414 212.034 126.343 213.733C126.304 214.656 126.456 215.833 125.638 216.262C124.957 215.221 124.687 213.919 124.898 212.693C125.269 210.53 126.992 208.878 128.708 207.509C130.679 205.937 132.989 204.45 135.504 204.62C136.514 204.688 137.538 204.543 138.488 204.195Z" fill="#00160A"/>
<path fill-rule="evenodd" clip-rule="evenodd" d="M281.171 316.07C282.454 315.346 283.449 314.126 283.901 312.723C284.072 312.194 284.949 312.325 285.203 312.819C285.457 313.313 285.306 313.906 285.193 314.45C285.045 315.159 284.974 315.914 285.229 316.592C285.483 317.269 286.142 317.838 286.864 317.785C287.148 317.764 287.348 318.111 287.279 318.387C287.21 318.663 286.966 318.859 286.718 318.998C285.751 319.542 284.431 319.626 283.852 320.573C283.648 320.907 283.575 321.302 283.436 321.668C283.296 322.034 283.055 322.4 282.68 322.511C282.304 322.621 281.819 322.318 281.886 321.933C282.118 320.589 281.682 319.146 280.744 318.157C280.472 317.87 280.138 317.571 280.136 317.176C280.134 316.644 280.708 316.332 281.171 316.07L281.171 316.07Z" fill="#00160A"/>
<path fill-rule="evenodd" clip-rule="evenodd" d="M138.191 216.297C139.38 217.568 140.949 218.479 142.642 218.883C143.028 218.975 142.897 219.558 142.68 219.891C142.059 220.839 141.438 221.788 140.817 222.737C141 223.139 141.185 223.599 141.014 224.006C140.844 224.413 140.127 224.522 140.009 224.097C139.555 222.451 137.894 221.223 136.187 221.272C136.372 220.706 136.783 220.247 137.116 219.754C137.802 218.74 138.18 217.521 138.191 216.297Z" fill="white"/>
<path fill-rule="evenodd" clip-rule="evenodd" d="M215.89 272.81C215.562 271.29 214.268 270.025 212.741 269.73C212.585 268.166 214.603 267.252 215.036 265.741C215.125 265.427 215.144 265.091 215.281 264.795C215.418 264.499 215.732 264.243 216.048 264.321C216.303 265.488 216.941 266.568 217.841 267.353C218.074 267.557 218.333 267.752 218.465 268.033C218.596 268.314 218.54 268.714 218.258 268.844C216.807 269.51 216.27 271.26 215.89 272.81Z" fill="white"/>
<path fill-rule="evenodd" clip-rule="evenodd" d="M161.666 252.315C161.896 252.25 162.147 252.261 162.369 252.348C162.274 253.943 163.206 255.554 164.636 256.266C163.72 257.508 163.077 258.951 162.764 260.462C162.592 260.558 162.397 260.386 162.274 260.232C161.297 259.003 160.319 257.775 159.341 256.546C160.671 255.553 161.541 253.969 161.666 252.315Z" fill="white"/>
<path fill-rule="evenodd" clip-rule="evenodd" d="M318.723 265.945C318.552 265.801 318.362 265.659 318.14 265.636C317.94 265.616 317.738 265.698 317.54 265.667C317.341 265.636 317.158 265.387 317.297 265.242C319.374 264.569 320.546 262.43 321.514 260.473C321.646 260.306 321.94 260.411 322.028 260.604C322.117 260.797 322.07 261.021 322.034 261.23C321.879 262.137 321.982 263.105 322.435 263.906C322.888 264.707 323.714 265.315 324.631 265.394C323.096 266.096 321.402 266.972 320.905 268.586C320.348 267.582 319.604 266.682 318.723 265.945L318.723 265.945Z" fill="white"/>
<path fill-rule="evenodd" clip-rule="evenodd" d="M163.219 273.495C165.973 272.912 168.839 272.278 171.031 270.512C171.297 270.299 171.575 270.059 171.914 270.032C172.254 270.005 172.631 270.331 172.508 270.648C171.905 272.193 170.126 272.861 168.542 273.355C167.579 273.656 166.616 273.956 165.653 274.257C165.177 274.405 164.678 274.556 164.186 274.473C163.694 274.39 163.216 273.994 163.219 273.495L163.219 273.495Z" fill="#00160A"/>
<path fill-rule="evenodd" clip-rule="evenodd" d="M264.612 288.46C265.041 288.009 265.778 288.13 266.377 288.301C269.19 289.104 271.902 290.26 274.428 291.734C276.455 292.916 278.368 294.307 280.028 295.965C278.053 295.76 276.391 294.474 274.717 293.408C272.422 291.947 269.928 290.833 267.444 289.724C266.5 289.303 265.556 288.881 264.612 288.46Z" fill="#00160A"/>
<path fill-rule="evenodd" clip-rule="evenodd" d="M127.75 239.318C127.38 237.627 127.063 235.925 126.799 234.214C126.734 233.794 126.672 233.373 126.61 232.952C126.094 229.442 125.579 225.93 125.195 222.403C125.151 221.992 125.381 221.373 125.747 221.567C125.897 221.647 125.945 221.835 125.978 222.002C126.673 225.516 127.368 229.03 128.063 232.544C128.53 234.909 128.997 237.365 128.423 239.707C128.38 239.883 128.118 239.914 127.977 239.8C127.836 239.686 127.788 239.495 127.75 239.318Z" fill="#00160A"/>
<path fill-rule="evenodd" clip-rule="evenodd" d="M173.995 262.688C174.029 263.278 173.738 264.134 173.183 263.93C172.554 257.384 172.017 250.83 171.571 244.27C171.556 244.049 171.545 243.813 171.656 243.622C171.768 243.432 172.055 243.329 172.216 243.48C172.297 243.556 172.325 243.671 172.349 243.779C173.121 247.321 173.329 250.959 173.534 254.578C173.688 257.281 173.842 259.985 173.995 262.688Z" fill="#00160A"/>
<path fill-rule="evenodd" clip-rule="evenodd" d="M129.95 189.242C129.666 189.389 129.381 189.537 129.097 189.684C124.295 184.655 118.057 181.013 111.317 179.303C111.276 178.977 111.306 178.642 111.405 178.328C117.57 179.464 123.389 182.418 127.944 186.724C128.729 187.466 129.49 188.265 129.95 189.242Z" fill="#00160A"/>
<path fill-rule="evenodd" clip-rule="evenodd" d="M127.343 310.226C135.903 307.438 143.777 302.568 150.095 296.156C151.359 294.873 152.561 293.53 153.763 292.188C154.254 291.639 154.746 291.09 155.238 290.54C155.533 292.606 153.877 294.384 152.354 295.81C145.523 302.209 138.153 308.889 128.945 310.57C128.375 310.674 127.67 310.705 127.343 310.226L127.343 310.226Z" fill="#00160A"/>
<path fill-rule="evenodd" clip-rule="evenodd" d="M181.544 220.191C182.139 220.068 182.722 220.429 183.192 220.815C184.209 221.651 185.081 222.748 185.334 224.04C185.586 225.332 185.085 226.824 183.928 227.452C183.326 227.779 182.543 227.538 182.045 227.067C181.547 226.597 181.27 225.945 181.006 225.313C180.464 224.013 179.918 222.544 180.446 221.239C180.644 220.75 181.027 220.297 181.544 220.191L181.544 220.191Z" fill="#FFB61D"/>
<path fill-rule="evenodd" clip-rule="evenodd" d="M76.9775 213.204C76.0137 212.8 75.2726 211.902 75.0583 210.879C74.8439 209.856 75.1622 208.737 75.8826 207.98C76.7717 207.045 78.1292 206.725 79.4164 206.644C80.7262 206.562 82.0484 206.683 83.3215 207.001C83.8068 207.122 84.305 207.284 84.6622 207.634C84.9381 207.904 85.1067 208.267 85.2145 208.638C85.5783 209.89 85.2665 211.317 84.4138 212.303C83.561 213.289 82.1939 213.803 80.9027 213.624C79.5924 213.442 78.1975 213.716 76.9775 213.204M79.1283 210.667C80.0999 210.786 81.079 210.844 82.0579 210.842C82.4556 210.84 82.8857 210.818 83.1941 210.567C83.5025 210.316 83.5696 209.75 83.2241 209.553C81.9022 208.8 80.2248 208.705 78.8266 209.306C78.5033 209.444 78.1487 209.698 78.1793 210.048C78.2149 210.457 78.7211 210.617 79.1283 210.667L79.1283 210.667Z" fill="#00160A"/>
<path fill-rule="evenodd" clip-rule="evenodd" d="M150.969 195.424C151.13 195.463 151.157 195.705 151.05 195.832C150.959 195.941 150.817 195.986 150.676 196.017L140.654 198.029V198.029C140.254 198.109 139.621 197.917 139.804 197.552C139.878 197.405 140.059 197.356 140.22 197.323C143.782 196.579 147.368 195.946 150.969 195.424Z" fill="#00160A"/>
<path fill-rule="evenodd" clip-rule="evenodd" d="M179.076 213.386C177.936 213.243 176.763 213.397 175.686 213.798C174.824 214.12 173.878 213.714 173.05 213.316C172.249 212.931 171.448 212.547 170.647 212.162C170.639 211.897 170.974 211.782 171.237 211.748C173.838 211.416 176.516 211.334 179.047 212.019C181.577 212.705 183.962 214.235 185.239 216.525C183.373 215.124 181.391 213.676 179.076 213.386Z" fill="#00160A"/>
<path fill-rule="evenodd" clip-rule="evenodd" d="M167.934 218.02C167.684 220.027 166.499 221.898 164.792 222.981C164.345 223.264 163.801 223.501 163.301 223.329C162.796 223.155 162.503 222.592 162.499 222.058C162.496 221.523 162.726 221.015 162.994 220.553C163.826 219.118 165.071 217.925 166.541 217.155C166.913 216.96 167.406 216.805 167.721 217.082C167.972 217.303 167.975 217.689 167.934 218.02V218.02Z" fill="#FFB61D"/>
<path fill-rule="evenodd" clip-rule="evenodd" d="M217.145 313.056C215.142 312.06 213.1 310.132 213.615 307.955C213.973 306.447 215.432 305.493 216.818 304.797C218.721 303.842 220.718 303.074 222.77 302.508C224.165 302.123 225.799 301.65 226.295 300.291C229.195 292.349 236.692 286.296 245.058 285.067C253.423 283.839 262.312 287.454 267.5 294.13C268.529 295.454 269.801 297.061 271.457 296.8C274.786 296.274 278.423 296.161 281.277 297.952C282.331 298.614 283.311 299.758 283.038 300.972C282.909 301.547 282.517 302.024 282.119 302.459C279.644 305.159 276.404 307.15 272.877 308.14C271.131 308.629 269.792 310.053 268.858 311.606C267.923 313.159 267.306 314.883 266.432 316.471C262.96 322.78 255.459 326.344 248.269 325.943C241.078 325.543 234.361 321.552 229.781 315.995C229.258 315.361 228.597 314.636 227.784 314.755C224.175 315.28 220.41 314.679 217.145 313.056M228.975 308.745C229.297 308.977 229.702 309.054 230.093 309.118C238.568 310.51 247.214 308.857 255.642 307.209C259.298 306.494 262.954 305.779 266.61 305.064C267.356 304.918 268.19 304.713 268.578 304.059C268.833 303.629 268.831 303.098 268.795 302.6C268.484 298.244 266.11 294.163 262.742 291.384C259.374 288.604 255.085 287.068 250.742 286.613C244.81 285.993 238.533 287.437 233.957 291.263C229.38 295.088 226.801 301.436 228.173 307.241C228.307 307.806 228.504 308.405 228.975 308.745M266.322 310.417C255.633 313.355 244.524 314.765 233.44 314.591C232.667 314.579 232.168 315.522 232.339 316.276C232.51 317.029 233.115 317.597 233.706 318.096C237.273 321.107 241.5 323.434 246.085 324.311C250.67 325.188 255.625 324.527 259.566 322.025C263.508 319.523 266.285 315.085 266.322 310.417M215.229 309.126C215.351 309.968 216.081 310.58 216.81 311.018C219.667 312.735 223.134 313.034 226.464 313.166C239.906 313.699 253.427 312.185 266.419 308.693C271.624 307.294 276.986 305.428 280.623 301.45C280.938 301.105 281.253 300.713 281.287 300.247C281.359 299.265 280.226 298.674 279.266 298.458C276.889 297.923 274.419 298.038 271.985 298.156C271.136 298.197 270.039 298.462 269.968 299.309C269.89 300.238 271.142 300.636 272.072 300.556C273.001 300.476 274.157 300.346 274.654 301.135C275.333 302.215 273.928 303.391 272.744 303.867C263.801 307.468 254.153 308.879 244.611 310.261C242.36 310.587 240.103 310.914 237.83 310.978C235.878 311.032 233.926 310.892 231.979 310.753C230.157 310.622 228.335 310.491 226.513 310.36C225.59 310.294 224.63 310.217 223.828 309.755C223.026 309.293 222.435 308.324 222.713 307.442C223.021 306.464 224.145 306.065 225.025 305.54C225.905 305.015 226.66 303.772 225.94 303.043C222.941 303.688 220.04 304.784 217.363 306.282C216.26 306.899 215.05 307.875 215.229 309.126M270.545 303.455C271.372 303.117 272.199 302.778 273.025 302.439C273.278 302.335 273.58 302.147 273.529 301.879C273.484 301.644 273.201 301.555 272.966 301.511C272.287 301.386 271.528 301.275 270.955 301.658C270.391 302.035 270.201 302.872 270.545 303.455M224.345 307.574C224.28 307.624 224.213 307.676 224.175 307.75C224.013 308.063 224.497 308.331 224.846 308.279C225.196 308.227 225.606 308.08 225.863 308.323C226.232 308.672 226.92 308.204 226.851 307.699C226.782 307.195 226.211 306.883 225.704 306.924C225.197 306.966 224.75 307.265 224.345 307.574L224.345 307.574Z" fill="#00160A"/>
<path fill-rule="evenodd" clip-rule="evenodd" d="M176.852 233.863C176.264 233.915 175.586 233.734 175.322 233.206C175.117 232.794 175.226 232.292 175.434 231.881C175.739 231.278 176.277 230.768 176.936 230.616C177.595 230.463 178.361 230.73 178.689 231.322C178.99 231.865 178.87 232.582 178.48 233.064C178.089 233.547 177.471 233.809 176.852 233.863L176.852 233.863Z" fill="#FFB61D"/>
<path fill-rule="evenodd" clip-rule="evenodd" d="M175.387 229.17C175.207 229.462 174.908 229.709 174.565 229.714C173.996 229.721 173.637 229.096 173.524 228.538C173.416 228.004 173.416 227.448 173.525 226.914C173.557 226.756 173.635 226.568 173.796 226.556C174.423 226.509 175.064 226.839 175.391 227.376C175.718 227.913 175.716 228.634 175.387 229.17L175.387 229.17Z" fill="#FFB61D"/>
<path fill-rule="evenodd" clip-rule="evenodd" d="M254.99 323.144C254.601 323.244 254.038 323.195 253.991 322.796C255.41 322.254 256.83 321.712 258.249 321.17C257.389 322.129 256.239 322.826 254.99 323.144Z" fill="#E7EAEE"/>
<path fill-rule="evenodd" clip-rule="evenodd" d="M167.315 230.431C167.606 230.917 167.839 231.468 167.788 232.032C167.737 232.595 167.326 233.157 166.763 233.216C166.214 233.274 165.732 232.869 165.36 232.46C164.938 231.996 164.548 231.463 164.448 230.843C164.349 230.223 164.624 229.505 165.208 229.274C166.021 228.953 166.866 229.682 167.315 230.431L167.315 230.431Z" fill="#FFB61D"/>
<path fill-rule="evenodd" clip-rule="evenodd" d="M234.057 316.046C234.501 316.739 234.946 317.433 235.391 318.126C235.462 318.237 235.368 318.411 235.236 318.412C234.246 317.726 233.461 316.747 233.008 315.631C233.272 315.271 233.816 315.671 234.057 316.046L234.057 316.046Z" fill="#E7EAEE"/>
<path fill-rule="evenodd" clip-rule="evenodd" d="M79.984 266.17C79.5704 265.485 79.204 264.711 79.2968 263.916C79.3567 263.403 79.6052 262.93 79.9052 262.509C81.0986 260.836 83.1539 259.885 85.207 259.8C87.26 259.715 89.2948 260.431 91.0082 261.565C91.6307 261.977 92.2365 262.468 92.5605 263.141C93.067 264.193 92.7637 265.495 92.079 266.441C91.3943 267.386 90.3862 268.04 89.3767 268.626C88.4467 269.166 87.4527 269.68 86.3782 269.724C85.8001 269.748 85.2262 269.633 84.6589 269.519C84.0902 269.405 83.5172 269.29 82.9822 269.066C81.6783 268.521 80.7144 267.38 79.984 266.17M84.3623 263.338C83.9707 262.803 83.3055 262.205 82.7428 262.556C82.2609 262.857 81.8546 263.278 81.571 263.77C82.5125 263.97 83.5252 263.813 84.3623 263.338M86.126 261.371C85.5264 261.408 84.9018 261.452 84.3825 261.754C84.6439 262.135 84.9578 262.505 85.3852 262.679C85.8126 262.852 86.3758 262.766 86.6233 262.376C86.8707 261.987 86.5865 261.343 86.126 261.371M87.0068 265.578C86.9022 265.916 86.7965 266.269 86.8519 266.618C86.9074 266.968 87.1767 267.311 87.5302 267.325C88.0371 267.346 88.3683 266.737 88.8702 266.663C88.3281 266.184 87.691 265.813 87.0068 265.578M89.7419 263.15C90.1054 263.335 90.6138 263.083 90.6864 262.682C89.7922 262.178 88.5292 262.494 87.9779 263.36C88.5417 263.583 89.2174 263.496 89.7062 263.137M85.6907 266.647C85.6645 266.522 85.6168 266.389 85.5065 266.325C85.1488 266.118 84.9253 266.812 84.5334 266.943C84.1639 267.066 84.1111 267.648 84.4134 267.894C84.7157 268.139 85.2038 268.043 85.4608 267.75C85.7178 267.457 85.7709 267.028 85.6907 266.647M83.0331 265.27C82.6362 265.504 82.031 265.259 81.7239 265.602C81.4554 265.902 81.7134 266.434 82.1031 266.535C82.4928 266.637 82.901 266.427 83.1932 266.15C83.3535 265.998 83.5008 265.802 83.489 265.581C83.4773 265.36 83.2233 265.158 83.0331 265.27M90.4006 265.274C90.5505 265.168 90.7004 265.062 90.8503 264.957C90.5764 264.579 90.0303 264.559 89.5637 264.576C89.4195 264.582 89.2649 264.59 89.1508 264.679C88.8858 264.884 89.0766 265.357 89.3954 265.46C89.7141 265.564 90.0562 265.429 90.3639 265.296L90.4006 265.274Z" fill="#00160A"/>
<path fill-rule="evenodd" clip-rule="evenodd" d="M270.412 223.178C269.3 221.745 268.188 220.312 267.076 218.879C266.714 218.412 266.498 217.513 267.083 217.423C267.464 218.601 268.649 219.341 269.835 219.695C271.022 220.049 272.281 220.12 273.459 220.501C274.576 220.862 275.583 221.488 276.6 222.072C282.212 225.293 288.425 227.351 294.087 230.483C294.419 230.667 294.791 230.92 294.802 231.299C294.814 231.723 294.368 232.004 293.967 232.141C291.905 232.843 289.428 232.043 288.166 230.268C287.558 229.413 286.261 229.706 285.217 229.809C283.292 230.001 281.419 229.216 279.644 228.447C277.765 227.634 275.887 226.82 274.008 226.007C273.353 225.723 272.692 225.436 272.12 225.01C271.448 224.51 270.926 223.84 270.412 223.178M291.77 231.3C292.106 231.214 291.83 230.705 291.528 230.533C288.56 228.845 285.539 227.172 282.248 226.261C280.541 225.788 278.896 225.092 277.369 224.195C275.322 222.993 273.313 221.376 270.939 221.363C270.917 222.651 271.974 223.729 273.136 224.282C274.299 224.836 275.602 225.022 276.806 225.482C278.316 226.059 279.628 227.049 281.062 227.796C282.496 228.542 284.184 229.046 285.723 228.551C286.813 228.201 287.988 228.749 288.911 229.427C289.834 230.104 290.681 230.944 291.77 231.3Z" fill="#00160A"/>
<path fill-rule="evenodd" clip-rule="evenodd" d="M370.053 259.264C371.191 258.648 372.329 258.033 373.467 257.417C373.793 257.24 374.144 257.058 374.513 257.091C375.057 257.138 375.445 257.62 375.758 258.067C376.839 259.605 377.842 261.199 378.762 262.839C378.986 263.238 378.539 263.672 378.15 263.913C376.868 264.707 375.586 265.5 374.305 266.293C373.98 266.494 373.634 266.701 373.253 266.702C372.661 266.703 372.195 266.22 371.806 265.773C370.983 264.826 370.161 263.88 369.338 262.934C368.844 262.366 368.317 261.694 368.427 260.949C368.545 260.146 369.339 259.65 370.053 259.264M375.053 260.273C374.822 259.902 374.548 259.498 374.122 259.403C373.791 259.328 373.452 259.462 373.138 259.592C372.578 259.826 372.018 260.06 371.458 260.294C371.239 260.386 371.009 260.485 370.862 260.672C370.486 261.149 370.845 261.835 371.201 262.327C371.724 263.048 372.247 263.77 372.77 264.491C372.931 264.712 373.126 264.954 373.398 264.975C373.591 264.99 373.771 264.888 373.935 264.786C374.56 264.395 375.149 263.947 375.693 263.449C376.077 263.096 376.465 262.543 376.189 262.1C375.81 261.491 375.432 260.882 375.053 260.273L375.053 260.273Z" fill="#FFB61D"/>
<path fill-rule="evenodd" clip-rule="evenodd" d="M315.295 194.654C317.89 202.942 315.1 211.851 312.328 220.081C319.087 225.158 324.474 232.041 327.779 239.821C328.806 242.24 329.615 245.095 328.373 247.41C326.865 250.219 323.149 250.841 319.961 250.869C311.978 250.939 303.984 249.315 296.661 246.135C293.897 244.934 290.754 243.5 288.016 244.76C275.941 250.319 260.92 248.34 250.281 240.369C239.641 232.398 233.566 218.93 233.938 205.641C234.01 203.104 232.105 201.006 230.414 199.113C224.625 192.634 219.972 185.143 216.73 177.082C215.375 173.714 214.317 169.695 216.245 166.618C218.471 163.063 223.47 162.644 227.627 163.201C236.865 164.438 245.684 168.63 252.477 175.012C258.918 169.372 267.381 166.09 275.94 165.913C284.5 165.736 293.091 168.665 299.76 174.034C303.073 176.7 305.897 179.921 308.549 183.246C311.32 186.72 313.967 190.413 315.295 194.654M314.094 239.595C312.016 241.817 308.525 241.832 305.516 241.384C296.374 240.023 287.892 235.949 279.571 231.926C273.769 229.12 267.939 226.299 262.639 222.633C259.421 220.407 256.42 217.884 253.472 215.31C242.934 206.112 232.455 195.18 230.402 181.344C230 178.641 232.228 176.047 234.86 175.317C237.493 174.586 240.332 175.353 242.761 176.606C244.021 177.256 245.265 178.053 246.675 178.199C248.086 178.346 249.73 177.554 249.933 176.15C250.147 174.673 248.763 173.498 247.508 172.689C240.41 168.114 232.298 164.791 223.858 164.492C222.071 164.428 220.14 164.549 218.743 165.665C216.214 167.686 216.784 171.642 217.82 174.71C222.182 187.622 230.517 198.929 240.414 208.299C250.31 217.669 261.765 225.23 273.423 232.289C287.539 240.836 302.773 248.932 319.268 249.402C320.918 249.449 322.615 249.41 324.145 248.789C325.674 248.168 327.016 246.85 327.231 245.214C327.376 244.109 327.004 243.006 326.602 241.967C323.509 233.97 318.216 226.837 311.458 221.559C310.852 222.874 310.247 224.189 309.641 225.504C311.649 227.386 313.707 229.337 314.842 231.845C315.978 234.352 315.974 237.584 314.094 239.595M309.933 220.02C310.425 219.695 310.698 219.132 310.937 218.592C313.499 212.785 314.731 206.396 314.511 200.053C312.022 200.209 309.533 200.365 307.044 200.521C305.86 200.595 304.663 200.669 303.495 200.46C302.077 200.207 300.768 199.55 299.407 199.079C296.362 198.028 293.085 197.92 289.866 197.822C288.621 197.784 287.512 197.05 286.543 196.269C279.731 190.778 276.244 181.847 269.108 176.784C268.347 176.244 267.539 175.743 266.944 175.024C265.735 173.564 265.577 171.414 264.268 170.042C264.595 174.997 267.658 179.344 271.061 182.96C274.464 186.576 278.354 189.807 281.025 193.994C282.393 196.138 284.832 197.351 287.255 198.126C289.678 198.901 292.222 199.351 294.505 200.474C296.243 201.328 297.859 202.579 299.781 202.817C301.566 203.038 303.323 202.345 305.105 202.096C307.711 201.731 310.347 202.319 312.913 202.903C313.431 203.021 314.072 203.286 314.057 203.818C314.039 204.455 313.148 204.591 312.519 204.488C309.468 203.99 306.215 202.685 303.434 204.037C301.285 205.082 298.692 204.52 296.515 203.533C294.338 202.545 292.333 201.151 290.04 200.476C288.411 199.996 286.683 199.894 285.081 199.334C280.606 197.768 278.139 193.14 275.065 189.531C272.703 186.758 269.821 184.47 267.407 181.742C264.994 179.014 263.006 175.646 263.009 172.004C263.01 171.06 261.577 171.075 260.703 171.43C258.562 172.298 256.394 173.18 254.536 174.553C252.677 175.925 251.129 177.865 250.712 180.138C250.132 183.298 252.084 186.735 255.096 187.855C257.646 188.803 256.738 193.738 259.394 194.326C261.101 194.705 261.656 196.791 262.155 198.467C262.653 200.143 264.129 202.064 265.744 201.394C266.796 200.958 267.879 201.845 268.768 202.555C269.657 203.265 271.11 203.792 271.8 202.888C269.835 202.184 269.234 199.18 270.778 197.775C271.942 196.716 273.708 196.714 275.263 196.948C277.088 197.222 278.945 197.772 280.308 199.015C281.671 200.257 282.405 202.328 281.659 204.015C280.793 205.973 280.781 208.291 281.627 210.258C282.667 209.822 283.707 209.387 284.747 208.951C286.143 208.366 287.588 207.771 289.101 207.79C290.614 207.81 292.226 208.609 292.716 210.041C293.207 211.474 292.474 213.011 291.76 214.348C294.394 213.859 297.249 214.802 299.074 216.763C301.477 219.345 305.112 220.726 308.623 220.392C309.079 220.349 309.55 220.272 309.933 220.02M303.054 179.711C302.63 179.359 302.082 178.996 301.569 179.197C299.74 179.916 297.66 179.336 295.887 178.489C294.114 177.642 292.437 176.522 290.518 176.101C289.074 175.783 287.568 175.881 286.112 175.624C282.653 175.015 279.874 172.521 277.3 170.131C276.97 169.824 276.624 169.493 276.509 169.057C276.394 168.621 276.626 168.063 277.072 168.003C279.47 171.723 283.704 174.194 288.122 174.451C289.336 174.522 290.572 174.437 291.751 174.732C293.431 175.151 294.823 176.292 296.352 177.104C297.882 177.917 299.84 178.377 301.287 177.426C292.774 168.179 278.455 164.813 266.713 169.298C266.531 169.368 266.313 169.499 266.348 169.691C266.917 172.786 269.675 174.897 271.994 177.024C277.246 181.843 281.003 188.05 285.732 193.383C287.175 195.01 289.013 196.68 291.181 196.513C294.283 196.274 297.437 196.737 300.339 197.857C301.616 198.35 302.861 198.972 304.212 199.187C306.992 199.628 309.875 198.291 312.607 198.966C313.402 199.163 314.193 198.447 314.375 197.648C314.557 196.85 314.299 196.022 314.017 195.253C311.814 189.23 307.989 183.808 303.054 179.711M249.388 228.409C251.592 230.339 255.063 229.854 257.583 231.348C258.806 232.072 259.793 233.256 261.173 233.596C262.386 233.896 263.692 233.479 264.902 233.789C266.052 234.084 266.931 234.98 267.819 235.768C271.347 238.9 275.95 240.797 280.66 241.062C281.899 241.132 282.872 242.095 283.969 242.675C285.066 243.254 286.787 243.22 287.161 242.037C280.863 238.981 274.935 235.223 269.023 231.473C256.784 223.711 244.366 215.798 234.804 204.907C235.082 207.187 235.361 209.467 235.639 211.747C235.986 214.587 236.335 217.438 237.09 220.198C240.078 231.12 249.277 239.552 259.674 244.037C264.268 246.019 269.308 247.357 274.26 246.645C271.188 245.837 269.396 242.669 266.7 240.99C263.917 239.257 260.145 239.095 257.99 236.625C255.371 233.622 249.888 233.52 248.515 229.78C248.258 229.081 248.827 227.919 249.388 228.409M248.507 194.291C248.258 195.869 248.877 197.557 250.088 198.6C250.665 199.098 251.375 199.469 251.79 200.108C252.282 200.866 252.232 201.935 251.67 202.643C250.727 203.832 248.889 203.719 247.442 203.259C246.646 203.005 245.859 202.673 245.224 202.131C244.381 201.412 243.874 200.388 243.272 199.457C241.975 197.448 240.147 195.785 238.025 194.681C237.896 196.426 239.056 197.977 240.187 199.312C245.11 205.119 250.671 210.355 256.417 215.348C258.294 216.979 260.193 218.586 262.182 220.078C269.47 225.546 277.831 229.374 286.119 233.158C289.115 234.527 292.112 235.895 295.108 237.263C295.521 237.452 295.964 237.645 296.414 237.581C296.9 237.512 297.291 237.159 297.646 236.82C300.189 234.398 302.646 231.886 305.013 229.291C305.127 229.166 305.247 229.024 305.247 228.855C305.247 228.628 305.036 228.466 304.846 228.342C301.729 226.295 298.611 224.249 295.493 222.203C294.932 221.835 294.348 221.458 293.685 221.364C292.893 221.252 292.11 221.557 291.322 221.688C286.413 222.5 282.526 216.686 277.55 216.727C275.91 216.741 274.35 217.405 272.729 217.654C271.109 217.904 269.19 217.592 268.324 216.2C267.823 215.393 267.782 214.396 267.567 213.471C267.352 212.546 266.825 211.557 265.897 211.354C265.442 211.254 264.971 211.365 264.505 211.372C262.669 211.401 261.197 209.843 260.318 208.232C259.438 206.62 258.861 204.795 257.579 203.481C256.119 201.986 253.914 201.341 252.597 199.718C251.262 198.073 251.072 195.697 249.658 194.119C249.412 193.846 248.99 193.593 248.708 193.829C248.577 193.94 248.533 194.121 248.507 194.291M289.801 214.576C289.657 213.452 291.075 212.674 291.17 211.546C291.287 210.156 289.449 209.489 288.061 209.624C286.727 209.754 285.425 210.192 284.283 210.893C282.968 211.701 281.179 212.83 280.124 211.703C279.846 211.407 279.71 211.008 279.6 210.618C278.902 208.14 279.006 205.443 279.892 203.025C280.332 201.825 279.589 200.449 278.519 199.748C277.449 199.047 276.134 198.861 274.866 198.691C274.062 198.584 273.186 198.49 272.491 198.909C271.796 199.328 271.532 200.487 272.214 200.927C273.206 201.566 273.567 203.015 272.991 204.045C271.531 205.058 269.547 204.527 267.862 203.96C266.558 203.52 265.253 203.081 263.948 202.642C262.996 202.321 261.991 201.965 261.359 201.185C260.121 199.66 260.622 196.929 258.894 195.996C258.43 195.745 257.881 195.689 257.412 195.448C255.066 194.24 256.282 189.686 253.799 188.793C249.862 187.378 247.784 182.237 249.632 178.484C245.01 182.694 241.097 187.68 238.106 193.17C240.634 194.154 242.853 195.917 244.381 198.159C245.146 199.282 245.78 200.561 246.906 201.321C248.032 202.082 249.879 202.005 250.442 200.768C248.929 200.334 247.864 198.955 247.248 197.506C246.826 196.513 246.561 195.407 246.79 194.352C247.02 193.297 247.84 192.321 248.909 192.167C250.332 191.964 251.567 193.209 252.166 194.515C252.765 195.821 253.008 197.299 253.829 198.478C254.659 199.67 255.974 200.409 257.138 201.278C258.899 202.595 260.378 204.287 261.448 206.209C262.193 207.546 262.886 209.128 264.327 209.642C265.647 210.113 267.309 209.545 268.391 210.435C270.001 211.759 268.815 215.066 270.678 216C271.497 216.411 272.471 216.077 273.352 215.824C277.463 214.648 282.106 215.518 285.511 218.102C286.412 218.786 287.269 219.602 288.36 219.902C290.119 220.387 291.963 219.405 293.783 219.538C295.883 219.692 297.556 221.26 299.197 222.581C301.02 224.05 303.016 225.304 305.13 226.311C305.502 226.488 305.905 226.662 306.31 226.594C306.809 226.511 307.174 226.089 307.464 225.674C308.258 224.539 308.828 223.248 309.133 221.896C305.188 221.838 300.694 221.523 298.241 218.433C297.045 216.928 295.162 215.992 293.24 215.949C291.881 215.918 289.975 215.923 289.801 214.576M233.417 185.515C234.273 187.68 235.129 189.845 235.985 192.01C236.09 192.274 236.291 192.593 236.567 192.526C236.73 192.486 236.827 192.323 236.906 192.176C239.231 187.839 242.144 183.816 245.538 180.253C245.777 180.002 245.448 179.621 245.153 179.439C244.279 178.899 243.403 178.358 242.477 177.913C240.666 177.044 238.674 176.555 236.666 176.487C235.264 176.44 233.672 176.699 232.873 177.852C232.505 178.383 232.361 179.036 232.291 179.678C232.189 180.629 232.236 181.596 232.431 182.533C232.645 183.559 233.032 184.54 233.417 185.515M312.077 239.528C313.619 238.987 314.403 237.158 314.243 235.531C314.083 233.905 313.195 232.45 312.27 231.103C311.254 229.624 310.165 228.195 309.008 226.824C305.993 230.759 302.692 234.476 299.14 237.934C298.913 238.155 299.005 238.564 299.244 238.771C299.482 238.979 299.812 239.038 300.124 239.086C303.529 239.614 306.981 239.836 310.425 239.75C310.983 239.736 311.55 239.713 312.077 239.528M254.474 232.333C256.452 232.854 257.752 234.688 259.409 235.888C262.502 238.129 266.926 238.194 269.622 240.9C270.453 241.733 271.066 242.774 271.97 243.526C272.949 244.341 274.193 244.754 275.42 245.096C277.903 245.789 280.827 246.175 282.836 244.558C282.95 244.467 283.062 244.366 283.127 244.236C283.455 243.574 282.458 243.078 281.725 242.991C275.896 242.299 269.964 240.339 265.897 236.107C264.831 234.998 262.991 235.586 261.471 235.352C259.903 235.111 258.663 233.958 257.334 233.093C255.482 231.888 253.304 231.189 251.097 231.092C251.775 232.125 253.28 232.019 254.474 232.333L254.474 232.333Z" fill="#00160A"/>
<path fill-rule="evenodd" clip-rule="evenodd" d="M169.681 206.485C169.024 205.737 168.908 204.676 168.61 203.726C167.609 200.528 164.368 198.447 161.072 197.843C157.776 197.24 154.393 197.843 151.097 198.446C145.844 199.406 140.591 200.367 135.338 201.328C130.442 202.223 125.022 203.446 122.228 207.564C119.571 211.481 120.214 216.676 120.962 221.35C122.765 232.607 124.569 243.865 126.372 255.123C126.601 256.556 127.176 258.332 128.622 258.46C139.603 259.434 149.005 269.542 149.183 280.565C156.262 280.275 163.295 278.891 169.956 276.478C171.786 275.815 173.653 275.031 174.962 273.59C177.353 270.958 177.234 266.975 176.975 263.429C176.498 256.913 176.021 250.398 175.544 243.882C171.286 242.979 166.981 241.658 163.608 238.907C157.537 233.953 155.793 224.468 159.633 217.637C163.472 210.806 172.407 207.36 179.866 209.763C187.325 212.165 192.556 220.106 191.907 227.915C191.258 235.724 184.852 242.662 177.134 244.019C177.58 249.164 178.026 254.31 178.472 259.455C178.79 263.125 179.104 266.859 178.338 270.462C177.13 276.141 173.38 280.902 169.618 285.324C158.327 298.594 144.785 311.498 127.665 314.734C121.388 315.921 114.931 315.73 108.567 315.168C105.245 314.874 101.893 314.472 98.7723 313.297C95.2248 311.962 92.1161 309.681 89.2027 307.256C66.4865 288.348 53.3077 258.515 54.6288 228.989C54.768 225.879 55.0576 222.753 54.6933 219.66C54.3619 216.847 53.4942 214.114 53.2236 211.294C52.6455 205.272 54.9889 199.035 59.3901 194.884C61.7362 192.671 62.6983 189.408 64.2665 186.59C65.7672 183.893 67.8834 181.541 70.4073 179.764C73.1742 177.817 76.376 176.582 79.6026 175.564C96.1671 170.336 114.38 170.478 130.861 175.963C147.342 181.448 162.008 192.248 172.137 206.359C171.832 207.307 170.337 207.234 169.681 206.485ZM134.801 271.544C133.885 269.939 133.005 268.264 132.733 266.436C132.461 264.608 132.898 262.577 134.275 261.344C133.803 260.611 132.797 260.273 131.978 260.573C131.158 260.873 130.608 261.78 130.721 262.645C130.931 264.25 129.598 265.888 127.984 266.009C129.237 264.339 129.919 262.249 129.891 260.161C129.889 260.012 129.878 259.847 129.773 259.74C129.552 259.513 129.174 259.737 128.966 259.976C127.729 261.404 127.417 263.454 127.706 265.321C127.994 267.189 128.813 268.927 129.622 270.634C132.482 270.23 135.423 272.622 135.611 275.505C135.773 278.002 137.873 280.071 140.261 280.818C142.65 281.566 145.25 281.211 147.654 280.516C143.791 279.285 139.729 277.928 137.054 274.882C136.166 273.872 135.468 272.712 134.801 271.544ZM61.9739 210.422C60.7744 205.394 60.6139 200.168 60.9119 195.007C56.8431 199.09 54.5093 204.848 54.5877 210.612C54.666 216.375 57.1555 222.068 61.3338 226.039C62.647 227.287 62.5567 229.355 62.5804 231.166C62.6381 235.562 63.9249 239.839 65.2007 244.046C67.6657 252.176 70.1648 260.387 74.3892 267.758C76.9937 272.302 80.8755 276.852 86.0968 277.271C91.736 277.723 96.7122 272.909 98.409 267.512C100.106 262.115 99.3088 256.29 98.4962 250.691C97.6068 244.564 96.7175 238.437 95.8281 232.31C95.7221 231.579 95.677 230.692 96.2729 230.256C99.9532 227.562 101.658 222.8 101.736 218.24C101.814 213.679 100.489 209.225 99.1531 204.864C98.3923 204.978 98.2447 205.991 98.2226 206.76C98.057 212.514 94.1016 217.772 88.9441 220.328C83.7866 222.885 77.6441 222.973 72.0927 221.451C69.9887 220.874 67.9 220.05 66.2557 218.616C63.8946 216.557 62.7009 213.47 61.9739 210.422ZM109.535 291.256C107.436 289.147 105.954 286.511 104.631 283.846C102.504 279.563 100.719 275.109 99.2979 270.543C97.6616 273.442 95.2173 275.879 92.3137 277.507C88.9873 279.372 84.6868 278.752 81.4224 276.78C78.158 274.808 75.7629 271.683 73.714 268.466C66.38 256.953 62.5432 243.449 61.2265 229.862C61.0921 228.474 60.936 226.973 59.991 225.948C59.046 224.923 57.0092 224.863 56.4929 226.158C56.3823 226.435 56.3543 226.738 56.3274 227.035C55.8631 232.169 55.3988 237.344 55.9478 242.47C56.212 244.937 56.7092 247.373 57.2274 249.799C59.1283 258.701 61.3546 267.631 65.4724 275.749C70.9206 286.489 79.4197 295.32 87.7926 303.975C90.9191 307.208 94.7228 310.702 99.1945 310.226C101.013 310.032 102.692 309.177 104.255 308.227C109.627 304.962 114.184 300.369 117.408 294.973C114.433 294.915 111.634 293.365 109.535 291.256ZM105.137 187.843C101.578 184.016 97.5668 180.488 92.8125 178.318C88.0582 176.147 82.4633 175.448 77.5726 177.291C75.8894 177.925 74.3234 178.842 72.8597 179.887C67.8931 183.435 63.991 188.692 62.8409 194.686C62.2331 197.854 62.3949 201.116 62.6703 204.33C62.9356 207.427 63.3197 210.572 64.5983 213.405C65.8768 216.238 68.19 218.754 71.1898 219.568C75.8967 220.844 80.9821 221.128 85.6124 219.596C90.2426 218.064 94.3439 214.546 95.8685 209.914C96.9824 206.529 96.6875 202.852 97.3195 199.345C97.6264 197.642 98.1537 195.979 98.884 194.411C99.5469 192.987 100.412 191.603 101.693 190.695C102.975 189.788 104.744 189.443 106.142 190.158C106.37 189.307 105.737 188.488 105.137 187.843ZM155.818 281.156C150.347 281.848 144.876 282.539 139.405 283.231C135.645 283.706 131.828 284.181 128.079 283.628C124.329 283.075 120.588 281.354 118.424 278.242C119.24 281.951 121.168 285.408 123.894 288.052C124.587 288.723 124.066 289.879 123.521 290.675C120.428 295.191 117.311 299.736 113.437 303.603C109.564 307.47 104.844 310.661 99.5114 311.894C100.598 312.592 101.795 313.12 103.043 313.453C104.819 313.927 106.673 314.002 108.509 314.076C116.562 314.397 124.804 314.694 132.492 312.276C139.276 310.142 145.227 306.017 151.059 301.947C155.849 298.605 160.864 294.992 163.196 289.637C165.479 284.393 172.275 281.945 173.848 276.446C168.407 279.53 162.022 280.372 155.818 281.156ZM103.363 213.887C104.027 218.188 103.614 222.802 101.344 226.516C100.047 228.639 98.1419 230.507 97.6743 232.951C97.4556 234.094 97.576 235.272 97.7239 236.426C98.9916 246.327 102.226 256.235 100.616 266.085C100.235 268.412 100.977 270.764 101.797 272.974C103.369 277.206 105.266 281.318 107.467 285.26C109.257 288.466 111.445 291.735 114.817 293.192C115.68 293.565 116.646 293.808 117.562 293.592C119.218 293.203 120.172 291.513 120.926 289.989C121.304 289.224 121.671 288.265 121.172 287.573C117.536 282.537 115.243 276.54 114.59 270.363C114.415 268.702 114.351 267.007 113.81 265.427C113.487 264.486 113.002 263.61 112.629 262.688C111.689 260.369 111.479 257.831 111.239 255.34C110.331 245.907 108.856 236.528 106.827 227.27C106.227 224.533 106.388 221.693 106.552 218.895C106.607 217.958 106.662 217.021 106.717 216.084C106.944 212.23 107.229 208.187 109.299 204.929C111.129 202.048 110.491 198.244 109.203 195.084C108.487 193.327 107.306 191.433 105.422 191.205C103.451 190.966 101.813 192.682 100.764 194.367C99.4397 196.497 98.4542 199.156 99.4008 201.478C101.043 205.509 102.699 209.585 103.363 213.887ZM106.509 187.303C109.328 190.646 111.603 194.612 112.124 198.954C112.238 199.911 112.84 201.247 113.703 200.82C118.294 198.549 123.388 197.537 128.414 196.548C130.563 196.125 132.712 195.702 134.862 195.279C141.947 193.885 149.128 192.484 156.334 192.954C152.721 188.628 148.02 185.328 143.076 182.621C130.346 175.651 115.623 172.369 101.137 173.273C99.7551 173.36 98.3731 173.483 97.01 173.727C94.0393 174.26 91.1443 175.364 88.1264 175.372C95.2471 177.429 101.731 181.637 106.509 187.303ZM112.148 231.005C113.9 232.187 117.105 230.16 118.052 232.049C115.632 232.607 113.164 232.956 110.684 233.089C110.176 233.116 110.055 233.808 110.092 234.315C110.377 238.189 111.097 242.031 112.232 245.745C114.246 244.993 116.588 246.05 117.923 247.735C119.258 249.42 119.784 251.595 120.141 253.714C120.448 255.538 120.656 257.379 120.763 259.225C120.933 262.127 120.435 265.697 117.739 266.783C116.756 267.179 116.913 268.605 117.248 269.611C118.034 271.974 118.842 274.367 120.231 276.435C123.918 281.922 131.806 284.096 137.783 281.271C133.659 279.503 130.223 276.18 128.317 272.118C127.002 269.314 126.411 266.234 125.848 263.189C123.393 249.914 121.223 236.586 119.342 223.217C118.887 219.98 118.447 216.704 118.785 213.453C119.122 210.202 120.316 206.931 122.689 204.683C125.657 201.872 129.94 201.062 133.969 200.373C142.986 198.832 152.003 197.292 161.019 195.751C156.78 193.092 151.339 193.774 146.395 194.549C136.938 196.032 127.452 197.521 118.245 200.142C116.599 200.61 114.936 201.127 113.514 202.079C109.208 204.96 108.28 210.882 108.499 216.059C108.511 216.331 108.54 216.638 108.752 216.81C108.928 216.953 109.175 216.957 109.403 216.954C111.286 216.929 113.17 216.904 115.054 216.878C116.902 216.854 117.962 218.962 118.368 220.766C118.944 223.322 119.119 225.968 118.886 228.579C118.836 229.136 118.732 229.757 118.282 230.089C117.832 230.422 116.985 230.107 117.094 229.558C117.415 227.937 117.552 226.279 117.503 224.627C117.446 222.718 117.087 220.702 115.818 219.274C114.549 217.846 112.138 217.31 110.708 218.576C113.212 222.131 113.773 226.971 112.148 231.005ZM179.843 238.726C180.442 236.307 182.639 234.369 185.113 234.077C186.6 233.901 187.823 232.719 188.426 231.348C189.028 229.978 189.11 228.439 189.095 226.942C189.045 222.161 187.887 217.032 184.29 213.884C180.389 210.47 174.627 210.235 169.515 211.09C167.287 211.462 164.926 212.103 163.484 213.841C162.596 214.911 162.164 216.275 161.751 217.602C160.908 220.316 160.059 223.056 159.823 225.888C159.588 228.72 160.013 231.691 161.553 234.079C162.625 235.742 164.47 237.143 166.429 236.866C167.965 236.648 169.059 238.233 170.317 239.14C172.034 240.379 174.316 240.394 176.433 240.36C177.794 240.338 179.515 240.047 179.843 238.726ZM118.813 258.518C118.666 257.346 118.52 256.173 118.373 255.001C118.063 252.518 117.696 249.896 116.138 247.939C115.515 247.157 114.485 246.473 113.568 246.869C112.637 247.271 112.443 248.488 112.419 249.502C112.323 253.513 112.798 257.537 113.826 261.416C114.171 262.719 114.595 264.038 115.424 265.102C115.63 265.366 115.872 265.621 116.188 265.731C116.861 265.968 117.576 265.468 117.998 264.893C119.3 263.122 119.085 260.699 118.813 258.518ZM146.266 275.42C143.13 274.45 140.451 272.093 139.092 269.105C138.583 267.986 138.25 266.764 138.316 265.536C138.355 264.811 138.531 264.071 138.343 263.37C138.154 262.668 137.398 262.041 136.731 262.328C136.375 264.275 136.032 266.352 136.794 268.178C137.057 268.807 137.441 269.377 137.824 269.942C139.023 271.712 140.239 273.492 141.77 274.984C143.301 276.477 145.187 277.681 147.291 278.06C147.362 277.039 147.244 275.722 146.266 275.42ZM135.425 261.526C134.63 262.009 134.324 263.006 134.201 263.928C133.783 267.048 134.751 270.281 136.601 272.828C138.451 275.375 141.135 277.256 144.07 278.396C144.789 278.675 145.576 278.915 146.323 278.72C144.316 278.08 142.464 276.962 140.963 275.483C140.393 274.922 139.875 274.312 139.361 273.7C138.001 272.083 136.642 270.417 135.838 268.464C134.94 266.282 134.792 263.799 135.425 261.526ZM110.916 228.654C111.358 225.616 110.778 222.439 109.293 219.753C108.113 220.515 108.04 222.183 108.096 223.587C108.177 225.595 108.299 227.732 109.469 229.367C109.592 229.54 109.74 229.714 109.945 229.771C110.486 229.92 110.836 229.209 110.916 228.654ZM140.289 269.389C141.51 271.625 143.529 273.415 145.897 274.358C146.041 274.416 146.216 274.467 146.342 274.377C146.441 274.306 146.471 274.174 146.479 274.053C146.529 273.252 145.92 272.547 145.23 272.137C144.541 271.727 143.749 271.516 143.052 271.118C141.365 270.153 140.426 268.034 140.845 266.136C141.028 265.307 140.53 264.382 139.738 264.078C138.95 265.749 139.404 267.766 140.289 269.389ZM133.165 272.684C132.347 272.129 131.319 271.975 130.46 271.487C130.132 271.301 129.713 271.715 129.785 272.086C129.857 272.456 130.232 272.695 130.601 272.775C130.97 272.856 131.354 272.824 131.726 272.888C133.057 273.116 133.925 274.764 133.36 275.991C133.143 276.461 133.6 277.087 134.114 277.023C134.959 275.626 134.516 273.601 133.165 272.684ZM144.064 268.915C143.419 268.007 142.768 267.092 141.957 266.329C141.35 268.373 142.958 270.769 145.08 270.983C145.308 270.815 145.16 270.457 144.996 270.227C144.685 269.789 144.375 269.352 144.064 268.915ZM131.807 274.692C131.955 275.035 132.609 274.978 132.601 274.604C132.242 274.013 131.629 273.583 130.951 273.445C130.953 273.969 131.283 274.477 131.761 274.692M127.695 260.029C127.719 259.769 127.453 259.523 127.195 259.569C127.011 259.92 127.029 260.369 127.243 260.704C127.581 260.767 127.891 260.331 127.72 260.032M117.033 274.602C116.965 274.985 117.113 275.399 117.407 275.653C117.673 275.306 117.445 274.71 117.015 274.63" fill="#00160A"/>
<path fill-rule="evenodd" clip-rule="evenodd" d="M363.962 270.82C363.814 270.12 362.649 270.227 362.319 270.862C361.99 271.497 362.206 272.262 362.382 272.955C364.165 279.997 360.338 288.042 353.749 291.102C352.415 289.923 352.168 287.797 350.723 286.758C350.057 286.278 349.226 286.102 348.422 285.938C346.033 285.449 343.643 284.96 341.254 284.471C340.382 284.292 339.315 284.178 338.754 284.869C337.532 286.376 334.936 286.605 333.643 285.159C332.35 283.713 333.105 280.934 335.006 280.55C335.455 280.46 335.942 280.485 336.34 280.258C336.696 280.054 336.917 279.681 337.122 279.324C338.508 276.908 339.895 274.492 341.282 272.076C341.543 271.621 341.809 271.152 341.888 270.633C342.048 269.575 341.405 268.569 340.706 267.759C340.008 266.949 339.196 266.168 338.903 265.139C338.609 264.111 339.127 262.755 340.189 262.629C345.762 261.966 351.889 262.003 356.373 265.376C357.141 265.954 357.887 266.641 358.828 266.834C359.769 267.027 360.951 266.438 360.942 265.477C360.931 264.126 358.729 263.169 359.362 261.974C359.498 261.717 359.747 261.541 359.986 261.375C362.44 259.679 364.894 257.982 367.349 256.285C367.772 255.151 366.181 254.211 365.001 254.481C363.822 254.752 362.852 255.634 361.67 255.892C359.279 256.414 357.19 254.301 355.715 252.349C350.434 245.363 346.003 237.735 342.55 229.686C342.392 229.317 342.232 228.913 342.331 228.524C342.457 228.023 342.955 227.724 343.41 227.479C347.368 225.348 351.327 223.217 355.286 221.086C356.242 220.571 357.667 220.169 358.215 221.107C363.281 229.793 368.347 238.478 373.413 247.163C373.655 247.578 373.903 248.015 373.917 248.494C373.944 249.479 372.999 250.199 372.1 250.603C371.201 251.006 370.172 251.331 369.646 252.164C369.12 252.998 369.689 254.463 370.652 254.254C375.832 251.762 381.237 249.216 386.986 249.219C388.074 249.219 389.235 249.34 390.083 250.022C391.97 251.537 391.133 254.563 389.943 256.67C387.771 260.516 384.943 263.99 381.619 266.897C380.956 267.477 380.21 268.181 380.292 269.057C380.408 270.296 382.022 270.73 383.258 270.587C384.493 270.444 385.883 270.08 386.878 270.827C387.318 271.157 387.594 271.655 387.858 272.138C392.308 280.297 396.759 288.455 401.209 296.614C396.716 299.022 392.168 301.327 387.569 303.527C387.115 303.744 386.612 303.966 386.125 303.838C385.548 303.686 385.209 303.106 384.931 302.578C380.703 294.526 376.475 286.474 372.247 278.422C371.706 277.392 372.605 276.153 373.632 275.606C374.659 275.059 375.88 274.837 376.737 274.049C377.593 273.261 377.708 271.531 376.605 271.159C375.978 270.948 375.307 271.291 374.761 271.665C373.237 272.71 371.88 274.115 370.093 274.59C367.5 275.278 364.518 273.445 363.962 270.82M355.094 288.986C359.115 285.721 362.159 280.72 361.56 275.574C361.059 271.267 358.008 267.499 354.153 265.513C350.298 263.528 345.75 263.178 341.469 263.871C341.084 263.933 340.623 264.074 340.54 264.455C340.49 264.69 340.612 264.924 340.73 265.133C345.17 273.014 349.611 280.895 354.051 288.776C354.16 288.97 354.297 289.185 354.516 289.224C354.728 289.263 354.926 289.121 355.094 288.986M387.976 255.608C385.869 255.036 384.566 252.459 385.354 250.424C376.484 252.66 368.121 256.889 361.063 262.708C362.8 266.162 364.852 269.458 367.185 272.542C367.426 272.86 367.696 273.194 368.08 273.302C368.497 273.418 368.933 273.237 369.325 273.054C376.853 269.544 383.392 263.94 388.015 257.039C388.328 256.572 388.518 255.755 387.976 255.608M358.986 244.108C359.512 243.811 360.099 243.426 360.164 242.825C360.213 242.382 359.953 241.97 359.704 241.6C358.594 239.949 357.484 238.299 356.374 236.649C356.059 236.18 355.432 236.002 354.871 236.068C354.309 236.135 353.794 236.402 353.293 236.665C352.906 236.868 352.46 237.331 352.754 237.656C354.338 239.409 355.691 241.369 356.769 243.472C356.966 243.855 357.188 244.276 357.591 244.427C358.053 244.601 358.556 244.351 358.986 244.108M362.421 253.364C362.944 253.571 363.522 253.294 364.016 253.024C364.437 252.794 364.907 252.497 364.971 252.021C365.015 251.699 364.855 251.388 364.699 251.102C363.632 249.144 362.565 247.185 361.497 245.227C361.423 245.091 361.339 244.946 361.196 244.888C361.052 244.831 360.89 244.877 360.744 244.928C360.14 245.138 359.557 245.41 359.008 245.739C358.785 245.872 358.554 246.031 358.462 246.275C358.355 246.558 358.466 246.873 358.58 247.153C359.38 249.107 360.418 250.963 361.665 252.666C361.87 252.947 362.098 253.236 362.421 253.364M337.995 280.399C337.948 280.475 337.901 280.554 337.887 280.643C337.847 280.894 338.105 281.113 338.359 281.132C338.613 281.15 338.855 281.029 339.081 280.911C341.09 279.863 343.099 278.816 345.108 277.768C345.422 277.605 345.771 277.394 345.831 277.046C345.878 276.773 345.728 276.51 345.584 276.274C344.961 275.256 344.339 274.238 343.717 273.22C343.62 273.061 343.514 272.894 343.348 272.809C342.894 272.576 342.424 273.08 342.16 273.516C340.771 275.81 339.383 278.105 337.995 280.399M347.321 279.747C347.237 279.604 347.147 279.454 347.004 279.367C346.8 279.242 346.54 279.275 346.304 279.319C343.772 279.782 341.371 280.938 339.429 282.626C339.757 282.891 340.193 282.965 340.609 283.03C343.438 283.472 346.267 283.915 349.096 284.357C349.407 284.406 349.861 284.331 349.835 284.018C348.997 282.595 348.159 281.171 347.321 279.747M348.909 226.726C348.684 226.883 348.441 227.067 348.39 227.337C348.355 227.519 348.416 227.704 348.477 227.879C349.151 229.83 349.826 231.781 350.5 233.733C350.646 234.154 350.799 234.588 351.1 234.916C351.402 235.245 351.894 235.442 352.304 235.268C352.875 235.026 353.446 234.784 354.016 234.542C354.438 234.363 354.936 233.881 354.616 233.553C352.768 231.656 351.407 229.288 350.699 226.736C350.605 226.397 350.199 226.224 349.85 226.271C349.501 226.317 349.198 226.525 348.909 226.726M355.072 246.311C355.571 245.965 355.716 245.264 355.577 244.673C355.439 244.083 355.074 243.574 354.718 243.083C353.743 241.742 352.769 240.4 351.794 239.059C351.523 238.685 351.241 238.301 350.846 238.06C350.452 237.819 349.913 237.753 349.54 238.026C348.847 238.534 349.219 239.621 349.65 240.364C350.485 241.805 351.32 243.245 352.156 244.686C352.472 245.231 352.802 245.791 353.309 246.163C353.817 246.535 354.555 246.67 355.072 246.311M359.85 231.72C360.671 231.85 361.367 230.97 361.372 230.139C361.376 229.308 360.913 228.555 360.466 227.855C359.546 226.415 358.626 224.976 357.706 223.536C357.406 223.066 356.991 222.536 356.435 222.585C355.946 222.629 355.609 223.145 355.589 223.636C355.57 224.127 355.784 224.594 355.994 225.038C356.813 226.777 357.633 228.517 358.453 230.256C358.753 230.892 359.155 231.609 359.85 231.72M374.072 277.969C374.007 278.152 374.086 278.352 374.164 278.53C374.955 280.347 375.747 282.164 376.539 283.98C376.775 284.522 377.354 284.896 377.946 284.887C378.537 284.879 379.105 284.489 379.326 283.94C379.644 283.149 379.254 282.266 378.872 281.504C378.185 280.134 377.498 278.764 376.811 277.394C376.597 276.968 376.034 276.818 375.569 276.928C375.105 277.039 374.717 277.347 374.347 277.647C374.235 277.737 374.119 277.834 374.072 277.969M382.4 283.053C382.75 282.894 383.122 282.717 383.322 282.389C383.659 281.833 383.368 281.121 383.073 280.541C382.379 279.175 381.675 277.814 380.962 276.457C380.67 275.902 380.33 275.305 379.746 275.077C379.23 274.877 378.595 275.044 378.245 275.472C377.895 275.9 377.858 276.556 378.157 277.021C379.305 278.807 380.173 280.771 380.722 282.822C380.889 283.447 381.81 283.32 382.4 283.053M344.174 229.53C344.192 230.036 344.454 230.496 344.708 230.933C345.737 232.697 346.765 234.461 347.793 236.224C347.873 236.361 347.954 236.501 348.069 236.611C348.344 236.875 348.804 236.921 349.127 236.716C349.449 236.511 349.602 236.074 349.478 235.713C348.71 233.467 347.941 231.222 347.173 228.976C346.936 228.284 346.154 227.827 345.434 227.96C344.715 228.093 344.148 228.799 344.174 229.53M386.957 293.673C386.729 293.85 386.485 294.055 386.442 294.34C386.405 294.583 386.526 294.819 386.643 295.035C387.464 296.552 388.29 298.066 389.122 299.576C389.26 299.827 389.407 300.086 389.642 300.249C390.214 300.643 390.987 300.3 391.59 299.954C391.855 299.801 392.152 299.602 392.176 299.296C392.191 299.116 392.103 298.946 392.017 298.787C391.064 297.01 390.111 295.233 389.158 293.456C388.958 293.084 388.462 292.955 388.05 293.051C387.638 293.146 387.29 293.413 386.957 293.673M352.569 226.699C352.983 228.996 354.086 231.266 356.01 232.588C356.483 232.913 357.212 233.139 357.563 232.684C357.917 232.225 357.512 231.588 357.164 231.125C355.78 229.282 355.165 226.991 354.58 224.762C354.397 224.064 353.288 224.054 352.84 224.62C352.393 225.186 352.441 225.989 352.569 226.699M385.035 286.108C384.777 285.586 384.505 285.044 384.045 284.687C383.584 284.33 382.878 284.219 382.432 284.594C381.724 285.191 382.182 286.329 382.652 287.128C383.562 288.672 384.353 290.286 385.015 291.951C385.272 292.596 386.237 292.363 386.842 292.02C387.157 291.841 387.516 291.587 387.496 291.225C387.489 291.093 387.43 290.971 387.371 290.852C386.593 289.271 385.814 287.69 385.035 286.108M384.522 272.671C384.389 273.179 384.6 273.706 384.806 274.189C385.669 276.201 386.537 278.225 387.73 280.06C388.619 280.158 389.314 279.172 389.286 278.278C389.259 277.383 388.752 276.586 388.308 275.809C387.715 274.77 387.208 273.682 386.794 272.56C386.619 272.088 386.119 271.757 385.617 271.782C385.114 271.806 384.649 272.184 384.522 272.671M382.23 293.805C382.568 294.138 383.146 294.19 383.539 293.924C383.964 293.635 384.117 293.059 384.044 292.55C383.97 292.04 383.712 291.579 383.458 291.131C382.724 289.836 381.99 288.541 381.256 287.246C380.983 286.763 380.689 286.259 380.214 285.971C379.739 285.683 379.026 285.706 378.72 286.17C378.397 286.658 378.671 287.306 378.948 287.823C379.927 289.645 380.905 291.468 381.883 293.29C381.981 293.473 382.082 293.659 382.23 293.805M394.599 287.855C394.578 287.581 394.431 287.334 394.288 287.098C393.235 285.359 392.182 283.621 391.128 281.882C391.043 281.742 390.951 281.594 390.804 281.522C390.659 281.449 390.488 281.464 390.326 281.479C389.936 281.517 389.524 281.563 389.207 281.794C388.889 282.025 388.719 282.507 388.956 282.82C389.853 284.003 390.615 285.289 391.222 286.643C391.575 287.432 391.926 288.303 392.677 288.73C393.428 289.156 394.666 288.717 394.599 287.855M363.543 243.521C363.109 243.93 363.222 244.641 363.417 245.205C364.003 246.892 365.015 248.394 366.015 249.873C366.272 250.253 366.542 250.646 366.939 250.877C367.335 251.108 367.896 251.126 368.21 250.792C368.642 250.332 368.372 249.589 368.082 249.028C367.351 247.616 366.62 246.203 365.888 244.791C365.65 244.33 365.397 243.852 364.977 243.546C364.558 243.239 363.921 243.165 363.543 243.521M396.228 295.987C396.556 296.576 397.088 297.26 397.74 297.087C398.307 296.936 398.661 296.163 399.239 296.262C398.456 294.777 397.672 293.291 396.888 291.806C396.572 291.208 396.23 290.58 395.651 290.23C395.072 289.88 394.185 289.946 393.865 290.543C393.571 291.093 393.878 291.761 394.182 292.306C394.864 293.533 395.546 294.76 396.228 295.987M366.922 240.023C366.184 238.247 365.301 236.532 364.285 234.9C364.018 234.471 363.741 234.047 363.465 233.624C363.239 233.278 362.995 232.915 362.621 232.736C362.173 232.522 361.588 232.646 361.266 233.024C360.944 233.402 360.914 233.999 361.196 234.407C362.299 236.003 363.402 237.598 364.505 239.193C364.794 239.612 365.102 240.048 365.556 240.279C366.009 240.51 366.653 240.455 366.922 240.023M371.835 248.704C371.976 248.628 372.13 248.536 372.174 248.382C372.221 248.219 372.127 248.053 372.036 247.909C370.861 246.047 369.686 244.185 368.511 242.322C368.278 241.953 367.966 241.539 367.529 241.55C367.106 241.561 366.798 242.005 366.781 242.428C366.763 242.851 366.956 243.251 367.144 243.63C367.604 244.557 368.063 245.484 368.523 246.41C369.062 247.498 369.63 248.621 370.574 249.384C370.994 249.158 371.415 248.931 371.835 248.704M387.87 283.981C387.584 283.528 387.19 283.018 386.656 283.061C386.176 283.1 385.847 283.613 385.838 284.095C385.829 284.576 386.053 285.028 386.271 285.457C386.9 286.692 387.529 287.926 388.157 289.161C388.484 289.804 388.974 290.545 389.694 290.496C390.331 290.453 390.754 289.746 390.724 289.109C390.695 288.471 390.343 287.899 390.002 287.359C389.292 286.233 388.581 285.107 387.87 283.981M383.531 295.606C383.024 296.16 383.333 297.043 383.681 297.708C384.225 298.748 384.811 299.766 385.436 300.759C385.684 301.152 385.961 301.562 386.385 301.751C386.845 301.957 387.431 301.836 387.773 301.466C388.116 301.095 388.189 300.502 387.947 300.059C387.382 299.023 386.817 297.986 386.251 296.95C385.966 296.427 385.663 295.884 385.169 295.549C384.676 295.215 383.933 295.167 383.531 295.606M357.812 234.564C357.391 234.994 357.717 235.708 358.055 236.206C359.236 237.947 360.416 239.688 361.597 241.429C361.847 241.797 362.157 242.202 362.601 242.234C363.16 242.274 363.58 241.648 363.544 241.089C363.508 240.53 363.163 240.044 362.831 239.593C361.777 238.16 360.723 236.727 359.669 235.294C359.443 234.987 359.207 234.67 358.873 234.487C358.539 234.303 358.078 234.291 357.812 234.564M382.475 273.334C381.996 273.256 381.576 273.742 381.535 274.225C381.495 274.709 381.718 275.171 381.936 275.604C382.72 277.163 383.503 278.722 384.287 280.281C384.44 280.585 384.601 280.9 384.871 281.107C385.141 281.314 385.553 281.379 385.813 281.16C386.189 280.846 386.019 280.245 385.818 279.799C384.988 277.95 384.157 276.101 383.327 274.252C383.148 273.854 382.905 273.404 382.475 273.334M395.224 297.408C394.21 295.626 393.195 293.844 392.18 292.062C392.058 291.848 391.923 291.62 391.699 291.517C391.261 291.314 390.74 291.732 390.653 292.206C390.565 292.68 390.773 293.154 390.983 293.588C391.633 294.926 392.362 296.226 393.165 297.478C393.451 297.923 393.785 298.392 394.29 298.547C394.795 298.702 395.471 298.326 395.39 297.803C395.368 297.661 395.296 297.533 395.224 297.408M358.792 253.819C359.055 254.229 359.37 254.675 359.848 254.767C360.327 254.858 360.872 254.283 360.568 253.902C359.335 252.355 358.298 250.651 357.491 248.844C357.274 248.359 357.048 247.836 356.596 247.557C356.144 247.278 355.401 247.426 355.297 247.947C355.235 248.255 355.413 248.556 355.583 248.821C356.653 250.487 357.723 252.153 358.792 253.819M386.716 251.682C386.667 252.825 387.579 253.93 388.711 254.099C388.896 254.126 389.099 254.128 389.256 254.024C389.409 253.921 389.485 253.74 389.553 253.569C389.869 252.77 390.079 251.65 389.328 251.233C389.018 251.061 388.634 251.084 388.313 250.936C388.088 250.832 387.897 250.647 387.653 250.604C387.121 250.512 386.739 251.143 386.716 251.682M337.4 282.624C337.134 282.214 336.667 281.969 336.188 281.868C335.928 281.813 335.649 281.798 335.401 281.895C335.177 281.984 334.995 282.159 334.862 282.361C334.261 283.272 334.906 284.736 335.992 284.844C337.078 284.953 337.994 283.54 337.4 282.624M361.223 269.469C361.687 269.526 362.166 269.195 362.279 268.742C362.333 268.525 362.308 268.29 362.212 268.089C361.922 267.487 360.943 267.403 360.554 267.945C360.165 268.488 360.56 269.388 361.223 269.469M368.503 255.16C368.662 255.302 368.835 255.451 369.047 255.481C369.258 255.512 369.509 255.363 369.5 255.15C368.816 254.254 368.131 253.358 367.447 252.462C367.151 252.901 367.21 253.506 367.457 253.975C367.703 254.444 368.107 254.808 368.503 255.16M379.026 271.584C379.296 271.915 379.889 271.533 379.875 271.106C379.862 270.679 379.511 270.349 379.185 270.072C378.86 269.795 378.508 269.468 378.49 269.041C377.827 269.725 378.425 270.845 379.026 271.584L379.026 271.584Z" fill="#00160A"/>
</svg>
