<svg width="250" height="250" viewBox="0 0 250 250" fill="none" xmlns="http://www.w3.org/2000/svg">
<path fill-rule="evenodd" clip-rule="evenodd" d="M173.557 154.289C169.921 155.71 165.715 157.844 165.325 161.728C170.264 157.929 176.365 155.661 182.586 155.313C178.288 160.728 172.861 165.243 166.754 168.484C161.269 171.394 154.325 174.498 153.855 180.689C159.745 173.675 168.801 169.429 177.961 169.386C172.101 177.969 162.705 184.056 152.477 185.897C152.828 188.534 164.168 194.183 167.471 195.27C169.823 205.375 170.842 218.481 173.195 228.586C173.773 231.073 174.283 233.931 172.76 235.98C171.25 238.013 168.397 238.363 165.87 238.543C155.912 239.251 142.288 239.959 132.33 240.666C131.138 235.265 129.945 229.864 128.753 224.462C111.956 226.022 39.9472 242.523 26.7325 233.866C-24.2805 200.449 40.77 189.065 42.168 148.378C42.4885 139.049 14.4397 122.742 14.885 113.209C15.1758 106.985 16.1394 100.904 19.2191 95.5595C22.2988 90.2146 27.1789 86.0974 32.483 82.948C25.1806 81.071 19.6493 73.7917 19.7973 66.2534C19.9453 58.7151 25.758 51.6585 33.1284 50.0695C29.6534 45.9285 24.1816 44.0304 20.1847 40.3904C15.5287 36.1501 13.189 29.31 14.885 23.2452C16.581 17.1804 22.5525 12.4086 28.8442 12.6775C34.0124 12.8984 38.5605 16.1671 42.168 19.8745C47.7628 25.6241 51.9237 32.7586 54.1734 40.4592C55.6728 45.592 61.1681 48.2032 65.809 50.8594C70.4499 53.5156 75.2693 58.1426 73.9618 63.3275C72.2332 56.2325 97.9259 64.6835 121.227 66.7523C124.321 67.027 127.651 67.4269 129.938 69.5284C133.224 72.5485 138.158 73.65 142.417 72.3143C143.772 75.6734 144.769 79.4464 143.617 82.8803C142.465 86.3143 138.385 88.9353 135.124 87.3601C135.975 91.7399 136.827 96.1197 137.678 100.499C146.017 100.6 154.354 100.77 162.69 101.01C167.108 101.138 171.726 101.339 175.566 103.527C179.406 105.716 184.545 102.615 188.339 94.6484C185.884 107.648 188.793 112.843 193.81 114.255C193.821 114.157 194.211 114.204 194.222 114.105C195.716 101.259 204.433 89.8523 216.565 85.34C215.492 87.8122 207.816 92.6952 202.486 98.9306C197.279 105.022 194.787 113.176 194.529 114.64C202.796 112.473 205.552 118.632 219.579 113.209C213.169 120.915 200.818 122.812 192.392 117.386C188.416 121.819 188.639 126.729 185.822 131.976C190.606 126.03 196.959 131.301 191.919 135.155C194.594 135.412 197.486 135.764 199.426 137.623C201.366 139.482 201.415 143.395 198.912 144.374C190.46 147.679 182.009 150.984 173.557 154.289Z" fill="#184A88"/>
<path fill-rule="evenodd" clip-rule="evenodd" d="M159.838 124.99C160.144 124.408 160.476 123.798 161.039 123.459C161.602 123.12 162.466 123.19 162.769 123.773C163.092 124.394 162.612 125.142 162.048 125.556C161.484 125.97 160.791 126.262 160.425 126.858C162.404 128.162 164.383 129.466 166.362 130.77C167.912 131.792 169.666 133.251 169.349 135.08C169.163 136.152 168.254 136.986 167.242 137.386C166.23 137.786 165.117 137.827 164.029 137.859C156.717 138.069 149.398 138.032 142.089 137.748C141.582 137.728 141.016 137.681 140.678 137.302C140.416 137.008 140.362 136.59 140.32 136.199C139.899 132.309 139.479 128.418 139.058 124.528C139.043 124.384 139.028 124.234 139.079 124.099C139.296 123.531 140.145 123.881 140.62 124.26C143.985 126.946 149.364 126.63 152.392 123.57C153.124 122.83 154.369 122.926 155.309 123.372C156.249 123.817 157.035 124.543 157.978 124.982C157.877 124.437 158.358 123.862 158.912 123.864C159.467 123.866 159.943 124.445 159.838 124.99" fill="white"/>
<path fill-rule="evenodd" clip-rule="evenodd" d="M42.0926 82.0516C42.0926 82.0516 41.2759 72.2683 43.3317 69.1234C45.3876 65.9784 53.2187 65.0316 53.2187 65.0316C53.2187 65.0316 74.6824 64.7511 86.2792 65.1944C97.876 65.6376 121.069 67.6252 121.069 67.6252C121.069 67.6252 124.083 68.2825 125.437 69.1234C126.792 69.9642 128.682 72.3501 128.682 72.3501C128.682 72.3501 132.794 72.9496 134.839 73.0311C136.885 73.1126 138.759 72.7517 138.759 72.7517C138.759 72.7517 141.366 80.3545 139.523 83.9783C137.68 87.602 131.492 87.0401 131.492 87.0401L133.683 100.602C133.683 100.602 131.078 101.833 129.655 103.376C128.232 104.919 127.66 107.132 127.66 107.132L131.89 148.378C131.89 148.378 133.135 150.522 135.808 151.337C138.481 152.151 144.503 152.22 144.503 152.22C144.503 152.22 144.288 156.379 144.503 158.169C144.718 159.959 144.909 160.939 144.909 160.939L149.443 193.399C149.443 193.399 145.036 194.2 140.676 195.258C136.315 196.316 127.66 198.683 127.66 198.683C127.66 198.683 124.609 200.075 124.214 202.32C123.819 204.566 125.437 211.315 125.437 211.315L76.8515 215.019C76.8515 215.019 72.1235 215.108 70.4973 214.083C68.871 213.058 68.4253 209.709 68.4253 209.709L61.8536 150.603C61.8536 150.603 51.3521 150.859 48.285 149.108C45.2179 147.357 44.8469 140.892 44.8469 140.892C44.8469 140.892 45.3565 137.228 44.8469 134.685C44.6769 133.837 42.4558 124.639 41.7097 115.887C41.2875 110.935 47.1148 107.132 47.1148 107.132L42.0926 82.0516Z" fill="white"/>
<path fill-rule="evenodd" clip-rule="evenodd" d="M76.3754 68.4446C75.9975 68.9771 76.3138 69.7717 76.8597 70.1299C77.4057 70.4882 78.0936 70.5286 78.746 70.5579C85.8339 70.8769 92.9217 71.1959 100.01 71.5148C100.7 71.5459 101.465 71.5528 101.988 71.101C102.512 70.6492 102.443 69.5716 101.76 69.4631C93.8782 68.2099 85.8802 67.6895 77.9027 67.9107C77.3426 67.9262 76.6997 67.9876 76.3754 68.4446" fill="#E7EAEE"/>
<path fill-rule="evenodd" clip-rule="evenodd" d="M107.91 119.247L106.068 110.603C106.068 110.603 105.982 112.385 105.007 113.11C104.032 113.835 102.104 113.55 102.104 113.55C102.104 113.55 101.799 107.514 103.156 105.677C104.513 103.839 105.85 105.574 108.428 104.986C111.004 104.399 110.47 102.464 113.463 103.326C116.456 104.187 118.667 110.593 118.667 110.593C118.667 110.593 116.321 111.379 115.322 111.177C114.324 110.976 114.567 109.765 114.567 109.765C114.567 109.765 113.859 109.463 114.04 111.587C114.127 112.619 114.908 114.17 115.322 116.2C115.476 116.955 115.322 118.654 115.322 118.654C115.322 118.654 112.659 118.925 110.358 119.418C108.056 119.911 107.91 119.247 107.91 119.247Z" fill="#E7EAEE"/>
<path fill-rule="evenodd" clip-rule="evenodd" d="M42.5184 97.7462C41.6319 97.2689 40.911 96.5409 40.2045 95.8237C38.3819 93.9736 36.5365 92.0936 35.2719 89.8253C35.1515 89.6093 35.0331 89.3614 35.1025 89.1241C35.172 88.8867 35.5343 88.7519 35.6698 88.9588C37.8679 92.3146 40.6438 95.2908 43.8385 97.7171C43.5512 98.1034 42.9422 97.9744 42.5184 97.7462V97.7462Z" fill="#00160A"/>
<path fill-rule="evenodd" clip-rule="evenodd" d="M45.1737 55.2737C45.6974 54.7342 45.9766 54.0083 46.2178 53.2962C46.9697 51.0754 47.4821 48.7737 47.7433 46.4437C47.7903 46.024 47.8673 45.5408 48.2315 45.3269C48.641 47.3247 48.1338 49.3836 47.6294 51.3596C47.186 53.0968 46.6951 54.9209 45.4375 56.1988C45.3103 56.3281 45.1478 56.4599 44.9689 56.43C44.7277 56.3896 44.6311 56.0691 44.7172 55.8402C44.8033 55.6113 45.0034 55.4492 45.1737 55.2737L45.1737 55.2737Z" fill="#00160A"/>
<path fill-rule="evenodd" clip-rule="evenodd" d="M171.574 72.6991C171.823 72.6325 172.077 72.829 172.186 73.0629C172.294 73.2969 172.302 73.5629 172.351 73.8162C172.54 74.8065 173.433 75.619 174.436 75.7144C174.561 76.0053 174.284 76.2964 174.066 76.5252C173.568 77.0462 173.253 77.7393 173.189 78.4572C173.148 78.9229 173.05 79.5712 172.582 79.5651C172.207 79.5601 172.042 79.1056 171.906 78.755C171.576 77.8986 170.83 77.2137 169.948 76.9571C169.763 76.9032 169.686 76.6667 169.736 76.4808C169.787 76.2949 169.928 76.1496 170.063 76.0116C170.642 75.4175 171.23 74.7141 171.223 73.8845C171.22 73.4358 171.141 72.8149 171.574 72.6991Z" fill="#184A88"/>
<path fill-rule="evenodd" clip-rule="evenodd" d="M189.127 150.634C188.349 151.433 188.074 152.683 188.444 153.735C188.034 153.918 187.728 153.353 187.525 152.953C187.221 152.352 186.645 151.895 185.991 151.734C186.939 151.136 187.528 150.011 187.481 148.892C187.862 148.644 188.288 149.161 188.398 149.602C188.507 150.044 188.672 150.618 189.127 150.634Z" fill="#E7EAEE"/>
<path fill-rule="evenodd" clip-rule="evenodd" d="M182.491 152.132C182.941 152.848 183.583 153.442 184.33 153.837C184.599 153.979 184.355 154.375 184.134 154.582C183.575 155.105 183.221 155.841 183.162 156.604C182.673 156.114 182.184 155.624 181.696 155.134C181.5 154.939 181.295 154.635 181.463 154.416C181.975 153.748 182.33 152.959 182.491 152.132Z" fill="#E7EAEE"/>
<path fill-rule="evenodd" clip-rule="evenodd" d="M149.841 65.9806C150.286 63.1479 151.361 60.364 153.25 58.2067C155.139 56.0494 157.897 54.5767 160.764 54.579C163.632 54.5814 166.528 56.2053 167.719 58.8134C168.336 60.1629 168.487 61.6821 168.445 63.1651C168.365 65.9857 167.608 68.7848 166.254 71.2606C165.033 73.493 163.278 75.5011 161 76.6337C158.721 77.7662 155.881 77.9184 153.666 76.6663C151.912 75.6749 150.685 73.8955 150.101 71.9676C149.516 70.0396 149.529 67.9709 149.841 65.9806M167.367 63.837C167.419 62.0807 167.129 60.267 166.205 58.7722C165.644 57.8635 164.857 57.0949 163.936 56.5544C160.964 54.8117 156.92 55.7479 154.451 58.1512C151.983 60.5545 150.913 64.1064 150.803 67.5496C150.744 69.3863 150.942 71.2696 151.723 72.933C152.503 74.5964 153.932 76.0191 155.712 76.4762C158.041 77.0742 160.499 75.9483 162.325 74.3841C165.371 71.7742 167.249 67.8471 167.367 63.837V63.837Z" fill="#184A88"/>
<path fill-rule="evenodd" clip-rule="evenodd" d="M179.184 64.0137C178.71 64.6335 178.214 65.4478 178.578 66.1382C178.708 66.3852 178.371 66.6727 178.103 66.5948C177.835 66.5168 177.682 66.2336 177.611 65.9637C177.54 65.6938 177.516 65.4041 177.373 65.1645C177.23 64.9248 176.905 64.7582 176.668 64.906C176.331 64.866 176.296 64.3579 176.492 64.0806C176.688 63.8032 177.01 63.6126 177.13 63.2951C177.226 63.0437 177.175 62.7617 177.22 62.4966C177.265 62.2316 177.491 61.9486 177.751 62.0163C177.742 62.4821 177.796 62.9654 178.032 63.367C178.269 63.7686 178.721 64.069 179.184 64.0137Z" fill="#184A88"/>
<path fill-rule="evenodd" clip-rule="evenodd" d="M136.768 63.096C137.139 62.6649 137.605 62.296 138.151 62.139C138.698 61.9821 139.331 62.0648 139.758 62.4405C140.222 62.8493 140.368 63.5323 140.269 64.1429C140.17 64.7536 139.862 65.3084 139.538 65.8354C139.118 66.5191 138.661 67.1806 138.171 67.8162C138.018 68.0147 137.85 68.2194 137.615 68.3079C137.306 68.4247 136.96 68.311 136.655 68.1833C135.581 67.7346 134.584 67.1051 133.716 66.3293C132.922 65.6189 132.19 64.5779 132.512 63.5621C132.717 62.915 133.343 62.4469 134.014 62.347C134.685 62.2471 135.381 62.4837 135.915 62.9028C136.171 63.1034 136.557 63.3422 136.768 63.096M133.377 63.4719C132.87 64.1694 133.42 65.1465 134.059 65.7256C134.856 66.4482 135.803 66.982 136.74 67.5096C136.861 67.5774 136.995 67.6476 137.131 67.6185C137.251 67.5925 137.34 67.4938 137.42 67.3996C138.055 66.647 138.624 65.8386 139.118 64.9868C139.498 64.3314 139.777 63.3686 139.164 62.9226C138.68 62.5696 137.974 62.854 137.563 63.2905C137.153 63.7269 136.894 64.2969 136.445 64.6941C136.095 64.1417 135.722 63.5678 135.154 63.2436C134.586 62.9195 133.762 62.9427 133.377 63.4719H133.377Z" fill="#184A88"/>
<path fill-rule="evenodd" clip-rule="evenodd" d="M129.507 44.0343C130.669 43.1281 131.962 42.3889 133.332 41.8462C134.172 41.5136 135.131 41.2575 135.961 41.6138C137.291 42.1846 137.551 44.0951 136.851 45.3623C136.151 46.6295 134.823 47.3977 133.559 48.1037C131.08 49.4881 128.602 50.8725 126.123 52.257C126.611 51.2828 126.061 50.1392 125.61 49.1473C124.594 46.9132 124.062 44.4606 124.062 42.0065C124.062 41.2313 124.12 40.4327 124.46 39.736C124.8 39.0394 125.479 38.4616 126.254 38.4434C127.494 38.4142 128.318 39.7057 128.737 40.8736C129.103 41.8963 129.362 42.9577 129.507 44.0343M134.76 42.2581C132.755 42.6654 130.888 43.7201 129.504 45.2262C129.367 45.3745 129.102 45.3092 128.978 45.1508C128.853 44.9924 128.829 44.7799 128.806 44.5799C128.65 43.255 128.303 41.9526 127.78 40.7252C127.489 40.041 127.001 39.2854 126.257 39.2733C125.706 39.2644 125.226 39.7058 125.023 40.2181C124.82 40.7305 124.837 41.3009 124.876 41.8507C125.094 44.9173 125.9 47.941 127.239 50.7082C129.432 49.4795 131.625 48.2507 133.817 47.022C134.502 46.6386 135.198 46.2457 135.73 45.6695C136.262 45.0932 136.612 44.2925 136.457 43.5237C136.303 42.7548 135.529 42.102 134.76 42.2581Z" fill="#184A88"/>
<path fill-rule="evenodd" clip-rule="evenodd" d="M114.164 195.922C120.564 195.193 127.005 194.826 133.446 194.823C134.628 194.823 135.656 193.904 136.136 192.825C136.616 191.745 136.655 190.527 136.655 189.346C136.657 184.956 136.245 180.577 135.832 176.207C135.665 174.434 135.498 172.662 135.33 170.889C135.229 169.814 135.121 168.714 134.668 167.734C133.882 166.032 132.142 164.925 130.329 164.448C128.516 163.971 126.61 164.037 124.737 164.105C118.517 164.333 112.297 164.561 106.077 164.789C109.662 163.474 113.568 163.412 117.386 163.365C120.314 163.33 123.242 163.294 126.169 163.258C129.162 163.222 132.581 163.372 134.49 165.676C135.723 167.165 135.995 169.204 136.202 171.127C136.851 177.179 137.326 183.251 137.627 189.331C137.727 191.346 137.646 193.714 136.006 194.887C135.088 195.544 133.898 195.642 132.772 195.719C125.918 196.183 119.063 196.647 112.208 197.112C110.599 197.221 108.903 197.314 107.455 196.602C106.952 196.355 106.435 195.796 106.705 195.306C108.934 196.519 111.643 196.209 114.164 195.922V195.922Z" fill="#00160A"/>
<path fill-rule="evenodd" clip-rule="evenodd" d="M87.055 98.8281C87.1834 99.0199 87.2126 99.2592 87.2384 99.4886C87.2984 100.023 87.3584 100.557 87.4184 101.091C87.4896 101.725 87.5042 102.492 86.9788 102.853C86.6987 103.046 86.3374 103.062 85.9976 103.071C78.8472 103.264 71.6968 103.457 64.5464 103.651C64.0864 103.663 63.554 103.643 63.272 103.279C63.095 103.051 63.0678 102.744 63.0512 102.456C62.9991 101.55 62.9846 100.642 63.0077 99.7352C63.0112 99.5971 63.0193 99.4485 63.105 99.3402C63.2078 99.2103 63.3886 99.1785 63.5528 99.1563C70.941 98.1555 78.4287 97.8912 85.869 98.3687C86.3083 98.3969 86.8102 98.4622 87.055 98.8281M86.7612 102.303C86.0351 101.911 86.7667 100.761 86.5026 99.979C86.2758 99.3072 85.4137 99.1483 84.7058 99.108C77.9637 98.7241 71.1863 98.9635 64.4881 99.8223C64.2414 99.8539 63.9678 99.9014 63.8179 100.1C63.6699 100.296 63.6967 100.568 63.7304 100.812C63.7825 101.189 63.8347 101.565 63.8868 101.942C63.9279 102.239 63.9907 102.572 64.2401 102.738C64.4209 102.859 64.6538 102.858 64.8711 102.852C72.1678 102.669 79.4645 102.486 86.7612 102.303Z" fill="#00160A"/>
<path fill-rule="evenodd" clip-rule="evenodd" d="M100.506 111.487C100.54 110.694 100.574 109.9 100.608 109.106C100.674 107.559 100.756 105.953 101.475 104.582C102.194 103.21 103.747 102.144 105.254 102.5C106.197 102.723 107.067 103.464 108.015 103.265C108.841 103.092 109.347 102.276 110.045 101.801C111.708 100.67 114.025 101.721 115.401 103.188C116.883 104.77 117.846 106.83 118.11 108.982C118.132 109.165 118.144 109.37 118.026 109.511C117.929 109.628 117.769 109.669 117.621 109.703C117.048 109.834 116.476 109.965 115.903 110.096C115.416 110.208 114.91 110.32 114.421 110.219C113.931 110.117 113.461 109.74 113.421 109.241C113.275 112.027 115.361 114.689 114.78 117.417C114.564 117.299 114.348 117.181 114.131 117.063C114.641 114.327 112.203 111.678 112.712 108.941C112.779 108.579 112.925 108.194 113.249 108.018C113.572 107.842 114.084 108.042 114.072 108.41C114.051 109 114.688 109.44 115.278 109.435C115.868 109.43 116.405 109.114 116.909 108.807C117.089 108.698 117.039 108.428 116.964 108.231C116.407 106.768 115.673 105.371 114.785 104.081C114.184 103.209 113.461 102.347 112.463 101.993C111.465 101.638 110.147 102 109.78 102.993C109.35 104.155 107.726 104.233 106.533 103.898C105.34 103.563 104.001 103.04 102.936 103.674C102.046 104.205 101.748 105.336 101.581 106.358C101.295 108.113 101.163 109.893 101.187 111.67C101.236 111.942 101.581 112.029 101.857 112.022C103.308 111.984 104.656 110.84 104.927 109.414C105.318 109.863 105.458 110.473 105.585 111.055C106.023 113.072 106.461 115.089 106.899 117.106C107.034 117.727 106.876 118.681 106.251 118.568C105.968 116.368 105.548 114.186 104.995 112.038C103.95 112.276 102.905 112.513 101.859 112.751C101.539 112.824 101.18 112.891 100.899 112.72C100.512 112.483 100.487 111.941 100.506 111.487Z" fill="#00160A"/>
<path fill-rule="evenodd" clip-rule="evenodd" d="M131.083 166.267C131.616 166.846 130.787 167.912 131.276 168.529C131.529 168.848 131.349 169.356 131.013 169.587C130.677 169.819 130.247 169.85 129.839 169.874C122.837 170.281 115.835 170.688 108.832 171.094C108.356 171.122 107.788 171.106 107.528 170.706C107.414 170.532 107.386 170.317 107.362 170.11C107.298 169.572 107.234 169.034 107.17 168.496C107.15 168.327 107.132 168.146 107.212 167.996C107.343 167.748 107.668 167.694 107.947 167.669C115.306 167.02 122.674 166.47 130.048 166.022C130.415 166 130.834 165.998 131.083 166.267M130.279 167.176C130.256 167.044 130.226 166.898 130.12 166.815C130.014 166.733 129.866 166.739 129.733 166.748C123.203 167.224 116.674 167.7 110.145 168.176C109.617 168.215 109.069 168.259 108.608 168.519C108.147 168.779 107.8 169.32 107.938 169.831C107.981 169.989 108.073 170.14 108.213 170.225C108.384 170.329 108.599 170.321 108.8 170.31C115.693 169.936 122.587 169.562 129.48 169.188C130.3 169.144 130.418 167.985 130.279 167.176Z" fill="#00160A"/>
<path fill-rule="evenodd" clip-rule="evenodd" d="M136.607 159.997C137.847 163.259 138.242 166.77 138.627 170.238C139.522 178.294 140.416 186.35 141.311 194.406C140.645 194.461 140.338 193.606 140.255 192.944C138.9 182.104 138.464 171.125 136.172 160.444C136.317 160.295 136.462 160.146 136.607 159.997Z" fill="#00160A"/>
<path fill-rule="evenodd" clip-rule="evenodd" d="M96.6276 103.879C96.4348 103.797 96.4386 103.496 96.5865 103.347C96.7344 103.199 96.9582 103.163 97.1662 103.136C98.7233 102.939 100.293 102.842 101.863 102.848C101.779 103.518 100.915 103.714 100.241 103.745C99.108 103.797 97.9754 103.849 96.8428 103.902C96.7701 103.905 96.6945 103.908 96.6276 103.879L96.6276 103.879Z" fill="#00160A"/>
<path fill-rule="evenodd" clip-rule="evenodd" d="M105.412 185.807C105.283 183.409 105.153 181.011 105.024 178.613C104.676 172.159 104.317 165.639 102.52 159.431C102.291 158.638 102.029 157.834 101.521 157.183C100.249 155.556 97.894 155.369 95.8282 155.369C87.8636 155.369 79.8992 156.127 72.0773 157.628C71.2824 157.78 70.4561 157.955 69.8219 158.458C68.8142 159.257 68.5485 160.661 68.4549 161.944C68.2841 164.285 68.4532 166.651 68.9555 168.945C68.6681 168.897 68.3806 168.849 68.0932 168.801C67.0392 166.606 66.559 164.138 66.713 161.708C66.7798 160.653 66.9739 159.578 67.5177 158.671C68.8701 156.416 71.8472 155.874 74.4623 155.594C81.0972 154.884 87.757 154.405 94.4254 154.16C97.1095 154.061 100.142 154.136 101.984 156.091C102.911 157.074 103.38 158.395 103.749 159.695C105.028 164.211 105.381 168.929 105.728 173.61C106.067 178.183 106.405 182.756 106.744 187.33C106.824 188.405 106.902 189.496 106.685 190.552C105.976 193.991 102.313 196.084 98.8256 196.5C95.3384 196.916 91.8275 196.119 88.316 196.06C83.5937 195.982 78.8434 197.237 74.186 196.453C72.8447 196.227 71.4182 195.752 70.6809 194.609C70.1694 193.816 70.0771 192.833 69.9988 191.893C69.4464 185.259 68.8941 178.626 68.3417 171.993C68.3047 171.549 68.635 170.887 68.9762 171.174C69.5852 177.563 70.1942 183.952 70.8032 190.341C70.8857 191.206 70.9752 192.096 71.3773 192.866C71.9609 193.984 73.1385 194.695 74.3594 195.012C75.5803 195.328 76.86 195.303 78.1212 195.286C83.4569 195.217 88.7954 195.349 94.1211 195.684C95.9021 195.797 97.7023 195.93 99.4617 195.631C101.221 195.333 102.967 194.549 104.059 193.137C105.614 191.127 105.549 188.345 105.412 185.807V185.807Z" fill="#00160A"/>
<path fill-rule="evenodd" clip-rule="evenodd" d="M96.3572 101.286C96.8537 100.899 96.4362 100.105 96.5341 99.4829C96.6726 98.6027 97.7679 98.3004 98.653 98.1981C104.338 97.5411 110.063 97.2303 115.786 97.2682C116.262 97.2714 116.825 97.3245 117.065 97.7359C117.353 98.2299 117.085 99.092 117.63 99.2651C117.886 99.3463 118.214 99.196 118.408 99.3817C118.728 99.6886 118.131 100.103 117.689 100.143C110.992 100.744 104.28 101.184 97.5616 101.462C97.1506 101.479 96.7147 101.49 96.3572 101.286M116.363 98.5128C116.206 98.1195 115.683 98.0619 115.259 98.0683C109.864 98.1504 104.471 98.4171 99.0935 98.8678C98.463 98.9206 97.7189 99.0521 97.4561 99.6275C97.3298 99.9548 97.5706 100.331 97.8884 100.48C98.2061 100.628 98.5734 100.609 98.9234 100.587C104.295 100.246 109.667 99.9053 115.039 99.5646C115.369 99.5436 115.714 99.5185 115.999 99.3496C116.284 99.1808 116.485 98.8206 116.363 98.5128Z" fill="#00160A"/>
<path fill-rule="evenodd" clip-rule="evenodd" d="M123.603 177.338C124.431 177.996 124.077 179.438 124.798 180.213C125.133 180.573 125.635 180.714 126.107 180.852C126.41 180.941 126.786 181.164 126.689 181.465C126.59 181.773 126.141 181.723 125.84 181.605C124.855 181.219 123.745 180.578 123.691 179.522C123.651 178.752 123.422 177.991 123.029 177.327C123.14 177.14 123.433 177.202 123.603 177.338V177.338Z" fill="#00160A"/>
<path fill-rule="evenodd" clip-rule="evenodd" d="M127.521 188.257C127.251 184.782 126.981 181.307 126.711 177.832C126.672 177.322 126.626 176.792 126.373 176.347C126.121 175.901 125.597 175.565 125.102 175.698C122.863 176.299 120.539 176.577 118.222 176.522C116.196 176.474 114.123 176.178 112.174 176.733C112.21 177.698 112.246 178.663 112.283 179.628C112.293 179.91 112.309 180.209 112.47 180.441C112.919 181.092 114.035 180.596 114.288 179.847C114.542 179.098 114.313 178.279 114.356 177.49C114.364 177.35 114.392 177.191 114.511 177.117C114.764 176.96 115.007 177.335 115.072 177.626C115.258 178.458 115.443 179.33 115.224 180.155C115.004 180.979 114.24 181.726 113.393 181.617C112.516 181.504 112.158 182.703 112.136 183.587C112.094 185.35 112.052 187.114 112.009 188.878C111.996 189.434 112.196 190.201 112.748 190.138C114.172 189.976 115.597 189.815 117.021 189.653C117.365 189.614 117.736 189.58 118.039 189.749C118.341 189.917 118.501 190.376 118.253 190.617C116.58 190.764 114.907 190.911 113.234 191.057C112.745 191.1 112.238 191.141 111.777 190.973C111.316 190.806 110.914 190.367 110.956 189.878C111.368 185.08 111.46 180.254 111.232 175.443C111.183 174.42 112.43 173.9 113.437 173.711C116.633 173.112 119.893 172.852 123.144 172.937C124.234 172.966 125.422 173.074 126.213 173.825C127.017 174.589 127.175 175.794 127.286 176.899C127.702 181.038 128.118 185.178 128.534 189.317C128.556 189.54 128.562 189.806 128.383 189.942C128.276 190.023 128.133 190.031 128 190.037C126.612 190.095 125.225 190.152 123.837 190.21C123.102 190.241 122.311 190.256 121.699 189.848C121.279 189.568 121.002 189.123 120.758 188.681C120.173 187.621 119.706 186.497 119.367 185.335C118.837 186.663 118.501 188.069 118.373 189.494C117.703 189.567 117.578 188.561 117.734 187.905C118.056 186.551 118.377 185.197 118.699 183.843C118.748 183.637 118.826 183.398 119.028 183.334C119.326 183.241 119.554 183.597 119.663 183.889C120.116 185.107 120.569 186.324 121.022 187.542C121.412 188.59 122.537 189.22 123.648 189.349C124.758 189.478 125.872 189.198 126.955 188.921C127.169 188.866 127.412 188.787 127.496 188.582C127.537 188.481 127.529 188.366 127.521 188.257M112.427 175.534C113.432 175.547 114.436 175.56 115.441 175.573C116.196 175.583 116.951 175.593 117.706 175.578C120.43 175.527 123.149 175.162 125.791 174.492C125.202 173.887 124.256 173.853 123.412 173.868C120.39 173.922 117.371 174.098 114.363 174.394C113.558 174.474 112.558 174.736 112.427 175.534L112.427 175.534Z" fill="#00160A"/>
<path fill-rule="evenodd" clip-rule="evenodd" d="M107.929 172.932C107.872 172.618 108.279 172.446 108.595 172.397C112.24 171.832 115.934 171.583 119.622 171.652C119.675 171.653 119.73 171.654 119.778 171.675C119.952 171.747 119.943 172.019 119.806 172.147C119.669 172.275 119.466 172.296 119.279 172.31C115.767 172.574 112.204 172.438 108.763 173.189C108.444 173.259 107.988 173.254 107.929 172.932L107.929 172.932Z" fill="#00160A"/>
<path fill-rule="evenodd" clip-rule="evenodd" d="M189.448 165.385C189.649 164.91 189.871 164.409 190.299 164.12C190.659 163.876 191.111 163.823 191.543 163.776C192.827 163.636 194.11 163.497 195.393 163.358C196.028 163.289 196.847 163.021 196.823 162.383C196.745 160.323 196.905 157.95 198.541 156.696C200.039 155.549 202.281 155.864 203.817 156.958C205.353 158.052 206.326 159.757 207.166 161.446C207.537 162.194 208.555 162.33 209.378 162.186C210.201 162.042 211.035 161.718 211.847 161.915C213.096 162.218 213.728 163.583 214.157 164.795C216.313 170.879 217.776 177.221 220.456 183.091C221.459 185.287 221.142 188.027 219.664 189.935C219.481 188.42 219.735 186.854 220.387 185.474C220.695 184.824 219.672 184.397 218.953 184.399C211.624 184.417 204.264 184.438 197.017 185.525C196.796 185.559 196.56 185.599 196.395 185.75C196.235 185.897 196.172 186.12 196.117 186.33C195.892 187.184 195.668 188.037 195.443 188.891C195.302 189.426 195.39 190.256 195.941 190.2C203.113 189.474 210.325 189.127 217.534 189.163C218.292 189.167 219.327 189.468 219.229 190.219C211.549 190.31 203.841 190.402 196.244 191.533C195.034 191.713 194.199 190.215 194.336 189C194.473 187.785 195.17 186.695 195.366 185.487C195.536 184.447 195.324 183.386 195.096 182.357C194.734 180.72 194.329 179.094 193.882 177.479C193.446 175.903 192.97 174.338 192.494 172.773C191.774 170.407 191.054 168.04 190.335 165.674C189.345 167.123 188.904 168.938 189.118 170.68C189.267 171.893 189.717 173.045 190.054 174.22C190.536 175.9 190.788 177.635 191.04 179.364C191.535 182.769 192.031 186.174 192.526 189.58C192.599 190.081 192.455 190.819 191.954 190.745C189.727 183.855 190.339 176.237 187.71 169.49C188.289 168.121 188.869 166.753 189.448 165.385M206.037 166.635C206.763 166.231 207.139 165.289 206.89 164.496C206.641 163.704 205.794 163.145 204.967 163.229C202.941 163.434 200.915 163.64 198.888 163.845C198.701 163.864 198.492 163.895 198.379 164.046C198.291 164.165 198.289 164.325 198.297 164.473C198.351 165.399 198.673 166.308 199.213 167.062C199.632 167.648 200.213 168.35 199.885 168.991C199.476 169.794 198.13 169.344 197.796 168.508C197.463 167.671 197.7 166.727 197.638 165.829C197.576 164.93 196.93 163.896 196.042 164.046C194.586 164.291 193.129 164.536 191.673 164.781C191.464 164.816 191.191 164.946 191.252 165.149C193.026 171.019 194.799 176.889 196.573 182.76C196.794 183.491 197.292 184.397 198.036 184.223C204.867 182.628 212.07 184.137 219.006 183.088C216.928 176.573 214.779 170.081 212.557 163.613C212.492 163.422 212.417 163.219 212.254 163.1C212.074 162.968 211.831 162.972 211.608 162.982C210.568 163.026 209.527 163.07 208.487 163.114C208.075 163.131 207.514 163.328 207.604 163.73C207.887 164.99 208.17 166.25 208.453 167.511C208.501 167.728 208.549 167.96 208.468 168.167C208.248 168.73 207.418 168.588 206.865 168.344C206.502 168.184 206.12 168.009 205.896 167.682C205.671 167.355 205.69 166.828 206.037 166.635M203.355 157.49C202.557 156.904 201.508 156.482 200.587 156.845C200.266 156.971 199.988 157.184 199.714 157.393C199.226 157.767 198.723 158.158 198.435 158.7C198.168 159.205 198.112 159.792 198.062 160.362C198.019 160.86 197.975 161.357 197.931 161.855C197.904 162.164 197.893 162.518 198.117 162.733C198.332 162.938 198.668 162.923 198.964 162.895C201.084 162.694 203.203 162.492 205.322 162.29C205.625 162.262 205.994 162.18 206.073 161.887C206.105 161.771 206.079 161.648 206.051 161.532C205.66 159.926 204.688 158.468 203.355 157.49M202.561 162.755C202.348 162.815 202.585 163.215 202.74 163.057C202.938 162.976 202.719 162.604 202.552 162.738L202.561 162.755Z" fill="#184A88"/>
<path fill-rule="evenodd" clip-rule="evenodd" d="M135.366 115.11C135.329 114.986 135.402 114.857 135.489 114.761C135.917 114.29 136.631 114.256 137.266 114.254C141.118 114.245 144.969 114.236 148.82 114.227C149.091 114.227 149.381 114.232 149.602 114.388C149.823 114.545 149.91 114.914 149.697 115.083C149.584 115.172 149.428 115.178 149.284 115.179C144.81 115.229 140.336 115.279 135.862 115.328C135.668 115.33 135.421 115.297 135.366 115.11Z" fill="#00160A"/>
<path fill-rule="evenodd" clip-rule="evenodd" d="M136.793 119.086C136.561 118.953 136.593 118.578 136.788 118.395C136.983 118.212 137.268 118.169 137.533 118.137C139.127 117.945 140.731 117.839 142.333 117.734C143.216 117.675 144.098 117.617 144.981 117.559C146.129 117.484 147.276 117.408 148.424 117.332C148.788 117.308 149.195 117.298 149.47 117.539C149.745 117.78 149.678 118.36 149.313 118.382C145.262 118.633 141.212 118.884 137.162 119.135C137.036 119.143 136.902 119.149 136.793 119.086L136.793 119.086Z" fill="#00160A"/>
<path fill-rule="evenodd" clip-rule="evenodd" d="M158.504 124.323C158.81 123.742 159.143 123.131 159.706 122.793C160.269 122.454 161.133 122.524 161.436 123.107C161.758 123.727 161.278 124.475 160.715 124.89C160.151 125.304 159.458 125.596 159.092 126.192C161.071 127.496 163.05 128.8 165.029 130.104C166.579 131.125 168.333 132.584 168.016 134.413C167.83 135.485 166.921 136.319 165.908 136.719C164.896 137.119 163.783 137.161 162.695 137.192C155.384 137.403 148.065 137.366 140.755 137.081C140.248 137.061 139.683 137.014 139.345 136.635C139.083 136.342 139.029 135.923 138.987 135.532C138.566 131.642 138.145 127.752 137.725 123.861C137.709 123.717 137.694 123.567 137.746 123.432C137.962 122.864 138.812 123.214 139.287 123.593C142.652 126.279 148.031 125.964 151.059 122.903C151.79 122.163 153.036 122.259 153.975 122.705C154.915 123.151 155.702 123.876 156.645 124.316C156.544 123.771 157.025 123.195 157.579 123.198C158.133 123.2 158.609 123.779 158.504 124.323M158.918 126.83C158.678 125.947 157.373 125.761 156.653 126.326C155.934 126.891 155.7 127.876 155.638 128.789C155.615 129.129 155.055 129.163 154.863 128.881C154.671 128.598 154.749 128.218 154.855 127.894C155.136 127.038 155.569 126.232 156.128 125.526C156.404 125.176 155.999 124.702 155.634 124.446C154.346 123.541 152.523 122.648 151.343 123.688C148.107 126.538 142.945 126.918 139.327 124.572C139.37 127.492 139.585 130.41 139.971 133.305C140.01 133.597 140.059 133.908 140.261 134.123C140.528 134.406 140.964 134.426 141.353 134.427C147.639 134.435 153.925 134.443 160.21 134.451C160.822 134.452 161.653 134.233 161.606 133.623C161.495 132.204 162.123 130.747 163.231 129.854C162.36 129.221 161.488 128.588 160.616 127.954C160.35 127.761 160.072 127.563 159.748 127.507C158.77 127.34 158.116 128.461 157.771 129.391C157.24 128.443 157.858 127.065 158.918 126.83M142.49 136.52C149.036 136.571 155.582 136.56 162.127 136.487C163.985 136.466 166.155 136.277 167.163 134.716C158.124 135.113 149.073 135.211 140.028 135.01C139.915 136.096 141.399 136.511 142.49 136.52M164.891 130.685C164.696 130.562 164.495 130.435 164.268 130.397C163.582 130.279 163.042 130.963 162.744 131.592C162.572 131.955 162.422 132.329 162.296 132.711C162.2 133.002 162.117 133.312 162.178 133.612C162.238 133.912 162.484 134.196 162.791 134.2C163.904 134.213 165.017 134.201 166.129 134.164C166.392 134.156 166.677 134.137 166.874 133.963C167.105 133.758 167.133 133.405 167.075 133.101C166.866 132.002 165.836 131.284 164.891 130.685M160.959 123.579C160.947 123.24 160.495 123.068 160.182 123.199C159.869 123.33 159.676 123.641 159.505 123.933C159.297 124.287 159.089 124.64 158.882 124.994C158.773 125.179 158.713 125.495 158.923 125.541C159.476 125.082 160.029 124.622 160.581 124.163C160.766 124.009 160.968 123.82 160.959 123.579M157.378 124.132C157.284 124.589 157.519 125.094 157.928 125.317C158.07 124.847 157.987 124.313 157.709 123.908C157.691 123.793 157.536 123.727 157.441 123.794C157.368 123.886 157.342 124.014 157.373 124.127L157.378 124.132Z" fill="#00160A"/>
<path fill-rule="evenodd" clip-rule="evenodd" d="M134.873 110.653C134.707 109.849 134.541 109.045 134.375 108.241C134.31 107.928 134.251 107.581 134.415 107.307C134.638 106.934 135.15 106.884 135.585 106.877C146.269 106.691 156.957 106.731 167.639 106.999C168.368 107.017 168.966 107.646 169.188 108.341C169.41 109.035 169.337 109.785 169.262 110.51C169.221 110.902 169.156 111.339 168.844 111.579C168.588 111.775 168.238 111.78 167.916 111.777C157.186 111.659 146.457 111.542 135.728 111.425C135.551 111.423 135.364 111.418 135.215 111.324C134.996 111.187 134.925 110.906 134.873 110.653M136.349 107.582C135.559 107.576 134.999 108.514 135.197 109.279C135.394 110.044 136.133 110.57 136.9 110.756C137.668 110.942 138.471 110.852 139.258 110.779C148.947 109.873 158.745 111.604 168.428 110.627C168.479 110.038 168.527 109.429 168.337 108.869C168.147 108.309 167.653 107.808 167.062 107.803C156.824 107.73 146.587 107.656 136.349 107.582Z" fill="#00160A"/>
<path fill-rule="evenodd" clip-rule="evenodd" d="M70.4493 133.947C70.0917 134.625 69.5986 135.313 68.8593 135.515C67.4511 135.899 66.2866 134.336 65.9023 132.928C65.3024 130.73 65.4542 128.333 66.3267 126.228C66.7935 125.102 66.4044 123.771 65.6725 122.796C64.2922 120.957 61.7175 120.152 59.505 120.777C57.2926 121.403 55.5468 123.371 55.084 125.623C55.0115 125.976 55.0627 126.471 55.4192 126.521C57.1973 126.77 58.0136 128.857 58.2843 130.632C58.491 131.987 58.5808 133.407 58.1211 134.698C57.6614 135.99 56.5363 137.124 55.1693 137.228C53.9425 136.402 53.019 135.136 52.607 133.716C51.8409 131.074 52.8362 128.274 53.8638 125.722C54.4909 124.165 55.1642 122.571 56.3555 121.388C58.902 118.86 63.6573 119.16 65.8658 121.988C66.7154 123.076 67.2029 124.428 68.1444 125.437C68.854 126.198 69.7923 126.73 70.4397 127.545C71.8459 129.314 71.5039 131.949 70.4493 133.947M53.3861 129.064C52.7413 130.841 52.9209 132.898 53.8638 134.537C54.0188 134.806 54.203 135.074 54.4737 135.226C54.7444 135.378 55.1217 135.38 55.3357 135.155C55.9769 134.481 56.0571 133.462 56.055 132.531C56.0525 131.431 55.9846 130.331 55.8519 129.238C55.7976 128.791 55.705 128.297 55.3434 128.028C54.9818 127.76 54.303 127.984 54.3598 128.431C54.525 129.731 54.6902 131.032 54.8554 132.332C54.893 132.628 54.9261 132.947 54.7779 133.206C54.6297 133.465 54.2204 133.585 54.0328 133.354C53.5465 132.361 53.3998 131.207 53.6227 130.124C53.7029 129.735 53.7582 129.203 53.3861 129.064M68.2708 134.219C68.435 134.091 68.5118 133.883 68.5731 133.684C69.0551 132.118 69.0603 130.41 68.5877 128.841C68.408 128.245 67.9211 127.548 67.3313 127.747C66.9905 127.863 66.8177 128.236 66.7092 128.579C66.2161 130.138 66.2817 131.867 66.8914 133.385C67.0082 133.675 67.1528 133.969 67.4003 134.161C67.6478 134.353 68.0238 134.412 68.2708 134.219M56.6978 128.594C57.1274 130.771 57.036 133.049 56.4334 135.185C56.3779 135.382 56.6009 135.535 56.7877 135.618C57.6916 133.425 57.8061 130.917 57.1055 128.651C56.9894 128.568 56.8323 128.546 56.6978 128.594M69.2389 128.006C69.1054 128.219 68.9719 128.432 68.8383 128.645C69.2785 128.571 69.4799 129.171 69.5035 129.617C69.558 130.647 69.6124 131.678 69.6669 132.708C70.0769 132.555 70.1511 132.016 70.1587 131.579C70.1759 130.593 70.1931 129.607 70.2103 128.621C70.0627 128.603 69.915 128.586 69.7674 128.569C69.7522 128.29 69.5167 128.039 69.2389 128.006Z" fill="#00160A"/>
<path fill-rule="evenodd" clip-rule="evenodd" d="M117.573 129.876C114.636 129.736 111.685 129.863 108.771 130.256C108.513 130.291 108.225 130.32 108.017 130.163C107.81 130.005 107.833 129.588 108.091 129.559C111.006 129.239 113.933 129.033 116.864 128.942C117.182 128.932 117.539 128.938 117.766 129.161C117.994 129.385 117.892 129.891 117.573 129.876V129.876Z" fill="#00160A"/>
<path fill-rule="evenodd" clip-rule="evenodd" d="M49.3398 118.147C50.1737 118.069 51.0076 117.99 51.8415 117.912C52.2616 117.872 52.6816 117.833 53.1017 117.794C55.7737 117.543 58.4457 117.292 61.1201 117.068C61.2251 117.06 61.3348 117.051 61.4322 117.092C61.7216 117.212 61.6771 117.68 61.4248 117.866C61.1726 118.052 60.8315 118.041 60.5183 118.031C56.5797 117.9 52.6545 119.083 48.734 118.683C48.4793 118.657 48.1461 118.526 48.191 118.274C48.5724 118.219 48.9562 118.183 49.3398 118.147Z" fill="#00160A"/>
<path fill-rule="evenodd" clip-rule="evenodd" d="M139.156 204.7C139.025 203.553 138.931 202.305 138.159 201.446C137.568 200.787 137.874 199.561 138.706 199.258C139.538 198.955 140.561 199.695 140.532 200.581C140.522 200.885 140.412 201.175 140.326 201.467C139.737 203.459 140.284 205.602 141.003 207.551C141.731 209.524 142.846 211.625 144.847 212.274C147.162 213.024 149.723 211.363 150.75 209.157C151.776 206.95 151.619 204.388 151.261 201.981C151.225 201.74 151.16 201.461 150.939 201.359C150.038 200.943 149.902 199.482 150.709 198.907C151.517 198.331 152.853 198.938 152.952 199.924C152.986 200.259 152.9 200.593 152.836 200.923C152.394 203.215 152.979 205.618 152.494 207.902C152.191 209.331 151.463 210.668 150.427 211.7C149.329 212.793 147.845 213.547 146.296 213.573C144.209 213.609 142.257 212.315 141.078 210.593C139.899 208.871 139.393 206.774 139.156 204.7Z" fill="#00160A"/>
<path fill-rule="evenodd" clip-rule="evenodd" d="M78.3047 110.528C78.3627 111.314 78.418 112.123 78.1732 112.872C77.9284 113.621 77.3063 114.303 76.5214 114.371C72.475 114.718 68.4281 115.066 64.3739 115.306C58.8458 115.633 53.3079 115.76 47.7716 115.886C47.5741 115.89 47.3627 115.891 47.1978 115.782C46.9505 115.618 46.9041 115.281 46.8813 114.985C46.8214 114.212 46.7616 113.438 46.7017 112.664C46.6835 112.428 46.6697 112.174 46.7965 111.975C46.9823 111.683 47.3801 111.633 47.7253 111.613C57.9079 111.009 68.1049 110.647 78.3047 110.528M76.6011 113.243C77.2516 113.2 77.3833 112.176 76.9063 111.731C76.4293 111.287 75.7049 111.277 75.0531 111.293C66.6729 111.501 58.2897 111.71 49.9262 112.279C49.3239 112.32 48.6973 112.37 48.1766 112.675C47.656 112.981 47.2801 113.623 47.479 114.193C47.7616 115.003 48.854 115.092 49.7097 115.035C58.6735 114.438 67.6373 113.84 76.6011 113.243Z" fill="#00160A"/>
<path fill-rule="evenodd" clip-rule="evenodd" d="M67.9001 130.085C67.9081 130.298 67.9161 130.511 67.9242 130.724C67.9409 131.167 67.9574 131.613 67.8934 132.051C67.3378 131.993 67.1655 131.278 67.1331 130.72C67.1177 130.455 67.1125 130.158 67.2902 129.961C67.468 129.763 67.89 129.82 67.9001 130.085L67.9001 130.085Z" fill="#00160A"/>
<path fill-rule="evenodd" clip-rule="evenodd" d="M107.911 131.899C108.456 131.396 109.285 131.412 110.027 131.433C112.373 131.499 114.726 131.318 117.035 130.893C117.307 130.843 117.453 131.266 117.284 131.484C117.114 131.703 116.808 131.749 116.533 131.777C113.931 132.041 111.318 132.198 108.704 132.247C108.392 132.253 107.997 132.199 107.911 131.899Z" fill="#00160A"/>
<path fill-rule="evenodd" clip-rule="evenodd" d="M195.503 140.696C195.246 141.566 194.391 142.104 193.576 142.503C189.496 144.498 184.699 144.987 180.301 143.855C178.823 143.475 177.14 142.595 177.077 141.071C177.031 139.951 177.925 139.012 178.872 138.411C180.325 137.49 182.019 137.025 183.708 136.697C186.966 136.064 190.497 135.933 193.446 137.455C194.682 138.093 195.897 139.362 195.503 140.696M178.084 140.902C178.087 142.133 179.46 142.853 180.651 143.166C184.786 144.25 189.309 143.782 193.134 141.874C193.748 141.568 194.396 141.164 194.591 140.506C194.853 139.623 194.168 138.733 193.409 138.211C191.123 136.641 188.1 136.856 185.342 137.151C183.123 137.388 180.758 137.699 179.067 139.154C178.544 139.604 178.083 140.212 178.084 140.902L178.084 140.902Z" fill="#00160A"/>
<path fill-rule="evenodd" clip-rule="evenodd" d="M75.4575 68.5915C75.3184 67.8002 75.8642 67.0138 76.5674 66.6251C77.2706 66.2365 78.0995 66.1615 78.9016 66.1143C86.053 65.6935 93.1931 66.842 100.347 67.2196C101.268 67.2681 102.238 67.319 103.013 67.8192C103.788 68.3194 104.242 69.4421 103.706 70.1924C103.447 70.5553 103.019 70.7569 102.594 70.8912C101.367 71.2786 100.051 71.2272 98.766 71.172C92.0782 70.8845 85.3904 70.597 78.7025 70.3095C77.3747 70.2524 75.6877 69.9005 75.4575 68.5915M76.3754 67.4448C75.9975 67.9773 76.3138 68.7719 76.8598 69.1302C77.4057 69.4884 78.0937 69.5288 78.746 69.5581C85.8339 69.8771 92.9218 70.1961 100.01 70.515C100.7 70.5461 101.465 70.553 101.988 70.1012C102.512 69.6494 102.443 68.5718 101.76 68.4633C93.8782 67.2101 85.8802 66.6897 77.9027 66.9109C77.3426 66.9265 76.6997 66.9878 76.3754 67.4448" fill="#00160A"/>
<path fill-rule="evenodd" clip-rule="evenodd" d="M153.878 61.7237C154.966 59.4569 156.73 57.1203 159.237 56.927C160.907 56.7982 162.679 57.0904 164.001 58.1192C166.398 59.9853 166.565 63.6038 165.708 66.5183C164.699 69.9536 162.445 73.1354 159.213 74.6761C158.442 75.0436 157.604 75.3183 156.75 75.2848C154.483 75.1959 152.831 72.968 152.343 70.7518C151.674 67.7143 152.533 64.5278 153.878 61.7237M156.699 74.4551C158.375 74.6833 159.954 73.6156 161.137 72.4059C163.353 70.1385 164.841 67.1699 165.331 64.0373C165.472 63.1346 165.531 62.1979 165.285 61.3178C164.802 59.5867 163.161 58.3357 161.401 57.9758C159.707 57.6296 157.846 58.0426 156.541 59.1755C155.914 59.72 155.427 60.4076 155.001 61.1211C153.614 63.4483 152.825 66.1564 152.922 68.8641C152.965 70.0874 153.197 71.3308 153.816 72.3866C154.436 73.4424 155.486 74.2899 156.699 74.4551V74.4551Z" fill="#184A88"/>
<path fill-rule="evenodd" clip-rule="evenodd" d="M98.9086 157.93C99.1314 157.918 99.3706 157.91 99.5593 158.029C99.7925 158.176 99.8777 158.47 99.9448 158.737C100.092 159.323 100.24 159.932 100.121 160.525C100.003 161.117 99.5357 161.686 98.9323 161.712C97.3933 161.779 95.8542 161.847 94.3151 161.914C93.7116 161.94 93.0045 162.026 92.7045 162.551C92.5012 162.906 92.5617 163.347 92.6283 163.751C92.817 164.896 93.3503 166.344 94.51 166.302C95.2814 166.274 95.969 166.859 96.301 167.556C96.633 168.253 96.6827 169.046 96.7268 169.817C96.7684 170.542 96.5833 171.533 95.8569 171.552C95.2711 171.566 95.1095 172.358 95.1281 172.944C95.2575 177.017 95.3869 181.09 95.5163 185.164C95.5371 185.82 94.696 186.096 94.0426 186.162C88.5675 186.715 83.0353 186.7 77.5632 186.119C77.367 186.098 77.1164 186.021 77.112 185.824C77.0107 181.221 76.9095 176.618 76.8082 172.016C76.8023 171.747 76.6706 171.376 76.4119 171.447C75.5964 171.67 74.7764 170.913 74.6075 170.085C74.4387 169.257 74.7283 168.411 75.0138 167.615C75.1457 167.247 75.2938 166.857 75.6094 166.627C76.2834 166.135 77.5292 166.485 77.8311 165.707C77.881 165.578 77.8906 165.437 77.8858 165.3C77.8437 164.098 76.7243 163.149 75.5453 162.911C74.3663 162.674 73.1511 162.986 72.0029 163.344C71.7397 162.352 71.6723 161.307 71.8056 160.289C71.837 160.048 71.8859 159.796 72.0474 159.615C72.2777 159.357 72.6613 159.321 73.0064 159.303C81.6405 158.845 90.2745 158.387 98.9086 157.93M75.8885 167.255C75.7225 167.447 75.6857 167.716 75.6558 167.969C75.5778 168.627 75.4999 169.286 75.422 169.944C75.4056 170.083 75.3902 170.229 75.446 170.357C75.5656 170.631 75.927 170.678 76.2256 170.685C77.8106 170.725 79.3956 170.764 80.9807 170.804C81.248 170.81 81.5284 170.814 81.7658 170.691C82.1475 170.493 82.3044 169.955 82.0889 169.583C82.2829 169.563 82.4769 169.544 82.6709 169.524C82.5854 170.098 83.1705 170.579 83.745 170.663C84.3194 170.748 84.8967 170.572 85.4756 170.526C86.6891 170.431 87.9009 170.907 89.1099 170.764C89.2371 170.749 89.3729 170.722 89.4619 170.63C89.5783 170.51 89.5761 170.321 89.5666 170.154C89.5207 169.352 89.4749 168.549 89.4291 167.746C89.4147 167.494 89.393 167.222 89.2306 167.028C88.9988 166.75 88.5832 166.742 88.2221 166.756C86.4771 166.823 84.7321 166.891 82.9871 166.958C82.8653 166.963 82.7304 166.973 82.646 167.061C82.5513 167.16 82.558 167.315 82.5707 167.451C82.6294 168.075 82.688 168.7 82.7467 169.324C82.5151 169.347 82.2881 169.414 82.0821 169.522C82.0305 169.03 81.979 168.538 81.9275 168.046C81.8805 167.598 81.7047 167.023 81.2537 167.017C79.8135 166.997 78.3733 166.978 76.9331 166.959C76.5587 166.954 76.1328 166.971 75.8885 167.255M84.1861 172.096C84.1621 171.765 84.0185 171.326 83.6882 171.362C81.6345 171.582 79.5559 171.57 77.5051 171.324C77.5557 175.793 77.639 180.261 77.7549 184.729C77.7698 185.304 78.4955 185.534 79.0676 185.593C80.7674 185.767 82.4788 185.826 84.1866 185.77C84.3266 185.766 84.4781 185.756 84.5848 185.665C84.725 185.546 84.7342 185.337 84.7321 185.153C84.6832 180.796 84.5011 176.441 84.1861 172.096M94.4562 171.85C94.4 171.754 94.272 171.734 94.1609 171.724C92.3943 171.575 90.6185 171.532 88.8468 171.598C88.6863 171.604 88.5144 171.615 88.3872 171.713C88.194 171.863 88.1822 172.145 88.1875 172.389C88.2852 176.849 88.3829 181.309 88.4806 185.769C90.4311 185.958 92.417 185.774 94.2996 185.23C94.4168 185.196 94.541 185.156 94.6167 185.06C94.6983 184.957 94.7038 184.815 94.7055 184.683C94.7425 181.814 94.6684 178.944 94.5943 176.075C94.5594 174.724 94.5245 173.372 94.4896 172.021C94.4881 171.962 94.4858 171.901 94.4562 171.85M72.5504 160.543C72.2116 161.076 72.5758 161.828 73.1325 162.125C73.6892 162.423 74.3563 162.394 74.9864 162.357C78.7988 162.137 82.6112 161.916 86.4236 161.695C90.0593 161.484 93.6954 161.273 97.3252 160.978C97.8569 160.935 98.4154 160.88 98.8547 160.578C99.294 160.275 99.5492 159.635 99.2546 159.191C98.959 158.745 98.3234 158.724 97.789 158.752C89.8673 159.16 81.9456 159.569 74.0239 159.978C73.4767 160.006 72.8445 160.081 72.5504 160.543M87.7884 185.665C87.5205 181.312 87.4675 176.945 87.6295 172.585C87.6388 172.335 87.6471 172.075 87.5471 171.845C87.2554 171.174 86.3168 171.176 85.5936 171.288C85.2629 171.339 84.8408 171.497 84.8656 171.83C85.1757 176 85.4859 180.177 85.4163 184.357C85.4071 184.911 85.7239 185.458 86.2087 185.725C86.6935 185.992 87.3252 185.969 87.7884 185.665M95.97 169.592C95.8758 169.017 95.7773 168.429 95.4968 167.918C95.2163 167.407 94.7139 166.979 94.1316 166.95C93.0254 166.894 91.9192 166.839 90.813 166.784C90.525 166.77 90.1271 166.857 90.141 167.145C90.1831 168.02 90.2253 168.896 90.2675 169.771C90.2859 170.153 90.3571 170.615 90.7112 170.76C90.8253 170.806 90.9519 170.81 91.0752 170.813C92.5175 170.845 93.9598 170.878 95.4021 170.911C95.6773 170.918 95.9081 170.676 95.9833 170.411C96.0585 170.146 96.0145 169.864 95.97 169.592M88.9868 165.278C88.8424 164.67 88.6919 164.048 88.3464 163.528C88.0009 163.007 87.4145 162.6 86.7914 162.646C85.831 162.717 84.8707 162.787 83.9104 162.858C83.3121 162.902 82.6346 162.988 82.2838 163.475C81.8597 164.063 82.1506 164.885 82.036 165.601C81.9958 165.853 82.1924 166.094 82.4278 166.192C82.6632 166.29 82.9276 166.278 83.1822 166.265C84.9013 166.177 86.6204 166.088 88.3395 166C88.5919 165.987 88.8948 165.941 88.9954 165.709C89.0536 165.575 89.0206 165.42 88.9868 165.278M91.9994 164.177C91.6723 163.729 91.6803 163.065 92.0183 162.625C91.4157 162.251 90.5718 162.32 90.0382 162.788C89.5047 163.255 89.325 164.083 89.6166 164.729C89.7194 164.957 89.6605 165.227 89.7329 165.467C89.8358 165.807 90.1914 166.02 90.544 166.064C90.8965 166.107 91.2501 166.015 91.5932 165.923C92.0434 165.803 92.5913 165.562 92.5869 165.096C92.5835 164.724 92.2186 164.477 91.9994 164.177M81.2563 165.772C81.456 165.119 81.1875 164.375 80.6749 163.924C80.1623 163.472 79.4444 163.297 78.7643 163.358C78.491 163.382 78.2059 163.45 78.0082 163.64C77.8105 163.83 77.7396 164.173 77.9179 164.381C78.0496 164.535 78.2749 164.58 78.4127 164.729C78.623 164.956 78.552 165.318 78.6484 165.612C78.866 166.276 79.7677 166.339 80.4635 166.276C80.7017 166.254 80.9646 166.22 81.1213 166.04C81.1872 165.964 81.227 165.869 81.2563 165.772M81.3691 163.575C81.5304 163.419 81.5596 163.145 81.4348 162.958C81.157 162.876 80.8463 163.041 80.7002 163.291C80.8089 163.54 81.1142 163.684 81.3752 163.609M89.2972 162.882C89.3377 162.773 89.3139 162.643 89.2374 162.555C88.9737 162.472 88.6666 162.546 88.4708 162.742C88.6723 162.97 89.0389 163.032 89.3042 162.882L89.2972 162.882Z" fill="#00160A"/>
<path fill-rule="evenodd" clip-rule="evenodd" d="M195.579 144.374C187.127 147.679 178.675 150.984 170.223 154.289C166.588 155.71 162.382 157.844 161.992 161.728C166.931 157.929 173.031 155.661 179.253 155.313C174.955 160.728 169.527 165.243 163.42 168.484C157.936 171.394 150.992 174.498 150.522 180.689C156.412 173.675 165.468 169.429 174.627 169.386C168.767 177.969 159.371 184.056 149.144 185.897C149.495 188.534 149.846 191.171 150.197 193.809C153.672 193.686 157.168 194.183 160.471 195.27C162.823 205.375 165.176 215.481 167.528 225.586C168.107 228.073 168.616 230.931 167.094 232.98C165.583 235.013 162.73 235.363 160.203 235.543C150.246 236.251 140.288 236.959 130.33 237.666C129.138 232.265 127.945 226.864 126.753 221.462C109.956 223.022 93.1594 224.581 76.3626 226.141C72.8254 226.47 69.0844 226.764 65.8835 225.223C54.2739 219.634 40.1966 230.452 27.9344 226.494C38.7081 226.291 49.4485 224.412 59.6511 220.945C63.3512 219.688 67.7814 216.243 65.8481 212.847C56.3865 219.449 44.2465 222.085 32.8992 220C33.5655 208.981 33.137 197.895 31.6222 186.959C39.6962 185.804 47.6532 183.833 55.3325 181.085C57.4687 180.321 59.6662 179.441 61.1874 177.758C62.7085 176.075 63.3235 173.355 61.987 171.522C50.3068 177.746 36.8207 180.532 23.6304 179.445C24.3187 194.369 25.007 209.294 25.6953 224.219C23.7456 209.305 22.7116 194.271 22.6011 179.231C29.3909 178.629 36.1807 178.027 42.9705 177.424C41.8787 172.578 40.7801 167.621 41.3409 162.684C41.9018 157.748 44.4423 152.749 48.9079 150.572C45.5295 143.367 40.4237 136.978 34.14 132.094C26.7738 126.369 17.3031 122.053 13.9393 113.35C11.7151 107.597 12.8061 100.904 15.8858 95.5594C18.9655 90.2146 23.8456 86.0974 29.1496 82.948C21.8472 81.0709 16.316 73.7917 16.464 66.2534C16.6119 58.715 22.4246 51.6585 29.7951 50.0695C26.3201 45.9285 20.8482 44.0304 16.8514 40.3904C12.1954 36.1501 9.85569 29.31 11.5517 23.2452C13.2477 17.1804 19.2191 12.4086 25.5109 12.6775C30.679 12.8984 35.2271 16.1671 38.8346 19.8745C44.4294 25.6241 48.5904 32.7586 50.84 40.4592C52.3395 45.5919 57.8348 48.2032 62.4757 50.8594C67.1165 53.5156 71.936 58.1426 70.6285 63.3275C68.8998 56.2325 63.095 50.2852 56.044 48.3851C52.3699 47.395 51.0309 43.0229 49.8491 39.4059C47.5493 32.3675 43.6233 25.8659 38.4652 20.5534C34.5888 16.5611 29.5206 13.0772 23.964 13.3772C18.2438 13.6859 13.2012 18.339 11.8935 23.9163C10.5857 29.4935 12.7784 35.6047 16.9522 39.5284C21.2035 43.5249 27.2855 45.4826 30.7129 50.2047C23.2793 51.7154 17.4023 58.8693 17.3632 66.4548C17.3242 74.0403 23.1272 81.2542 30.5449 82.8414C25.3175 85.9013 20.4261 89.7883 17.201 94.9154C13.9759 100.043 12.5933 106.55 14.5231 112.292C18.9865 125.571 37.5903 128.741 44.1555 141.117C45.9337 135.277 43.3272 129.137 41.9876 123.18C40.6479 117.224 41.4052 109.576 46.9583 107.039C45.3354 99.2171 43.7124 91.3949 42.0895 83.5727C40.8801 77.744 40.2734 70.3592 45.2876 67.1507C41.7546 66.0549 38.6191 63.7211 36.5555 60.6512C38.7839 64.0623 43.076 65.9977 47.1079 65.4096C42.0128 54.3649 36.3635 43.5758 30.1883 33.0967C36.8422 43.1297 42.7311 53.67 47.7871 64.5958C71.1715 63.9631 94.5925 64.6835 117.894 66.7523C120.988 67.027 124.317 67.4268 126.604 69.5284C129.891 72.5485 134.825 73.65 139.084 72.3143C140.439 75.6734 141.436 79.4464 140.284 82.8803C139.132 86.3143 135.052 88.9353 131.791 87.36C132.642 91.7398 133.493 96.1197 134.345 100.499C142.683 100.6 151.021 100.77 159.357 101.01C163.775 101.138 168.393 101.339 172.233 103.527C176.072 105.716 178.782 110.565 177.072 114.64C178.163 111.272 179.253 107.904 180.344 104.536C184.189 110.639 186.078 117.955 185.667 125.157C186.999 123.13 188.331 121.103 189.663 119.077C184.931 111.629 184.329 101.73 188.123 93.7625C191.844 99.925 193.94 107.059 194.144 114.255C195.531 101.286 204.72 89.4629 216.945 84.916C214.824 89.8031 212.703 94.6902 210.582 99.5773C208.766 103.762 206.459 108.403 202.096 109.732C199.218 110.609 195.05 110.556 194.528 113.519C202.795 111.351 211.594 111.244 219.912 113.209C213.503 120.915 201.152 122.812 192.725 117.386C188.75 121.819 185.305 126.729 182.489 131.976C187.273 126.03 194.718 122.312 202.345 122.059C198.247 126.902 193.625 131.301 188.586 135.155C191.261 135.412 194.153 135.764 196.093 137.623C198.033 139.482 198.081 143.395 195.579 144.374M84.015 95.5675C86.2316 95.5418 88.7144 95.6206 90.2618 97.208C91.4423 98.419 91.7587 100.205 92.016 101.877C93.1928 109.521 94.2947 117.176 95.3214 124.841C95.579 126.764 93.9669 128.538 92.1254 129.148C90.2838 129.758 88.2815 129.49 86.3611 129.216C87.9623 127.834 90.6656 128.825 92.389 127.598C93.9346 126.499 93.9257 124.24 93.7407 122.352C93.0467 115.274 92.1019 108.22 90.9083 101.209C90.6974 99.9693 90.4389 98.6508 89.561 97.7509C88.3919 96.5525 86.5237 96.4728 84.8495 96.4707C77.9772 96.4622 71.105 96.4536 64.2327 96.445C63.0483 96.4436 61.802 96.4576 60.7737 97.0454C57.8146 98.7367 58.9055 103.204 60.3765 106.278C64.5436 105.434 68.8015 105.038 73.0529 105.099C76.8193 105.154 81.5161 106.377 82.1512 110.09C83.5465 118.247 84.9418 126.403 86.3371 134.56C87.0687 138.837 87.4719 144.033 84.0541 146.706C82.3462 148.042 80.0796 148.36 77.9286 148.632C72.6398 149.301 67.351 149.969 62.0622 150.638C64.265 169.925 66.4677 189.212 68.6705 208.499C68.9162 210.651 69.366 213.124 71.2576 214.177C72.3767 214.801 73.7341 214.75 75.0131 214.68C91.8647 213.761 108.7 212.544 125.509 211.03C124.836 209.498 124.823 207.69 125.473 206.148C127.175 216.115 128.878 226.082 130.58 236.049C133.561 233.994 133.103 229.534 132.311 226.001C130.308 217.057 128.304 208.113 126.301 199.168C125.489 200.656 124.678 202.144 123.867 203.632C123.469 201.775 124.584 199.852 126.13 198.748C127.676 197.643 129.582 197.191 131.44 196.792C137.152 195.567 142.925 194.632 148.732 193.991C147.045 182.087 145.357 170.184 143.67 158.281C133.296 161.13 122.31 160.234 111.591 159.315C108.416 159.043 104.381 157.974 104.078 154.802C103.317 146.828 102.556 138.854 101.795 130.88C101.696 129.841 101.094 128.44 100.102 128.768C97.6653 129.572 96.2161 126.101 96.0166 123.542C95.391 115.518 94.7653 107.493 94.1396 99.4683C94.0576 98.4159 94.0363 97.2012 94.8211 96.4953C95.3705 96.0011 96.162 95.9105 96.898 95.8432C102.149 95.3632 107.399 94.8831 112.65 94.403C115.649 94.1288 119.054 93.9871 121.236 96.062C122.776 97.5265 123.293 99.747 123.618 101.847C124.217 105.718 124.415 109.65 124.209 113.561C123.793 109.738 123.377 105.915 122.961 102.092C122.773 100.372 122.545 98.5478 121.458 97.2013C119.603 94.9031 116.153 94.9417 113.209 95.1839C107.951 95.6165 102.694 96.0491 97.4358 96.4817C96.7277 96.54 95.9603 96.6237 95.4456 97.1135C94.776 97.7506 94.7949 98.8053 94.8618 99.7271C95.4252 107.482 95.9885 115.237 96.5519 122.993C96.6582 124.456 96.8029 126.021 97.7283 127.16C98.6537 128.299 100.661 128.657 101.526 127.471C100.341 124.867 101.98 121.678 104.405 120.161C106.831 118.643 109.807 118.376 112.659 118.148C117.577 117.756 122.496 117.364 127.414 116.971C127.077 106.791 125.979 96.6363 124.133 86.6193C122.432 86.1435 120.883 85.1381 119.755 83.778C118.912 85.9508 116.4 87.3317 114.113 86.879C111.827 86.4264 110.03 84.1924 110.078 81.8622C109.807 84.5438 107.471 86.8698 104.788 87.1292C102.105 87.3886 99.3667 85.5533 98.5868 82.9732C97.3021 84.4061 95.635 85.6408 93.7184 85.8152C91.8018 85.9897 89.6818 84.7794 89.3702 82.8803C86.8532 86.1457 81.0035 85.8143 78.8713 82.2857C76.6782 85.905 70.4348 85.8161 68.3457 82.1357C67.4076 85.5382 62.1711 85.8105 59.6576 83.3328C57.144 80.8551 56.6547 77.0383 56.3049 73.5262C52.1559 77.5239 51.4074 83.946 52.1949 89.6535C52.9824 95.361 55.0344 100.859 55.5322 106.599C56.6689 106.885 57.9156 106.704 58.9247 106.108C57.8348 102.814 57.1181 98.3895 60.0767 96.5778C61.2634 95.8511 62.732 95.8139 64.1235 95.7978C70.754 95.721 77.3845 95.6442 84.015 95.5675M149.699 150.996C158.397 150.564 167.369 151.698 175.635 148.956C176.914 148.532 178.224 147.973 179.048 146.907C176.937 145.937 174.694 144.264 174.746 141.94C174.78 140.415 175.837 139.096 177.028 138.142C178.279 137.14 179.734 136.397 181.278 135.97C181.404 135.588 180.732 135.505 180.399 135.731C180.066 135.957 179.561 136.236 179.339 135.901C179.28 135.81 179.268 135.698 179.257 135.591C178.427 127.148 177.198 118.745 175.574 110.418C175.086 107.915 174.361 105.126 172.154 103.847C170.963 103.156 169.535 103.04 168.161 102.945C157.818 102.229 147.456 101.791 137.09 101.631C134.64 101.593 131.9 101.684 130.182 103.431C128.879 104.757 128.506 106.726 128.368 108.579C127.941 114.319 129.17 120.032 129.97 125.731C130.927 132.559 131.272 139.455 131.904 146.321C131.988 147.234 132.09 148.186 132.584 148.959C133.431 150.284 135.151 150.7 136.709 150.918C139.01 151.241 141.337 151.377 143.66 151.326C145.676 151.281 147.685 151.096 149.699 150.996M78.3181 106.709C75.3737 105.415 72.0013 105.762 68.8065 106.133C63.9738 106.694 59.1411 107.255 54.3084 107.816C51.9857 108.085 49.6606 108.356 47.3628 108.789C46.8088 108.893 46.2529 109.008 45.7303 109.22C43.6821 110.047 42.461 112.256 42.1769 114.447C41.8928 116.637 42.3797 118.846 42.8465 121.005C44.2973 127.716 45.584 134.489 45.933 141.346C46.0021 142.704 46.0368 144.079 46.4098 145.386C46.7829 146.693 47.5448 147.95 48.7359 148.605C49.6521 149.109 50.7285 149.213 51.7718 149.282C61.3347 149.91 70.8924 148.368 80.3518 146.831C81.6977 146.612 83.1137 146.363 84.1628 145.492C85.7832 144.147 86.0253 141.781 86.0136 139.675C85.9921 135.786 85.5212 131.899 84.6134 128.117C83.5516 123.694 81.8844 119.343 81.8403 114.795C81.8208 112.789 82.0842 110.627 81.0374 108.915C80.4189 107.904 79.4034 107.186 78.3181 106.709M32.8133 190.934C34.0988 200.171 34.5307 209.526 34.1017 218.842C34.079 219.333 34.6757 219.583 35.1586 219.675C41.3425 220.857 47.7109 219.342 53.7116 217.437C57.1227 216.354 60.5364 215.12 63.4865 213.093C64.8361 212.166 66.2017 210.77 65.9493 209.152C64.3281 198.76 63.4364 188.253 63.283 177.736C57.823 182.002 50.8944 183.813 44.1792 185.521C40.9965 186.331 37.7706 187.146 34.4867 187.118C33.6928 187.112 33.0337 187.809 32.8118 188.571C32.59 189.334 32.7038 190.148 32.8133 190.934M158.315 195.603C148.088 194.607 137.655 195.777 127.902 199.012C128.487 203.467 129.287 207.894 130.298 212.272C130.703 214.025 131.142 215.77 131.58 217.515C132.434 220.913 133.288 224.311 134.142 227.709C134.261 228.182 134.41 228.699 134.818 228.967C135.182 229.206 135.653 229.178 136.087 229.142C146.186 228.3 156.279 227.388 166.365 226.405C164.16 216.576 161.955 206.747 159.75 196.918C159.665 196.541 159.563 196.134 159.263 195.89C159.003 195.679 158.649 195.636 158.315 195.603M143.239 152.457C141.013 152.57 138.755 152.681 136.582 152.187C134.409 151.693 132.294 150.509 131.178 148.58C130.538 149.317 129.264 149.372 128.562 148.694C127.86 148.015 127.873 146.74 128.588 146.075C125.761 146.101 122.934 146.126 120.107 146.152C121.399 146.913 121.293 149.157 119.957 149.838C118.622 150.52 116.773 149.369 116.742 147.87C116.728 147.197 117.141 146.441 117.811 146.381C117.533 145.904 116.812 146.186 116.263 146.134C115.435 146.056 114.983 145.155 114.693 144.376C113.516 141.218 112.445 138.022 111.374 134.826C112.124 136.054 113.813 136.606 115.143 136.058C115.612 135.865 115.627 135.19 115.427 134.723C115.077 133.907 114.281 133.278 113.397 133.209C112.513 133.14 111.592 133.68 111.293 134.515C110.85 134.184 111.039 133.417 111.504 133.117C111.969 132.817 112.565 132.844 113.117 132.877C118.331 133.192 123.565 133.187 128.779 132.862C129.016 132.847 129.278 132.821 129.44 132.646C129.622 132.449 129.605 132.145 129.576 131.878C129.376 130.044 129.177 128.21 128.978 126.376C128.956 126.173 128.924 125.95 128.772 125.813C128.605 125.663 128.353 125.669 128.128 125.685C121.592 126.151 115.074 126.855 108.589 127.794C107.899 127.894 107.257 127.315 107.039 126.652C106.821 125.99 106.922 125.27 107.025 124.58C107.061 124.338 107.107 124.076 107.286 123.909C107.451 123.756 107.691 123.72 107.914 123.691C114.661 122.83 121.451 122.313 128.25 122.144C128.085 122.816 127.209 122.96 126.517 122.973C120.207 123.084 113.904 123.59 107.657 124.486C107.158 125.339 107.842 126.488 108.763 126.847C109.683 127.206 110.715 127.014 111.686 126.831C117.039 125.824 122.469 125.23 127.913 125.057C128.69 125.032 128.783 123.914 128.62 123.154C128.24 121.388 127.861 119.623 127.482 117.857C123.712 118.571 119.861 118.856 116.027 118.704C113.758 118.615 111.502 119.011 109.266 119.406C107.366 119.742 105.341 120.14 103.968 121.495C102.363 123.08 102.075 125.557 102.173 127.81C102.333 131.507 103.271 135.123 103.734 138.794C104.3 143.28 104.154 147.826 104.588 152.326C104.705 153.539 104.872 154.774 105.416 155.864C105.959 156.954 106.948 157.89 108.152 158.069C118.051 159.545 128.145 159.713 138.088 158.566C139.006 158.46 139.933 158.341 140.8 158.02C142.168 157.514 143.342 156.499 144.04 155.218C144.32 154.704 144.529 154.116 144.427 153.539C144.325 152.962 143.824 152.427 143.239 152.457M64.0988 177.745C65.1348 189.143 66.1708 200.54 67.2068 211.938C67.393 213.987 67.5722 216.103 66.9319 218.058C66.2916 220.013 64.6072 221.78 62.5512 221.847C63.7582 223.612 65.8415 224.622 67.948 224.992C70.0545 225.361 72.2142 225.166 74.3438 224.969C91.8909 223.348 109.438 221.726 126.985 220.105C126.608 217.912 126.232 215.72 125.855 213.527C125.771 213.035 125.529 212.411 125.031 212.448C112.966 213.347 100.902 214.246 88.8371 215.145C83.8828 215.514 78.9044 215.884 73.953 215.478C71.4475 215.274 68.3531 214.278 68.1059 211.776C66.128 191.761 63.8382 171.776 61.2375 151.831C61.1975 151.525 61.1479 151.197 60.9381 150.969C60.6582 150.665 60.1947 150.642 59.7817 150.64C57.3147 150.628 54.8476 150.615 52.3806 150.603C53.1011 154.69 54.0364 158.739 55.1813 162.728C55.3929 163.466 55.7448 164.326 56.5002 164.459C59.2129 164.935 61.3538 167.167 62.4699 169.685C63.5859 172.203 63.8495 175.002 64.0988 177.745M54.6203 106.8C52.5028 96.0595 50.7112 85.2553 49.2488 74.4067C49.1661 73.7932 49.0861 73.1569 49.2666 72.5648C49.6388 71.3442 50.9738 70.7045 52.2154 70.41C54.6428 69.8342 57.1776 70.0263 59.6656 70.2098C82.4123 71.887 105.233 72.5582 128.039 72.2206C127.132 70.3808 125.308 69.126 123.368 68.4606C121.428 67.7952 119.354 67.6475 117.308 67.5061C97.2326 66.1187 77.127 64.8186 57.0051 65.0609C54.5433 65.0905 52.0527 65.1472 49.6756 65.7883C47.2985 66.4293 45.0115 67.7204 43.6401 69.7651C41.4791 72.9871 42.0017 77.2432 42.6706 81.0647C44.237 90.014 46.1427 98.9039 48.3821 107.709C50.4615 107.406 52.5409 107.103 54.6203 106.8M103.598 85.8084C104.685 85.8197 105.815 85.7588 106.777 85.2524C108.471 84.3606 109.223 82.3061 109.335 80.3949C109.447 78.4838 109.07 76.5683 109.191 74.6577C109.219 74.2222 109.462 73.6451 109.885 73.7544C110.191 75.9538 110.497 78.1533 110.802 80.3527C110.971 81.567 111.147 82.804 111.679 83.9085C112.211 85.013 113.167 85.9839 114.371 86.2152C115.063 86.3481 115.785 86.229 116.444 85.9813C118.022 85.3881 119.344 83.8779 119.284 82.1932C119.202 79.8672 119.119 77.5411 119.036 75.2151C119.003 74.2948 118.661 73.0687 117.742 73.1169C111.611 73.4381 105.462 73.4097 99.3343 73.0319C98.8875 73.0044 98.7697 73.6375 98.817 74.0826C99.0622 76.3897 99.3075 78.6969 99.5527 81.004C99.7379 82.7459 100.133 84.7934 101.732 85.5102C102.311 85.77 102.964 85.8017 103.598 85.8084M135.042 230.582C134.748 230.787 134.554 231.104 134.376 231.415C133.446 233.034 132.699 234.757 132.153 236.542C142.884 235.792 153.607 234.921 164.319 233.929C164.722 233.891 165.159 233.839 165.448 233.556C165.635 233.372 165.731 233.117 165.822 232.871C166.223 231.781 166.624 230.692 167.025 229.603C167.22 229.073 167.393 228.414 167.012 227.997C166.695 227.651 166.156 227.662 165.688 227.699C155.894 228.484 146.105 229.329 136.322 230.234C135.876 230.275 135.408 230.325 135.042 230.582M153.96 164.463C153.67 161.077 153.078 157.277 150.315 155.299C149.237 158.268 148.149 161.282 147.902 164.432C147.655 167.581 148.351 170.937 150.464 173.286C150.761 173.616 151.091 173.936 151.248 174.351C151.405 174.766 151.326 175.314 150.94 175.534C148.069 173.036 146.88 169.029 146.947 165.223C147.015 161.418 148.181 157.728 149.337 154.102C149.591 153.305 148.864 152.467 148.049 152.281C147.234 152.095 146.392 152.368 145.6 152.637C145.446 152.689 145.378 152.865 145.329 153.02C144.782 154.765 144.229 156.614 144.653 158.393C146.48 166.056 146.244 174.098 148.104 181.753C148.173 182.036 148.247 182.324 148.412 182.564C149.645 180.153 150.878 177.741 152.112 175.33C152.691 174.197 153.274 173.055 153.636 171.835C154.339 169.462 154.171 166.929 153.96 164.463M197.589 108.842C197.828 109.038 198.147 109.1 198.454 109.134C201.942 109.524 205.233 107.15 207.165 104.22C209.096 101.29 210.008 97.8282 211.275 94.555C212.463 91.4831 213.983 88.5396 215.799 85.7921C212.162 89.2049 207.685 91.5946 203.889 94.8291C200.092 98.0636 196.862 102.6 197.129 107.58C197.154 108.041 197.234 108.548 197.589 108.842M57.9052 75.839C58.401 78.0122 58.1961 80.4273 59.4001 82.3032C60.5674 84.1219 63.0297 84.9886 65.0787 84.3021C67.1278 83.6156 68.5709 81.4405 68.407 79.2857C68.3698 78.796 68.2593 78.3153 68.1491 77.8367C67.7174 75.9616 67.2856 74.0866 66.8539 72.2116C66.811 72.0251 66.763 71.8289 66.6307 71.6905C66.441 71.4922 66.1373 71.469 65.8631 71.4585C63.2256 71.3576 60.5882 71.2566 57.9507 71.1556C57.697 71.1459 57.4185 71.144 57.2213 71.3039C56.9717 71.5063 56.9574 71.8781 56.9899 72.1977C57.1164 73.4445 57.6265 74.6172 57.9052 75.839M129.299 77.8661C129.362 80.8681 131.318 83.4785 133.38 85.6605C133.582 85.8735 133.788 86.0875 134.04 86.2379C134.447 86.4812 134.942 86.5388 135.415 86.4982C137.008 86.3613 138.371 85.1564 139.044 83.7054C139.716 82.2545 139.792 80.5946 139.647 79.002C139.502 77.4093 139.15 75.8409 139.008 74.2479C138.979 73.9285 138.862 73.5114 138.541 73.5126C135.721 73.5234 132.902 73.5342 130.082 73.545C129.721 73.5464 129.339 73.5538 129.034 73.7468C128.73 73.9399 128.56 74.3908 128.786 74.6719C129.476 75.5307 129.276 76.7645 129.299 77.8661M172.178 170.724C164.452 170.589 157.37 175.168 151.967 180.691C151.056 181.622 150.167 182.598 149.561 183.751C149.453 183.955 149.369 184.239 149.545 184.388C149.638 184.467 149.772 184.472 149.894 184.472C154.389 184.456 158.711 182.557 162.363 179.937C166.015 177.317 169.091 173.991 172.178 170.724M76.587 83.7569C77.6906 83.1216 78.4008 81.8566 78.3687 80.5837C78.3524 79.938 78.1616 79.3116 78.0082 78.6842C77.6134 77.0701 77.4599 75.3971 77.5544 73.738C77.5746 73.3847 77.6048 73.0216 77.4986 72.684C77.3924 72.3464 77.1105 72.0359 76.7571 72.0166C73.8378 71.8572 70.9185 71.6978 67.9992 71.5384C67.8942 71.5327 67.7797 71.5296 67.6949 71.5918C67.5635 71.6882 67.5709 71.8837 67.5952 72.0448C67.9545 74.4204 69.104 76.6581 69.1778 79.0596C69.2049 79.9432 69.0868 80.8488 69.3342 81.6975C69.6511 82.7844 70.5563 83.6423 71.6065 84.0652C72.6567 84.4881 73.8351 84.5121 74.9493 84.3111C75.5193 84.2083 76.0851 84.0459 76.587 83.7569M193.399 116.28C195.513 116.876 197.382 118.123 199.433 118.91C203.98 120.654 209.393 119.926 213.317 117.042C215.002 115.804 216.687 114.566 218.372 113.327C216.318 113.814 214.193 114 212.086 113.878C208.565 113.675 205.088 112.621 201.571 112.885C198.579 113.11 195.669 114.318 193.399 116.28M133.024 100.01C132.609 97.708 132.193 95.406 131.778 93.1041C131.221 90.0188 130.664 86.9335 130.107 83.8482C130.067 83.6293 130.019 83.3945 129.857 83.2423C129.695 83.0901 129.379 83.0897 129.29 83.2938C128.734 84.5777 127.595 85.5954 126.257 86.0042C125.445 86.2522 125.376 87.3601 125.47 88.2038C126.136 94.1563 126.924 100.095 127.834 106.015C128.098 103.594 130.173 101.491 132.591 101.194C133.061 101.137 133.109 100.476 133.024 100.01M88.6061 81.2864C88.3478 78.8047 88.0219 76.3301 87.6291 73.8662C87.5481 73.3581 87.3317 72.7246 86.8176 72.7021C84.1605 72.5855 81.5034 72.4689 78.8464 72.3524C78.7516 72.3482 78.6516 72.3452 78.5678 72.3896C78.3533 72.5033 78.3885 72.8161 78.4516 73.0505C79.0644 75.3256 79.3896 77.678 79.4171 80.034C79.4238 80.6138 79.4172 81.2158 79.6598 81.7424C80.0169 82.5173 80.8298 82.9619 81.6025 83.3239C82.9492 83.9548 84.4215 84.5095 85.8908 84.2804C87.3601 84.0513 88.76 82.7655 88.6061 81.2864M89.7551 81.3001C90.0231 82.5985 90.5143 84.109 91.7865 84.4823C92.86 84.7973 94.0207 84.8842 95.0976 84.5806C96.1745 84.2771 97.1564 83.5541 97.6382 82.5444C97.9812 81.8256 98.0586 81.0121 98.1033 80.217C98.2257 78.0388 98.1415 75.849 97.8522 73.6866C97.8367 73.5708 97.8196 73.4518 97.7611 73.3507C97.6059 73.0823 97.2406 73.0446 96.9307 73.0379C94.225 72.9789 91.5194 72.9199 88.8137 72.861C88.5927 72.8562 88.2841 73.0859 88.471 73.204C88.7738 75.9206 89.2024 78.6232 89.7551 81.3001M180.67 108.172C178.556 112.95 177.934 118.376 178.91 123.509C179.3 125.56 180.067 127.736 181.842 128.834C182.365 129.157 183.235 129.253 183.429 128.67C185.674 121.895 184.626 114.111 180.67 108.172M43.6723 168.168C44.5689 168.783 45.5796 169.232 46.6375 169.484C47.9742 169.802 49.3624 169.806 50.7362 169.839C53.9462 169.916 57.1522 170.162 60.3365 170.576C60.7808 170.633 61.148 170.152 61.1363 169.705C61.1245 169.257 60.8521 168.861 60.5698 168.513C58.8714 166.421 56.3913 164.979 53.7329 164.538C51.8497 164.226 49.9242 164.401 48.016 164.346C46.1079 164.291 44.1162 163.968 42.5946 162.816C42.514 163.912 42.5076 165.013 42.5753 166.11C42.6028 166.554 42.6476 167.015 42.8739 167.398C43.0636 167.719 43.3649 167.957 43.6723 168.168M120.903 83.028C121.203 83.5715 121.683 83.9902 122.176 84.3677C122.71 84.7768 123.286 85.1596 123.942 85.3098C125.556 85.6795 127.207 84.4835 127.887 82.9737C128.567 81.4639 128.498 79.7332 128.341 78.0847C128.222 76.8383 128.06 75.596 127.855 74.3609C127.821 74.1549 127.781 73.9396 127.652 73.7758C127.424 73.4885 127.009 73.4552 126.642 73.4454C124.675 73.3931 122.707 73.3408 120.739 73.2885C120.303 73.2769 119.684 73.4853 119.814 73.9015C120.393 75.7648 120.645 77.729 120.556 79.6782C120.504 80.8156 120.353 82.0309 120.903 83.028M190.546 117.623C192.635 114.251 193.261 110.006 192.232 106.175C191.323 102.788 189.21 99.7878 188.54 96.3454C186.979 101.083 185.407 106.184 186.819 110.968C187.543 113.42 189.005 115.583 190.546 117.623M155.933 170.668C162.147 169.068 167.883 165.656 172.255 160.959C173.563 159.553 174.902 158.177 176.271 156.831C172.918 157.29 169.644 158.327 166.638 159.882C162.052 162.255 158.027 165.949 155.933 170.668M193.792 129.423C196.077 127.275 198.363 125.127 200.648 122.979C192.919 123.964 185.701 128.43 181.37 134.907C182.487 135.767 184.088 135.261 185.39 134.722C187.202 133.973 189.028 133.216 190.641 132.102C191.776 131.317 192.786 130.368 193.792 129.423M43.4749 176.365C43.4941 176.564 43.5176 176.774 43.6378 176.933C43.9009 177.281 44.4372 177.195 44.8561 177.073C49.6522 175.672 54.3808 174.04 59.0205 172.185C59.355 172.051 59.7452 171.84 59.7518 171.48C56.1925 171.233 52.6332 170.986 49.0739 170.739C48.2034 170.679 47.3294 170.618 46.476 170.436C45.1921 170.162 43.968 169.611 42.9109 168.833C42.9883 171.35 43.2317 173.859 43.4749 176.365M155.911 152.283C155.624 152.49 155.508 152.856 155.409 153.196C155.07 154.364 154.73 155.603 155.044 156.777C155.205 157.375 155.526 157.916 155.844 158.448C156.724 159.918 157.604 161.388 158.484 162.859C158.566 162.996 158.654 163.139 158.796 163.214C159.216 163.434 159.63 162.916 159.825 162.483C161.092 159.675 162.386 156.705 162.099 153.638C162.055 153.167 161.927 152.631 161.506 152.415C161.312 152.316 161.087 152.303 160.87 152.292C159.566 152.228 158.261 152.163 156.957 152.098C156.596 152.08 156.204 152.071 155.911 152.283M175.846 141.886C175.812 143.863 177.537 145.515 179.428 146.091C181.319 146.666 183.349 146.418 185.315 146.207C188.771 145.836 192.426 145.53 195.267 143.528C195.898 143.083 196.494 142.535 196.775 141.817C197.214 140.697 196.773 139.374 195.947 138.499C195.121 137.623 193.976 137.123 192.83 136.756C188.735 135.445 184.188 135.596 180.189 137.176C178.08 138.009 175.884 139.618 175.846 141.886M43.1494 162.077C43.5217 162.424 44.2763 162.513 44.4214 162.025C44.9188 160.353 46.0369 158.919 47.354 157.775C48.6712 156.631 50.1898 155.748 51.6983 154.871C52.1052 154.635 52.0796 154.049 52.0009 153.585C51.8486 152.686 51.6963 151.788 51.544 150.889C51.5054 150.661 51.4292 150.39 51.2064 150.329C51.0241 150.279 50.8439 150.402 50.6949 150.519C49.6128 151.364 48.5306 152.209 47.4484 153.054C45.2801 154.747 42.9562 156.69 42.486 159.401C42.3222 160.345 42.4486 161.423 43.1494 162.077M51.5911 156.028C49.1607 157.545 46.5881 159.226 45.4836 161.87C45.4148 162.034 45.3514 162.207 45.3568 162.386C45.3675 162.737 45.6509 163.034 45.9759 163.169C46.3008 163.304 46.6628 163.31 47.0147 163.314C49.0953 163.339 51.1758 163.363 53.2564 163.388C53.3576 163.389 53.4674 163.388 53.5472 163.325C53.6735 163.227 53.6606 163.036 53.6356 162.878C53.3037 160.78 52.9718 158.683 52.6399 156.585C52.5927 156.287 52.4964 155.93 52.2053 155.849C51.9935 155.79 51.7776 155.911 51.5911 156.028M154.96 152.412C153.428 152.017 151.775 152.103 150.293 152.655C150.58 153.597 151.089 154.471 151.766 155.185C154.05 157.593 154.726 161.089 154.985 164.398C155.123 166.165 155.172 167.939 155.131 169.712C156.134 168.164 157.138 166.616 158.141 165.069C158.24 164.915 158.343 164.752 158.354 164.569C158.365 164.386 158.282 164.211 158.198 164.049C157.208 162.137 155.753 160.488 154.834 158.541C153.916 156.594 153.634 154.108 154.96 152.412M52.3272 71.4012C51.4822 71.5352 50.5188 71.7499 50.1175 72.5055C49.84 73.0278 49.9219 73.6598 50.0111 74.2445C50.3783 76.6525 50.7455 79.0606 51.1127 81.4686C52.9919 78.0895 54.7515 74.6455 56.5107 71.2023C56.1851 70.8342 55.6081 70.8807 55.1227 70.9577C54.1909 71.1056 53.259 71.2534 52.3272 71.4012M167.994 153.165C168.254 153.511 168.933 153.128 168.773 152.727C171.283 153.447 174.019 152.934 176.39 151.84C178.76 150.745 180.83 149.104 182.867 147.471C182.012 147.351 181.156 147.232 180.301 147.112C180.126 147.088 179.9 147.091 179.833 147.254C179.372 148.382 178.381 149.226 177.286 149.76C176.19 150.293 174.985 150.551 173.794 150.805C172.967 150.981 172.14 151.158 171.314 151.334C170.033 151.606 168.589 151.999 167.994 153.165M122.589 135.703C122.749 135.663 122.922 135.614 123.025 135.484C123.184 135.282 123.104 134.992 123.063 134.738C123.021 134.484 123.085 134.146 123.339 134.102C123.57 134.148 123.676 134.422 123.682 134.658C123.688 134.893 123.636 135.139 123.721 135.359C123.911 135.848 124.586 135.867 125.106 135.801C125.414 135.762 125.722 135.722 126.03 135.683C126.127 135.671 126.23 135.656 126.301 135.59C126.529 135.381 126.212 135.041 126.142 134.74C126.087 134.507 126.196 134.256 126.125 134.028C126.003 133.64 125.487 133.581 125.081 133.594C121.972 133.697 118.864 133.801 115.755 133.904C115.809 134.492 115.97 135.07 116.228 135.601C116.283 135.716 116.349 135.834 116.459 135.897C116.572 135.962 116.709 135.958 116.838 135.952C117.61 135.916 118.383 135.88 119.156 135.844C119.221 135.841 119.291 135.837 119.346 135.8C119.487 135.707 119.438 135.492 119.373 135.336C119.261 135.067 119.15 134.798 119.038 134.53C118.941 134.296 119.364 134.157 119.543 134.337C119.721 134.517 119.727 134.799 119.811 135.038C119.986 135.533 120.513 135.836 121.034 135.899C121.556 135.963 122.079 135.833 122.589 135.703M167.733 152.159C167.902 151.978 167.529 151.79 167.283 151.82C165.883 151.992 164.484 152.163 163.084 152.335C162.897 152.358 162.65 152.461 162.694 152.644C163.154 154.527 162.982 156.559 162.211 158.338C162.064 158.677 161.968 159.194 162.319 159.308C163.778 156.688 165.607 154.274 167.733 152.159M120.04 137.124C119.996 136.972 119.947 136.812 119.831 136.704C119.7 136.582 119.51 136.551 119.331 136.531C118.414 136.431 117.479 136.494 116.584 136.716C116.864 137.625 117.144 138.533 117.424 139.442C117.477 139.614 117.549 139.807 117.716 139.875C117.801 139.909 117.897 139.903 117.989 139.897C118.894 139.833 119.8 139.77 120.705 139.706C120.509 138.839 120.287 137.978 120.04 137.124M114.145 140.301C114.246 140.356 114.369 140.339 114.482 140.32C115.302 140.187 116.121 140.053 116.941 139.92C116.645 138.972 116.349 138.024 116.054 137.076C116.01 136.937 115.956 136.784 115.828 136.715C115.727 136.66 115.604 136.672 115.489 136.685C114.758 136.77 114.027 136.855 113.296 136.94C113.159 136.956 112.996 136.99 112.945 137.119C112.911 137.206 112.943 137.304 112.976 137.392C113.298 138.261 113.62 139.13 113.942 139.999C113.985 140.115 114.036 140.241 114.145 140.301M123.355 136.514C123.182 136.363 122.926 136.374 122.697 136.392C121.975 136.452 121.253 136.511 120.531 136.57C120.747 137.496 121.018 138.408 121.344 139.3C121.387 139.417 121.435 139.54 121.534 139.615C121.658 139.709 121.828 139.704 121.984 139.694C122.476 139.665 122.969 139.635 123.462 139.605C123.689 139.592 123.965 139.543 124.041 139.329C124.078 139.226 124.054 139.112 124.03 139.006C123.88 138.338 123.73 137.671 123.581 137.003C123.541 136.825 123.493 136.634 123.355 136.514M119.048 143.16C118.977 143.171 118.901 143.185 118.849 143.235C118.748 143.333 118.794 143.501 118.847 143.631C119.037 144.095 119.227 144.559 119.416 145.023C119.487 145.196 119.566 145.379 119.723 145.478C119.868 145.57 120.051 145.572 120.223 145.571C120.878 145.567 121.533 145.563 122.188 145.56C122.284 145.559 122.388 145.556 122.462 145.494C122.596 145.384 122.546 145.171 122.484 145.009C122.232 144.344 121.98 143.68 121.728 143.016C121.647 142.802 121.351 142.799 121.125 142.835C120.433 142.943 119.741 143.052 119.048 143.16M124.56 136.382C124.422 136.383 124.268 136.39 124.175 136.492C124.063 136.615 124.098 136.807 124.141 136.968C124.327 137.672 124.513 138.376 124.699 139.08C124.732 139.204 124.77 139.336 124.87 139.417C125.002 139.525 125.192 139.505 125.361 139.479C125.982 139.384 126.603 139.289 127.224 139.194C127.157 138.474 127.043 137.757 126.881 137.052C126.831 136.831 126.761 136.59 126.57 136.469C126.427 136.378 126.247 136.376 126.078 136.377C125.572 136.379 125.066 136.38 124.56 136.382M125.824 145.477C125.623 144.746 125.422 144.015 125.22 143.284C125.144 143.005 125.035 142.689 124.765 142.583C124.632 142.532 124.484 142.543 124.342 142.555C123.679 142.613 123.016 142.671 122.353 142.728C122.528 143.383 122.735 144.029 122.973 144.663C123.093 144.983 123.275 145.345 123.611 145.399C124.342 145.517 125.087 145.544 125.824 145.477M126.978 145.426C127.578 145.475 128.238 145.508 128.723 145.151C128.513 144.333 128.302 143.514 128.092 142.695C128.044 142.511 127.981 142.306 127.812 142.218C127.688 142.153 127.539 142.171 127.401 142.19C126.805 142.273 126.21 142.356 125.615 142.439C125.757 143.306 125.997 144.156 126.329 144.969C126.38 145.093 126.438 145.223 126.545 145.305C126.665 145.398 126.826 145.414 126.978 145.426M180.507 133.771C180.966 132.83 181.425 131.888 181.883 130.946C181.932 130.847 181.981 130.74 181.964 130.632C181.946 130.526 181.869 130.441 181.796 130.363C181.143 129.673 180.49 128.982 179.836 128.292C179.565 128.662 179.596 129.166 179.64 129.624C179.782 131.125 179.924 132.626 180.066 134.127C180.266 134.172 180.417 133.955 180.507 133.771M127.638 136.273C127.552 136.268 127.454 136.266 127.394 136.327C127.327 136.397 127.342 136.508 127.362 136.603C127.491 137.226 127.62 137.849 127.749 138.473C127.797 138.704 127.854 138.951 128.028 139.11C128.592 139.624 129.679 138.739 130.203 139.294C130.296 138.409 130.229 137.508 130.009 136.646C129.993 136.585 129.975 136.521 129.928 136.479C129.875 136.431 129.797 136.424 129.725 136.419C129.029 136.37 128.333 136.322 127.638 136.273M114.66 140.896C114.585 140.907 114.507 140.918 114.445 140.962C114.307 141.059 114.313 141.261 114.333 141.428C114.385 141.874 114.443 142.336 114.676 142.719C114.909 143.103 115.37 143.387 115.804 143.271C116.425 143.104 117.046 142.937 117.667 142.771C117.64 142.177 117.52 141.588 117.312 141.031C117.261 140.892 117.195 140.745 117.068 140.67C116.935 140.592 116.769 140.61 116.617 140.631C115.965 140.719 115.312 140.808 114.66 140.896M129.15 135.687C129.337 135.658 129.536 135.624 129.675 135.496C130.089 135.114 129.616 134.337 129.951 133.884C130.082 133.707 129.761 133.549 129.542 133.559C128.56 133.6 127.579 133.642 126.598 133.683C126.636 134.089 126.706 134.492 126.808 134.887C126.922 135.326 127.351 135.628 127.795 135.725C128.239 135.823 128.7 135.755 129.15 135.687M121.218 140.972C121.092 140.365 120.279 140.223 119.67 140.337C119.06 140.451 118.379 140.671 117.861 140.33C117.894 140.971 118.044 141.606 118.301 142.194C118.355 142.317 118.42 142.446 118.538 142.512C118.67 142.587 118.834 142.563 118.984 142.537C119.584 142.434 120.185 142.33 120.786 142.226C121.084 142.175 121.477 141.939 121.32 141.681C121.195 141.474 121.267 141.208 121.218 140.972M117.506 143.464C117.015 143.547 116.524 143.631 116.033 143.714C115.768 143.759 115.44 143.865 115.412 144.133C115.34 144.811 116.015 145.358 116.683 145.493C117.351 145.628 118.045 145.496 118.723 145.563C118.695 144.987 118.574 144.415 118.367 143.877C118.318 143.749 118.259 143.616 118.151 143.533C117.974 143.397 117.726 143.427 117.506 143.464M130.445 142.149C129.793 142.08 129.131 142.115 128.49 142.251C128.844 143.095 129.096 143.981 129.237 144.885C129.302 145.299 129.894 145.307 130.3 145.204C130.452 145.165 130.617 145.117 130.704 144.987C130.778 144.874 130.775 144.729 130.768 144.595C130.733 143.85 130.699 143.106 130.664 142.362C130.662 142.315 130.658 142.265 130.631 142.227C130.592 142.17 130.514 142.157 130.445 142.149M119.806 148.816C120.421 148.203 120.106 146.965 119.273 146.72C118.44 146.475 117.505 147.345 117.69 148.193C117.88 149.07 119.171 149.45 119.806 148.816M124.635 141.628C125.026 141.118 124.441 140.365 123.808 140.254C123.175 140.143 122.533 140.386 121.891 140.377C121.654 140.373 121.644 140.729 121.721 140.953C121.821 141.243 121.92 141.532 122.02 141.822C122.06 141.941 122.134 142.083 122.259 142.075C122.717 142.046 123.175 142.018 123.634 141.989C123.999 141.966 124.412 141.919 124.635 141.628M130.968 146.553C130.921 146.425 130.851 146.3 130.74 146.22C130.641 146.147 130.518 146.117 130.396 146.102C129.434 145.986 128.501 146.945 128.643 147.904C129.052 148.39 129.823 148.524 130.373 148.205C130.922 147.886 131.188 147.15 130.968 146.553M125.032 140.761C125.011 141.182 125.382 141.542 125.788 141.656C126.194 141.769 126.626 141.696 127.042 141.622C127.254 141.584 127.493 141.529 127.604 141.344C127.841 140.949 127.37 140.225 127.805 140.074C127.513 140.034 127.221 139.994 126.929 139.954C126.544 139.901 126.145 139.849 125.771 139.955C125.397 140.062 125.052 140.372 125.032 140.761M128.522 141.3C128.964 141.684 129.704 141.631 130.115 141.213C130.526 140.796 130.58 140.088 130.27 139.59C129.496 139.734 128.722 139.877 127.947 140.021C128.045 140.487 128.162 140.987 128.522 141.3M188.339 133.901C187.736 134.124 187.134 134.348 186.531 134.571C186.231 134.682 185.928 134.795 185.668 134.981C186.654 135.366 187.898 134.863 188.339 133.901M132.309 86.0576C132.293 85.7913 132.012 85.5738 131.75 85.6257C131.767 85.8967 132.037 86.1245 132.307 86.0954L132.309 86.0576Z" fill="#00160A"/>
</svg>
