<svg width="257" height="257" viewBox="0 0 257 257" fill="none" xmlns="http://www.w3.org/2000/svg">
<path d="M216.348 184.579C214.473 211.855 192.168 236.214 165.261 241.068C138.355 245.922 109.256 231.257 96.6093 207.017C95.2136 204.342 93.9781 201.54 92.7427 198.739C89.5533 191.506 86.3649 184.277 80.4257 179.237C73.6445 173.482 64.8231 171.821 55.913 170.143C50.255 169.077 44.5612 168.005 39.3312 165.874C26.7233 160.736 17.0704 148.915 14.5553 135.535C10.4795 113.852 24.9664 92.0395 43.9736 80.8375C62.9808 69.6355 85.6351 66.8181 107.598 64.7258C116 63.9253 122.921 57.725 127.906 50.9147C129.836 48.2782 131.58 45.5028 133.322 42.7295C136.079 38.3392 138.834 33.9539 142.32 30.1328C157.082 13.9528 184.086 11.6496 202.318 23.7866C220.55 35.9236 228.952 60.3739 223.677 81.6313C222.768 85.2926 221.507 88.8511 220.246 92.4099C219.039 95.8165 217.831 99.2238 216.933 102.721C215.013 110.197 214.536 117.959 214.198 125.67C213.795 134.864 213.577 144.085 214.279 153.26C214.523 156.452 214.878 159.642 215.233 162.831C216.04 170.078 216.847 177.321 216.348 184.579Z" fill="#184A88"/>
<path d="M107.681 58.2047C117.794 53.3918 125.924 44.8688 131.124 34.9493C131.806 33.6487 132.454 32.2654 132.457 30.797C132.459 29.3285 131.632 27.7587 130.219 27.3611C128.193 26.7913 126.409 28.7121 125.11 30.3683C116.191 41.7453 103.344 50.5749 88.9914 52.2993C83.4789 52.9615 77.9005 52.5795 72.3616 52.1967L63.7101 51.5987C56.7419 51.1171 49.6768 50.641 42.8243 51.9938C35.9718 53.3465 29.2394 56.7697 25.3873 62.5961C24.1611 64.4507 23.2287 66.6451 23.5206 68.8491C23.8197 71.1077 25.3877 73.0476 27.2953 74.2931C29.203 75.5387 31.4333 76.184 33.6452 76.73C35.2647 77.1298 36.9196 77.4877 38.5854 77.3996C41.3087 77.2555 43.8007 75.9459 46.2253 74.6717C46.3869 74.5869 46.5481 74.5021 46.709 74.4179C50.9466 72.201 55.3317 70.243 59.8947 68.811C66.5488 66.7226 73.524 65.7654 80.4819 64.8106C89.8555 63.5243 99.1978 62.2423 107.681 58.2047Z" fill="#184A88"/>
<path d="M53.229 190.17L53.2349 190.17C53.6432 190.194 54.0513 190.217 54.4583 190.245C60.8948 190.693 67.2427 192.383 73.0492 195.196C75.263 196.269 77.501 197.602 78.7176 199.74C80.223 202.386 82.0424 204.852 84.1255 207.072C84.9337 207.933 85.8103 208.776 86.9014 209.228C87.9924 209.68 89.3497 209.664 90.2545 208.905C91.3539 207.983 91.4532 206.314 91.1438 204.914C90.6367 202.618 89.3076 200.602 87.9913 198.654C83.6717 192.262 79.1182 185.868 73.0348 181.124C66.9513 176.38 59.045 173.434 51.4719 174.904C48.857 175.412 46.2553 176.494 44.4927 178.491C42.7301 180.488 41.9944 183.527 43.1974 185.904C44.1517 187.789 46.1324 188.974 48.1717 189.527C49.8153 189.973 51.5242 190.072 53.229 190.17Z" fill="#184A88"/>
<path d="M229.143 98.2302C227.433 97.5508 225.468 98.3011 223.991 99.3994C221.073 101.569 219.31 105.011 218.473 108.549C217.636 112.088 217.634 115.763 217.637 119.399L217.662 150.639C217.664 152.921 217.723 155.382 219.095 157.206C219.524 157.777 220.116 158.281 220.825 158.366C221.685 158.469 222.491 157.939 223.123 157.348C226.581 154.115 227.118 148.936 227.607 144.216L227.625 144.045C228.344 137.116 229.5 130.233 231.084 123.449C231.529 121.542 232.015 119.622 232.908 117.879C235.706 112.412 235.181 105.401 231.602 100.411C230.954 99.5084 230.176 98.6402 229.143 98.2302Z" fill="#184A88"/>
<path d="M166.717 139.428C168.525 139.96 170.127 141.501 170.272 143.381C170.63 142.641 171.396 142.114 172.216 142.047L171.006 143.288L172.509 143.344L170.421 144.463C171.661 146.856 171.403 149.777 170.536 152.329C170.006 153.891 169.251 155.453 169.364 157.099C169.476 158.718 170.883 160.394 172.457 160.091L172.536 160.074C174.431 159.63 176.491 159.942 178.169 160.926C180.58 162.34 182.013 164.914 183.648 167.181C185.091 169.183 186.807 171.051 188.973 172.234C191.139 173.417 193.812 173.841 196.106 172.931C197.244 172.479 198.269 171.716 199.472 171.488C200.675 171.261 201.892 171.948 202.312 173.092C202.498 173.598 202.047 175.453 200.942 177.609C201.117 177.563 201.299 177.533 201.489 177.524C207.103 177.258 212.783 176.138 217.659 173.343C219.209 172.454 220.661 171.407 222.102 170.35L222.942 169.733L223.451 169.355C226.615 166.991 229.743 164.349 231.091 160.693L231.162 160.497L231.311 160.064C231.6 159.246 231.963 158.402 232.762 158.16C233.868 157.825 234.851 158.907 235.503 159.861L240.201 166.735C240.322 166.912 240.445 167.094 240.488 167.304C240.681 168.23 239.296 168.672 238.414 168.329C236.81 167.705 235.546 165.908 233.847 166.183C232.653 166.376 231.921 167.516 231.314 168.592L231.161 168.866C227.48 175.477 221.389 180.711 214.3 183.356C212.472 184.037 210.587 184.551 208.706 185.064L204.904 186.1L205.568 186.23C211.195 187.318 217.206 188.027 222.375 185.615C225.817 184.01 228.496 181.189 231.026 178.335L231.944 177.293L232.323 176.858C233.877 175.058 235.357 173.129 235.842 170.823C236.028 169.937 237.156 169.533 238.025 169.789C238.893 170.045 239.545 170.746 240.151 171.418L244.746 176.511C245.108 176.913 245.488 177.355 245.533 177.894C245.578 178.432 245.085 179.032 244.569 178.873L239.517 177.309C239.043 177.163 238.518 177.018 238.066 177.222C237.72 177.379 237.492 177.708 237.29 178.033L231.671 187.156C230.088 189.725 227.214 191.18 224.395 192.257C217.636 194.839 210.331 195.981 203.106 195.583C202.322 195.54 201.536 195.479 200.762 195.343C197.854 194.832 195.246 193.304 192.722 191.759C193.141 193.402 192.719 194.775 190.061 194.833C187.707 194.885 182.115 185.1 180.332 184.567C170.6 181.654 169.088 176.212 166.011 172.46C166.011 172.46 159.647 173.17 155.47 172.223C145.679 170.003 139.185 163.586 136.812 163.143C134.438 162.7 132.841 164.199 132.122 163.26L132.134 162.59C132.251 162.407 133.407 161.364 136.641 162.111C141.156 163.154 148.337 166.92 153.857 167.696C159.653 168.511 164.589 167.652 164.564 167.493C164.515 167.169 165.999 165.82 164.844 165.106C163.69 164.392 146.876 157.301 143.294 151.573L143.251 151.502C142.637 150.44 142.201 147.822 143.454 149.039L143.821 148.413C145.17 149.73 149.62 152.764 154.245 155.759C159.135 158.925 166.082 161.02 166.212 160.935C169.09 159.061 166.591 157.624 166.127 157.206C165.042 156.23 163.587 155.682 162.657 154.557C160.425 151.857 162.135 147.128 159.572 144.741C159.184 144.38 158.711 144.093 158.433 143.641C157.957 142.868 158.216 141.808 158.821 141.13C159.425 140.452 160.298 140.083 161.161 139.799C162.951 139.208 164.908 138.895 166.717 139.428Z" fill="white"/>
<ellipse cx="168.006" cy="153.055" rx="0.671776" ry="0.671768" transform="rotate(0.998226 168.006 153.055)" fill="#FFB61D"/>
<ellipse cx="163.91" cy="152.983" rx="0.498207" ry="0.671753" transform="rotate(0.998226 163.91 152.983)" fill="#FFB61D"/>
<path d="M139.504 155.815C133.286 154.091 126.727 153.604 120.321 154.391C120.846 152.011 121.493 149.658 122.257 147.344C120.166 147.979 117.745 146.031 117.917 143.853C118.09 141.675 120.788 140.132 122.752 141.088C123.46 139.529 123.535 137.694 122.957 136.084C122.68 135.311 123.846 134.888 124.667 134.902L129.203 134.98C129.837 134.991 130.727 134.712 130.58 134.095C130.232 132.632 131.262 130.985 132.73 130.659C134.171 130.338 135.77 131.349 136.116 132.78L136.134 132.86C136.452 134.396 138.381 134.915 139.949 134.912L140.729 134.907C142.086 134.902 143.498 134.971 144.389 135.935C145.455 137.088 145.18 138.89 144.796 140.424L144.77 140.526C144.226 142.654 143.649 144.774 143.038 146.885C143.996 155.872 141.228 156.293 139.504 155.815Z" fill="white"/>
<path d="M87.5317 147.42C86.9445 143.099 87.0223 138.688 87.7615 134.39L87.7987 134.182C87.9805 133.206 88.2878 132.179 89.1145 131.654C89.7333 131.262 90.5066 131.245 91.2435 131.257L96.8855 131.371C97.1424 131.376 97.4236 131.391 97.6138 131.564C97.8039 131.736 97.7919 132.125 97.5432 132.189C96.9493 132.343 96.5978 133.018 96.6589 133.629C96.72 134.239 97.1068 134.773 97.5649 135.181C98.6574 136.154 100.375 136.522 101.617 135.749C102.858 134.975 103.183 132.933 102.035 132.026C104.671 132.018 107.308 132.073 109.942 132.189L110.93 132.235C111.249 132.251 111.601 132.283 111.821 132.515C111.985 132.69 112.036 132.94 112.07 133.178C112.33 135.007 111.977 136.918 111.082 138.535C110.939 138.792 110.614 139.073 110.4 138.871C109.488 138.014 107.929 138.102 106.968 138.902C106.006 139.701 105.616 141.051 105.762 142.293C105.902 143.488 106.749 144.777 107.953 144.738C108.9 144.707 109.967 143.898 110.672 144.532L109.373 149.897C109.142 150.85 108.738 151.978 107.776 152.166C102.22 153.254 96.4191 153.063 90.9473 151.613L90.682 151.541C90.0181 151.355 89.3577 151.118 88.8451 150.663C87.9529 149.872 87.6922 148.602 87.5317 147.42Z" fill="white"/>
<path d="M131.689 105.915L145.059 106.417V106.417L145.277 106.426C145.679 106.446 146.083 106.488 146.441 106.663C147.252 107.059 147.611 108.006 147.844 108.878C149.091 113.531 148.839 118.572 147.135 123.077L147.064 123.262C146.843 123.816 146.556 124.367 146.052 124.672C145.636 124.924 145.134 124.969 144.646 124.986L144.542 124.99C142.552 125.05 140.557 124.964 138.579 124.734C139.622 124.117 139.909 122.575 139.272 121.544C138.634 120.513 137.257 120.063 136.086 120.374C135.372 120.564 134.702 121.038 134.433 121.726C134.163 122.413 134.396 123.307 135.047 123.657C135.497 123.898 135.406 124.633 135.003 124.947C134.6 125.261 134.047 125.274 133.536 125.273L126.824 125.265C126.319 125.265 125.789 125.258 125.35 125.008C124.728 124.655 124.452 123.912 124.287 123.215C123.89 121.536 123.863 119.769 124.209 118.078C124.567 119.424 126.204 120.267 127.508 119.776C128.812 119.285 129.486 117.571 128.867 116.323C128.248 115.075 126.475 114.576 125.296 115.317L125.255 114.884C125.114 113.366 125.01 111.828 125.327 110.341C125.675 108.712 126.612 107.122 128.115 106.405C129.212 105.883 130.468 105.875 131.689 105.915V105.915Z" fill="white"/>
<path d="M90.8632 120.253C88.9797 120.228 87.0974 120.117 85.2239 119.923L85.0419 119.903C84.3712 119.824 83.6688 119.677 83.2373 119.17C82.6548 118.485 82.8176 117.471 83.0116 116.584L83.0311 116.496C83.8966 112.606 84.2796 108.609 84.169 104.626L84.1475 103.939C84.119 102.704 84.2222 101.306 85.2584 100.69C85.5736 100.502 85.9372 100.419 86.2994 100.352L86.42 100.331C93.0054 99.1665 99.8369 99.4151 106.32 101.055C107.174 101.271 107.392 102.436 107.094 103.265C106.795 104.093 106.172 104.783 105.929 105.629C105.686 106.475 106.084 107.634 106.964 107.677C108.794 107.766 110.314 109.654 110.036 111.465C109.759 113.277 107.772 114.62 105.982 114.228C105.562 114.136 105.402 114.756 105.44 115.185L105.871 119.934V119.934C105.941 120.709 104.839 120.934 104.064 120.86L99.5438 120.429V120.429C98.8336 120.361 97.8779 120.467 97.756 121.17C97.4526 122.92 95.6295 124.259 93.8688 124.025C92.1082 123.791 90.6985 122.022 90.8632 120.253Z" fill="white"/>
<path fill-rule="evenodd" clip-rule="evenodd" d="M78.1716 149.212C78.6717 149.343 79.3868 149.572 79.3387 150.047C78.3683 159.604 74.9394 157.782 71.8066 160.473C70.9788 161.184 70.4618 162.891 70.111 162.924C71.3988 163.546 73.241 165.985 76.4817 166.151C85.5107 166.615 88.9139 160.08 88.9139 160.08C89.1633 157.97 88.1576 154.144 89.4771 155.234C90.3879 155.985 90.2678 152.398 91.5232 152.777C91.9005 152.891 91.1968 155.262 91.4773 155.41C91.6324 155.491 91.875 154.846 92.2876 154.336C92.6316 153.911 93.1563 153.6 93.262 153.696C93.3337 153.762 93.2531 154.376 92.9411 154.892C92.5025 155.617 91.778 156.31 91.8756 156.429C91.983 156.561 93.8915 154.846 94.0033 155C94.7454 156.027 89.7291 167.611 81.569 169.672L80.9229 169.833C76.1665 171.009 74.1753 171.146 69.8167 169.467C67.7501 168.671 66.3329 175.744 65.1356 178.086C64.3796 179.564 60.7703 183.157 59.1705 182.024C57.0598 180.528 55.3653 177.784 53.5714 176.379L53.4561 176.291C52.2327 175.382 49.4542 173.985 45.1205 172.101L45.3187 172.014C46.2367 171.616 48.6002 170.644 50.4284 169.129C53.026 166.976 54.4944 162.281 56.3229 159.766C58.1283 157.284 60.4858 157.695 59.0668 157.225C59.0668 157.225 55.4851 155.247 53.8263 155.043C48.2864 154.36 41.0055 156.857 38.6615 158.507C35.4452 160.771 38.5411 164.239 34.1821 162.49C32.7293 161.907 36.775 154.752 42.2331 151.918C49.8196 147.978 56.9455 146.982 63.9573 153.586C66.8109 156.274 67.0569 158.627 67.8033 160.43L67.6518 159.989C76.2566 159.572 63.5286 150.743 74.3173 148.777C75.4503 148.57 76.6312 148.826 77.7584 149.108L78.1716 149.212Z" fill="white"/>
<ellipse cx="72.5322" cy="155.088" rx="0.67178" ry="0.671776" transform="rotate(0.998226 72.5322 155.088)" fill="#FFB61D"/>
<ellipse cx="76.2042" cy="156.496" rx="0.671768" ry="0.67176" transform="rotate(0.998226 76.2042 156.496)" fill="#FFB61D"/>
<path fill-rule="evenodd" clip-rule="evenodd" d="M36.7679 180.53C43.9629 185.7 34.7661 178.572 42.5788 187.011C44.1565 188.716 52.4594 179.284 53.1998 184.972C53.4699 187.047 52.7648 189.19 53.136 191.249C53.4824 193.17 61.8308 192.166 62.4887 191.34C64.8736 188.344 57.7521 180.419 56.2521 179.146C47.8815 172.042 45.0709 172.476 37.0111 179.535L36.7679 180.53Z" fill="white"/>
<path fill-rule="evenodd" clip-rule="evenodd" d="M228.42 57.7802C229.846 57.9759 231.171 58.1578 231.2 56.4929C231.207 56.0967 226.46 52.5332 225.012 53.8484C223.15 55.5398 221.661 57.4906 220.218 59.3802C217.19 63.3471 214.368 67.0441 208.736 67.5041L208.668 67.5103C206.484 67.7356 210.51 69.7405 215.108 67.6151C218.27 66.1538 222.524 61.4305 224.545 59.1871C225.074 58.6 225.45 58.1828 225.613 58.0382L225.655 58.0036C226.339 57.4946 227.405 57.6409 228.42 57.7802ZM235.124 62.4044L239.815 66.263C240.729 67.0147 239.616 68.581 238.434 68.6364C237.748 68.6686 237.095 68.4463 236.438 68.2229C235.963 68.0613 235.486 67.899 234.994 67.8321C232.206 67.4532 230.03 70.0469 228.259 72.2325C226.64 74.2298 224.873 76.1068 222.977 77.8429L222.72 78.0756L222.453 78.3129C220.929 79.651 219.224 80.8573 217.239 81.1788C214.315 81.6522 211.445 80.1093 209.095 78.3066C208.522 77.8667 207.959 77.4059 207.396 76.9448L207.396 76.9448L207.396 76.9448L207.396 76.9448L207.396 76.9447L207.396 76.9447C205.652 75.5165 203.905 74.0858 201.822 73.2648C199.988 74.2247 198.266 75.3933 196.689 76.7331L196.76 76.6798C199.321 79.3385 201.086 82.7563 201.769 86.3846L201.272 86.2883L200.944 86.2265C197.872 85.6561 194.577 85.2929 191.945 86.8963C191.017 87.4614 190.185 88.2585 189.362 89.0467C188.789 89.5954 188.22 90.1398 187.627 90.5986C187.774 90.6894 187.924 90.7838 188.078 90.8817C190.939 92.1105 193.98 92.9185 197.073 93.2718C197.545 93.3258 198.022 93.3704 198.501 93.4151L198.502 93.4152L198.502 93.4152L198.502 93.4153L198.503 93.4153L198.503 93.4153C200.723 93.6229 202.971 93.833 204.851 94.9819L205.51 95.3917C206.568 96.0432 207.747 96.6662 208.656 95.9491C208.917 95.7429 209.091 95.4569 209.265 95.1697C209.371 94.9949 209.477 94.8196 209.604 94.6615C209.939 94.2435 210.593 93.9567 210.994 94.3118L211.136 95.6092C211.27 94.7785 212.086 94.1155 212.926 94.1535C213.767 94.1915 214.519 94.9255 214.578 95.7649C214.684 97.2887 212.943 98.1691 211.471 98.628L203.839 100.941C201.113 101.768 198.115 101.263 195.52 100.085C193.105 98.9876 190.986 97.3451 188.963 95.6224L188.515 95.2384C186.988 93.922 184.918 92.4847 183.143 93.4403C186.194 93.6793 188.377 96.3506 190.155 98.8721L190.326 99.1156C190.614 99.5273 190.91 99.9606 190.974 100.459C191.154 101.854 189.558 102.75 188.215 103.169C189.329 103.791 188.741 105.531 187.854 106.448C186.562 107.781 184.884 108.728 183.085 109.18L182.911 109.743C182.9 109.781 182.895 109.801 182.896 109.802C183.742 109.758 184.243 110.902 183.885 111.67C183.528 112.437 182.671 112.835 181.852 113.051C179.153 113.763 176.13 113.111 173.965 111.35L173.534 111.565C171.663 112.493 169.729 113.352 167.662 113.619C165.437 113.906 163.001 113.406 161.423 111.81L161.525 112.042C161.743 112.55 161.938 113.074 161.936 113.622C161.933 114.255 161.594 114.933 160.991 115.125C159.996 115.443 159.15 114.371 158.653 113.453C158.359 114.148 158.636 114.941 158.904 115.712C159.211 116.591 159.507 117.442 158.937 118.087C158.342 118.758 157.241 118.565 156.447 118.149C153.471 116.591 152.127 112.777 152.835 109.494C153.543 106.211 155.959 103.493 158.812 101.72C156.921 100.283 155.557 98.1691 155.026 95.8543C155.175 96.0532 155.865 95.4339 156.845 94.5543C158.638 92.9451 161.402 90.4646 163.599 90.5265C164.02 90.5383 164.694 90.8759 165.354 91.2065C165.832 91.4459 166.303 91.6817 166.665 91.7876C166.696 91.7493 166.733 91.7147 166.776 91.6847L166.366 91.3787C165.539 90.7701 164.676 90.1961 163.69 89.9326C162.54 89.6253 161.168 89.8378 160.415 90.7606C158.575 93.0173 156.262 94.8858 153.668 96.2092L155.143 99.0479C154.508 99.3376 153.725 99.2689 153.147 98.8794L153.076 98.8293L153.12 98.8863C153.977 100.046 153.171 102.028 151.732 102.229C150.263 102.815 148.825 100.963 148.996 99.3911C149.116 98.2896 149.68 97.3217 150.244 96.3518C150.485 95.9378 150.726 95.5235 150.933 95.0982C151.632 93.662 151.957 92.0586 152.279 90.4655C152.721 88.2818 153.159 86.1174 154.552 84.4288C155.528 83.2461 156.881 82.4356 158.265 81.7755C163.758 79.1561 170.214 78.6194 176.064 80.2957C177.128 76.7264 179.17 73.4541 181.909 70.9305L182.072 70.7826C183.12 69.8509 184.416 69.0249 185.781 69.2045L185.889 69.2207C187.243 69.4514 188.441 68.4244 189.445 67.472L189.754 67.1787L189.996 66.9533C191.987 65.1172 194.29 63.4309 196.969 63.2913C199.351 63.1671 201.61 64.2995 203.643 65.5484C205.944 66.9614 208.127 68.5644 210.164 70.3355L210.522 70.6498C210.618 70.7345 210.714 70.82 210.81 70.9058C212.731 72.6146 214.832 74.4842 217.373 74.3766C219.978 74.2663 221.916 72.1393 223.703 70.1794C223.847 70.0208 223.991 69.8633 224.134 69.7081C226.337 67.3134 228.835 65.2148 231.362 63.1606L232.446 62.2822C232.774 62.0168 233.126 61.7407 233.546 61.6937C234.136 61.6276 234.665 62.0273 235.124 62.4044ZM187.374 102.816C186.848 102.702 186.125 102.735 185.208 102.917C185.81 102.929 186.316 102.927 186.728 102.911C186.928 102.89 187.127 102.862 187.322 102.826L187.374 102.816ZM167.99 90.8284L167.99 90.8284C168.187 90.6338 168.394 90.4286 168.623 90.254C169.046 90.0399 169.521 89.9357 169.997 89.9893C171.606 90.1704 172.796 91.9055 172.557 93.5067C171.67 95.5998 169.544 96.766 167.441 97.9193C166.146 98.6298 164.859 99.3354 163.876 100.25C164.126 99.8542 164.397 99.5395 164.67 99.3482C165.521 98.7511 166.409 98.2363 167.246 97.7512C167.949 97.3433 168.616 96.9564 169.195 96.5591C170.107 95.9339 170.722 95.3355 171.198 94.8717C171.563 94.5171 171.846 94.2413 172.119 94.0925C172.141 94.0803 173.193 92.0395 170.761 90.6513C168.925 89.6031 168.077 90.8739 167.621 91.5568C167.473 91.7784 167.367 91.938 167.281 91.9365C167.259 91.9361 167.228 91.9322 167.189 91.9247C167.254 91.7066 167.351 91.4967 167.474 91.3007C167.643 91.1726 167.812 91.0049 167.99 90.8284ZM167.474 91.3006L167.474 91.3007L167.412 91.3459C167.289 91.4325 167.165 91.4957 167.038 91.5234C166.782 91.5791 166.182 91.1025 165.675 90.6988L165.675 90.6987L165.675 90.6987L165.674 90.6987C165.371 90.4572 165.1 90.2419 164.955 90.1821C163.999 89.788 163.887 89.7806 163.22 89.7374L163.219 89.7373C163.107 89.73 162.979 89.7217 162.828 89.7103L162.552 89.6882C162.491 89.6836 162.424 89.6797 162.354 89.6754L162.353 89.6754C161.8 89.6425 161.005 89.5952 161.171 89.168C164.148 81.5234 176.323 80.0607 174.164 88.7232C173.985 89.4395 173.538 90.0613 173.091 90.6832L173.091 90.6832C172.868 90.9942 172.644 91.3051 172.454 91.6278C171.689 90.4988 170.844 89.896 169.919 89.8193C169.404 89.7765 168.986 89.9766 168.623 90.254L168.623 90.254L168.523 90.3066C168.098 90.5435 167.73 90.892 167.474 91.3006ZM190.676 83.7881L190.679 83.7836C189.988 85.0427 189.243 86.5596 188.445 88.3344C189.05 86.7557 189.799 85.2334 190.676 83.7881ZM196.071 85.0542L195.978 85.0561C195.236 85.0743 194.569 85.1736 193.978 85.3541C193.321 85.5543 192.62 85.8959 191.875 86.3791C193.176 85.6875 194.609 85.2348 196.071 85.0542Z" fill="white"/>
<path fill-rule="evenodd" clip-rule="evenodd" d="M157.611 116.618C157.016 117.29 156.176 117.055 155.416 116.288C153.825 114.682 153.228 111.627 153.936 108.344C154.643 105.061 157.201 103.748 160.054 101.975C158.797 101.432 156.562 98.0861 156.388 94.8699C157.15 95.8902 157.16 97.6977 157.922 98.718C158.646 99.6862 160.105 100.875 160.829 101.843C160.921 101.967 160.999 102.173 160.864 102.247C158.133 103.736 156.372 104.214 154.704 108.357C153.037 112.5 156.208 116.415 156.64 116.309C157.172 116.178 156.997 115.472 156.7 115.011C155.864 113.709 156.711 112.009 157.435 110.642C157.802 111.068 156.881 112.256 157.049 113.511C157.212 114.736 158.139 116.02 157.611 116.618Z" fill="#E7EAEE"/>
<ellipse cx="168.878" cy="102.998" rx="0.67176" ry="0.671768" transform="rotate(0.998226 168.878 102.998)" fill="#FFB61D"/>
<ellipse cx="166.573" cy="100.27" rx="0.671783" ry="0.671776" transform="rotate(0.998226 166.573 100.27)" fill="#FFB61D"/>
<path d="M65.9799 105.118C66.3557 105.85 65.727 106.876 64.9044 106.873C64.2691 102.902 63.581 98.7915 61.3467 95.4471C57.0687 89.0435 48.062 86.8078 44.422 80.0211C41.8321 81.7973 37.9285 81.2649 35.9087 78.8602C34.6526 77.3646 32.4215 77.1449 30.4908 77.44C28.5601 77.7351 26.6669 78.4289 24.7161 78.3332C23.8697 78.2916 22.9509 78.0478 22.47 77.35C21.9891 76.6521 22.295 75.4441 23.1359 75.3387C26.7993 74.8793 30.4627 74.4199 34.1261 73.9605C34.4137 73.9244 34.7191 73.8809 34.9403 73.6934C35.1906 73.4813 35.274 73.1367 35.3435 72.8162C35.9189 70.1629 36.3554 66.9956 34.4276 65.0839C32.8299 63.4996 30.2645 63.5086 28.0495 63.9042C25.8345 64.2999 23.547 64.9745 21.3815 64.3634C19.216 63.7522 17.4417 61.1363 18.648 59.2369C19.4559 57.9647 18.6 56.2343 17.404 55.3175C16.208 54.4006 14.7078 53.9331 13.5498 52.9686C12.3919 52.004 11.6783 50.1695 12.6343 49.0045C13.0548 48.4922 13.7037 48.2297 14.3392 48.0413C16.4423 47.4179 18.7755 47.4082 20.7767 48.3067C22.7779 49.2051 24.383 51.084 24.6733 53.2583C24.9098 55.0297 24.3661 57.0762 25.5105 58.4488C27.0066 60.2435 29.8461 59.301 32.1826 59.3204C34.5722 59.3402 36.9127 60.6482 38.182 62.673C39.4512 64.6977 39.6084 67.3743 38.5848 69.5338C41.4093 66.7584 45.1849 64.6574 49.1388 64.8738C52.7908 65.0737 56.1119 67.2342 58.5087 69.997C60.9054 72.7598 62.515 76.1018 64.0929 79.4014C64.6807 80.6307 66.2142 81.3181 67.523 80.939C68.8319 80.56 69.7607 79.1595 69.6006 77.8063C70.7309 78.0734 70.8223 79.6091 70.837 80.7704C70.868 83.2103 71.7091 85.6331 73.1967 87.5674C73.7218 86.6378 74.1275 85.6408 74.4005 84.6086C75.4883 85.9042 75.8704 87.7585 75.3832 89.3785C74.8959 90.9985 73.5544 92.3346 71.9325 92.8151C71.0693 93.0709 70.0175 93.1827 69.5776 93.9682C71.1382 96.8149 72.4714 99.7862 73.5603 102.844C74.1442 104.485 74.5494 106.589 73.2402 107.736C71.7694 106.61 70.9531 104.85 70.1917 103.162C69.004 100.527 67.8164 97.8932 66.6288 95.259" fill="white"/>
<path fill-rule="evenodd" clip-rule="evenodd" d="M70.5031 79.0357C70.1242 82.1938 71.2512 85.4994 73.4803 87.7684C74.2975 87.2945 74.8309 86.367 74.8295 85.4223C75.655 86.8345 75.1458 88.7212 74.0673 89.951C72.9887 91.1809 71.4594 91.9029 69.9756 92.5915C69.1255 92.9861 68.2429 93.3884 67.3057 93.4C65.8759 93.4178 64.6105 92.5361 63.4564 91.6919L60.0702 89.2149C61.7838 92.551 65.782 94.5459 69.4779 93.909C71.977 97.5474 73.4708 101.869 73.7519 106.274L73.0854 104.99C73.0794 104.974 73.0713 104.958 73.0612 104.943L73.0854 104.99C73.1801 105.235 72.7884 105.499 72.5301 105.368C72.2552 105.229 72.1565 104.893 72.0798 104.595C71.1349 100.92 69.3874 97.4542 66.9947 94.5095L70.5576 102.412C71.319 104.101 72.1353 105.861 73.6062 106.987C74.9154 105.839 74.5101 103.735 73.9262 102.095C72.8373 99.0366 71.5042 96.0653 69.9436 93.2186C70.3008 92.5808 71.0615 92.3872 71.7971 92.2C71.9673 92.1567 72.1362 92.1137 72.2984 92.0656C73.9204 91.585 75.2619 90.249 75.7491 88.629C76.2363 87.009 75.8543 85.1546 74.7665 83.8591C74.4934 84.8912 74.0878 85.8882 73.5626 86.8178C72.0751 84.8836 71.2339 82.4608 71.203 80.0209C71.1882 78.8596 71.0968 77.3239 69.9666 77.0568C70.1266 78.41 69.1978 79.8105 67.889 80.1895C66.5802 80.5686 65.0467 79.8811 64.4588 78.6519C62.8809 75.3523 61.2713 72.0103 58.8746 69.2475C56.4779 66.4847 53.1568 64.3242 49.5048 64.1243C45.5509 63.9079 41.7752 66.0089 38.9508 68.7842C39.9743 66.6248 39.8172 63.9482 38.5479 61.9234C37.2787 59.8987 34.9381 58.5907 32.5485 58.5709C31.9424 58.5658 31.3024 58.6255 30.6607 58.6854C28.8292 58.8563 26.9844 59.0283 25.8764 57.6993C25.0939 56.7606 25.1007 55.5068 25.1076 54.2414C25.1108 53.6563 25.114 53.0688 25.0393 52.5088C24.7489 50.3345 23.1438 48.4556 21.1427 47.5572C19.1415 46.6587 16.8083 46.6684 14.7051 47.2918C14.0697 47.4801 13.4207 47.7426 13.0003 48.255C12.0442 49.42 12.7578 51.2545 13.9158 52.219C14.5252 52.7267 15.2295 53.0966 15.9342 53.4669L15.9342 53.4669C16.5686 53.8001 17.2034 54.1336 17.77 54.5679C18.966 55.4848 19.8218 57.2152 19.0139 58.4873C17.8077 60.3868 19.582 63.0027 21.7475 63.6138C23.5376 64.119 25.411 63.7456 27.258 63.3775L27.2581 63.3775L27.2581 63.3775L27.259 63.3773C27.646 63.3001 28.0318 63.2233 28.4155 63.1547C30.6305 62.7591 33.1959 62.7501 34.7936 64.3344C36.7214 66.2461 36.2849 69.4134 35.7095 72.0666C35.64 72.3872 35.5565 72.7318 35.3063 72.9439C35.0851 73.1313 34.7797 73.1749 34.492 73.211L23.5019 74.5892C22.661 74.6946 22.3551 75.9026 22.836 76.6005C23.3169 77.2983 24.2356 77.5421 25.0821 77.5837C26.3763 77.6472 27.6453 77.3632 28.9166 77.0786C29.5615 76.9343 30.207 76.7898 30.8568 76.6905C32.7874 76.3953 35.0186 76.6151 36.2747 78.1107C38.2945 80.5154 42.198 81.0477 44.7879 79.2715C46.7033 82.8428 50.1047 85.1538 53.5212 87.4751C56.5974 89.5652 59.6858 91.6636 61.7127 94.6976C63.9469 98.042 64.635 102.152 65.2704 106.124C66.093 106.126 66.7217 105.1 66.3458 104.368L65.5553 105.374C65.3787 99.1291 62.297 93.026 57.3764 89.1763C56.1578 88.2229 54.818 87.3824 53.481 86.5438C50.5432 84.701 47.6193 82.8669 46.0271 79.8631C45.8837 79.5925 45.7508 79.3064 45.7322 79.0008C45.7086 78.6142 45.8689 78.2446 46.0237 77.8879L46.0458 77.837C46.6635 76.4097 47.1049 74.8394 46.8405 73.3068C46.576 71.7742 45.4512 70.3098 43.9173 70.0531C46.4914 71.7636 46.9531 75.9051 44.8188 78.1404C42.6844 80.3756 38.526 80.1056 36.6985 77.6132C35.234 75.6157 32.2325 75.8048 29.8102 76.3219C27.3879 76.839 24.5366 77.3746 22.7013 75.7113C26.7077 74.6844 30.8224 74.0809 34.955 73.9139C35.9394 73.8742 36.3466 72.6541 36.496 71.6802C36.7258 70.1831 36.956 68.6619 36.759 67.1602C36.562 65.6585 35.8761 64.1519 34.6195 63.3065C33.1104 62.2912 31.1373 62.4101 29.3253 62.5679L24.5101 62.987C23.4726 63.0773 22.4064 63.165 21.4071 62.8718C20.4077 62.5785 19.476 61.8134 19.3013 60.7867C19.191 60.1382 19.3871 59.505 19.5848 58.8666C19.7272 58.407 19.8703 57.9447 19.9006 57.4721C19.9868 56.1266 19.1383 54.8774 18.0958 54.0224C17.457 53.4985 16.7424 53.0826 16.027 52.6662L16.027 52.6662L16.027 52.6662C15.5748 52.4031 15.1224 52.1397 14.6886 51.8489C13.8722 51.3014 13.0401 50.4253 13.2863 49.4737C13.4438 48.8651 14.0042 48.4511 14.5653 48.1677C16.4598 47.2108 18.807 47.2072 20.7044 48.1582C22.6018 49.1093 24.0036 50.992 24.3707 53.0824C24.4613 53.598 24.4972 54.1356 24.533 54.6721L24.533 54.6721C24.6158 55.9131 24.6982 57.1483 25.4562 58.0928C26.3617 59.2211 27.9552 59.5291 29.4012 59.4854C29.897 59.4704 30.3932 59.4236 30.8891 59.3768C31.8395 59.287 32.7884 59.1975 33.7294 59.3327C36.8936 59.7873 39.3345 63.1303 38.8041 66.2826C38.7748 66.4569 38.7379 66.6327 38.7009 66.8089C38.5689 67.4373 38.4356 68.0718 38.6406 68.6677C38.9032 69.4309 40.1024 69.8557 40.4969 69.1517C42.2649 65.9972 46.2204 64.4613 49.8041 64.9445C53.3878 65.4276 56.5638 67.6459 58.8737 70.4281C61.1835 73.2103 62.7298 76.5369 64.1349 79.8689C64.6298 81.0425 66.1563 81.491 67.3879 81.1658C68.6194 80.8407 69.6077 79.9415 70.5031 79.0357ZM64.2019 84.8691L64.2019 84.8691C64.4914 85.4611 65.0209 86.5436 65.7379 86.8826C65.7005 87.186 65.2252 87.0149 65.0304 86.7792C64.4768 86.1089 63.8903 85.3388 63.9713 84.4733C64.0062 84.469 64.0843 84.6285 64.2019 84.8691ZM65.5866 89.715C65.95 90.2682 63.7112 90.5013 62.9768 90.0114C63.108 89.9886 63.2801 90.005 63.4707 90.0231C63.6967 90.0447 63.9487 90.0687 64.1892 90.0325C64.5414 89.9796 64.8823 89.8777 65.1396 89.8008C65.3893 89.7261 65.5603 89.675 65.5866 89.715ZM65.0856 87.6741C64.1936 87.811 63.1217 86.6075 63.1411 85.4934C63.383 86.3215 64.2823 86.9908 64.7792 87.3607C65.032 87.5488 65.1807 87.6595 65.0856 87.6741ZM68.1909 92.3881C67.0063 92.3675 66.5042 90.3607 67.0434 90.2418C67.1729 90.1857 67.1758 90.3647 67.1801 90.6291C67.1847 90.907 67.1908 91.2793 67.3472 91.5719C67.521 91.8969 67.8971 92.1187 68.1166 92.2481C68.2826 92.3459 68.3591 92.391 68.1909 92.3881ZM69.5581 89.6918C69.8155 89.8395 70.0489 90.0657 70.1111 90.356C70.1734 90.6462 70.0056 90.9938 69.714 91.049C69.6253 90.9136 69.6761 90.8295 69.7297 90.7407C69.8084 90.6103 69.8932 90.47 69.5502 90.1428C69.4058 90.005 69.236 89.9433 69.1169 89.8999C69.0252 89.8666 68.9635 89.8442 68.9666 89.8064C68.9858 89.5665 69.3493 89.572 69.5581 89.6918ZM67.3862 87.0499C67.3269 87.0897 67.2861 87.117 67.3201 87.1497C67.4254 87.251 67.5505 87.3008 67.6775 87.2308C67.7745 87.1773 67.825 87.0664 67.8495 86.9585C67.9864 86.3557 67.3585 85.7198 66.7541 85.8491C66.805 85.9908 66.9065 86.0377 67.0297 86.0946C67.1719 86.1602 67.343 86.2391 67.4986 86.4925C67.7086 86.8341 67.5082 86.9683 67.3862 87.0499ZM67.0842 92.751C66.3902 92.5357 65.7292 90.8766 66.1027 90.7583C66.3356 90.6845 66.3341 90.6969 66.3184 90.8271C66.304 90.9462 66.2776 91.1639 66.4082 91.5044C66.5703 91.927 66.8018 92.2719 66.9491 92.4914C67.0501 92.6419 67.1116 92.7335 67.0842 92.751ZM227.487 58.1381C225.986 58.2959 224.785 59.483 224.018 60.7824C223.647 61.4107 223.347 62.0772 223.048 62.7435L223.048 62.7437C222.728 63.4554 222.408 64.167 222.001 64.8318C220.061 68.0033 216.451 69.6925 212.995 71.0641C212.399 71.3007 211.365 71.1665 211.56 70.5559C217.195 69.588 222.108 65.2251 223.735 59.7436C223.927 59.0978 223.093 58.5354 222.438 58.6957C221.846 58.8407 221.418 59.3248 221.031 59.8059L220.91 59.9573C217.711 63.9721 213.159 67.3343 208.027 67.467C207.664 67.4764 207.148 67.2459 207.314 66.9223C211.114 66.8612 214.728 65.0489 217.592 62.5507C220.457 60.0526 222.663 56.8973 224.732 53.7083C225.051 53.215 225.797 53.3346 226.35 53.5341C228.047 54.146 229.671 54.9598 231.177 55.9529C231.986 56.4861 231.314 57.8593 230.38 58.1146C229.843 58.2613 229.286 58.2137 228.726 58.1659C228.312 58.1305 227.896 58.095 227.487 58.1381ZM226.083 54.9372L225.953 54.8952C225.555 54.7737 225.11 54.7023 224.784 54.9447C224.658 55.0387 224.567 55.1698 224.482 55.3038L223.382 57.0876C223.941 57.2272 224.475 57.4664 224.951 57.7907C225.339 58.0556 225.881 58.075 226.288 57.8385C226.695 57.602 226.946 57.1215 226.909 56.6524C226.894 56.4775 227.182 56.435 227.299 56.5655C227.386 56.6631 227.411 56.7952 227.435 56.9269L227.435 56.9271L227.435 56.9272L227.435 56.9274C227.443 56.9718 227.452 57.0161 227.462 57.0591C227.504 57.2295 227.64 57.4146 227.812 57.3827C227.989 57.22 228.089 56.9762 228.077 56.7358C228.143 56.4893 228.526 56.7168 228.581 56.9661C228.637 57.2155 228.743 57.5706 228.991 57.5085C229.355 57.4252 229.477 56.9223 229.307 56.5902C229.136 56.258 228.783 56.0658 228.447 55.9029C227.681 55.5314 226.891 55.2087 226.083 54.9372ZM222.784 57.8108C223.332 58.3821 224.139 58.6951 224.929 58.643C224.456 58.0256 223.639 57.6931 222.869 57.7974L222.784 57.8108ZM181.852 113.051C179.153 113.763 176.13 113.112 173.965 111.35C171.96 112.357 169.888 113.331 167.662 113.619C165.437 113.906 163.001 113.406 161.423 111.81C161.678 112.389 161.938 112.99 161.936 113.623C161.933 114.255 161.594 114.933 160.991 115.126C159.996 115.443 159.15 114.371 158.653 113.453C158.359 114.148 158.636 114.941 158.904 115.712C159.211 116.591 159.507 117.442 158.937 118.087C158.342 118.759 157.241 118.565 156.447 118.149C153.471 116.591 152.127 112.777 152.835 109.494C153.543 106.211 155.959 103.493 158.812 101.72C156.921 100.283 155.557 98.1691 155.026 95.8543C155.408 96.3645 155.687 96.9543 155.966 97.5441C156.245 98.1339 156.524 98.7237 156.905 99.2339C157.267 99.718 157.731 100.122 158.195 100.527C158.659 100.931 159.123 101.336 159.485 101.82C159.578 101.943 159.656 102.15 159.52 102.224C156.789 103.712 154.434 106.119 153.614 109.12C152.794 112.12 153.799 115.696 156.419 117.373C156.881 117.668 157.433 117.909 157.966 117.778C158.498 117.647 158.907 116.989 158.611 116.528C157.775 115.227 157.701 113.472 158.425 112.105L160.601 114.632C161.113 114.51 161.251 113.825 161.124 113.314C161.084 113.152 161.028 112.992 160.972 112.831C160.851 112.487 160.731 112.144 160.771 111.786C160.83 111.262 161.522 110.805 161.877 111.195C163.294 112.749 165.605 113.223 167.686 112.923C169.768 112.622 171.686 111.659 173.563 110.71L175.778 109.589C175.608 110.219 175.086 110.742 174.456 110.911C176.548 112.47 179.372 112.998 181.886 112.299C182.319 112.179 182.764 112.01 183.049 111.663C183.335 111.316 183.39 110.744 183.058 110.441C183.023 110.41 182.985 110.381 182.946 110.353L182.926 110.339C182.837 110.275 182.748 110.212 182.698 110.116C182.623 109.972 182.748 109.734 182.896 109.802C183.742 109.758 184.243 110.902 183.885 111.67C183.528 112.437 182.671 112.835 181.852 113.051ZM167.054 101.557C166.575 101.394 166.027 101.717 165.81 102.175C165.592 102.633 165.642 103.176 165.792 103.66C165.852 103.118 165.928 102.71 166.14 102.357C166.231 102.204 166.508 102.064 166.751 101.94C167.066 101.781 167.325 101.65 167.054 101.557ZM166.669 100.186C167.376 100.023 168.166 100.308 168.607 100.884C169.047 101.461 169.114 102.298 168.77 102.937C168.692 102.84 168.676 102.665 168.657 102.445C168.598 101.797 168.504 100.761 166.669 100.186ZM165.972 105.175C165.744 105.449 166.507 106.197 167.729 105.712C167.955 105.622 167.772 105.608 167.483 105.586C167.22 105.566 166.869 105.539 166.661 105.442C166.485 105.36 166.396 105.231 166.33 105.135C166.231 104.993 166.182 104.922 165.972 105.175ZM168.413 106.148C169.197 105.774 168.69 106.901 167.066 106.733C166.92 106.718 166.729 106.658 166.733 106.51C166.734 106.459 166.872 106.449 167.086 106.434C167.419 106.411 167.936 106.375 168.413 106.148ZM163.655 103.909C163.942 104.199 164.368 104.214 164.653 104.165C164.826 104.134 164.914 103.981 164.756 103.928C164.719 103.916 164.658 103.905 164.584 103.892C164.416 103.862 164.183 103.821 164.028 103.724C163.929 103.662 163.875 103.454 163.829 103.276C163.782 103.093 163.743 102.941 163.67 103.011C163.527 103.148 163.367 103.618 163.655 103.909ZM163.897 104.88C164.035 105.098 163.497 105.014 163.383 104.871C163.27 104.728 163.165 104.194 163.359 104.197C163.415 104.198 163.433 104.282 163.455 104.383C163.474 104.476 163.497 104.583 163.556 104.652C163.67 104.786 163.747 104.807 163.804 104.823C163.843 104.833 163.872 104.841 163.897 104.88ZM188.178 104.232C188.458 104.818 187.938 105.461 187.44 105.878C185.416 107.575 183.01 108.814 180.453 109.478C183.195 109.544 185.945 108.418 187.853 106.448C188.741 105.531 189.329 103.791 188.215 103.169C189.558 102.75 191.154 101.854 190.974 100.459C190.91 99.9606 190.614 99.5274 190.326 99.1156L190.155 98.8721C188.377 96.3507 186.194 93.6793 183.143 93.4403C184.918 92.4848 186.988 93.922 188.515 95.2384L188.963 95.6224C190.986 97.3451 193.105 98.9876 195.52 100.085C198.115 101.263 201.113 101.768 203.839 100.941L211.471 98.628C212.943 98.1691 214.684 97.2887 214.578 95.7649C214.519 94.9255 213.767 94.1916 212.926 94.1535C212.086 94.1155 211.27 94.7785 211.136 95.6092L210.994 94.3118C210.593 93.9567 209.939 94.2436 209.604 94.6615C209.477 94.8196 209.371 94.9949 209.265 95.1697C209.091 95.4569 208.917 95.7429 208.656 95.9492C207.747 96.6662 206.568 96.0432 205.51 95.3918L204.851 94.9819C202.971 93.8331 200.723 93.6229 198.503 93.4154C198.024 93.3706 197.546 93.3259 197.073 93.2719C193.98 92.9185 190.939 92.1105 188.078 90.8818C190.683 93.0945 194.129 93.5183 197.605 93.9459C199.356 94.1613 201.116 94.3777 202.779 94.8244C204.098 95.1787 205.551 95.8796 205.853 97.2117C206.291 99.146 203.977 100.598 201.999 100.744C198.764 100.982 195.641 99.5538 192.929 97.753L192.624 97.5476C191.643 96.8788 190.693 96.1611 189.744 95.4437C188.002 94.1275 186.262 92.8125 184.332 91.8024C186.341 91.9386 187.835 90.508 189.362 89.0467C190.185 88.2585 191.017 87.4614 191.945 86.8963C194.671 85.2357 198.108 85.6846 201.272 86.2883L201.769 86.3846C201.086 82.7563 199.321 79.3386 196.759 76.6798L201.087 85.5663C196.397 83.9125 190.705 85.7778 187.904 89.8867C190.134 82.8154 195.253 76.7025 201.822 73.2648C203.905 74.0858 205.652 75.5165 207.396 76.9447C207.959 77.4058 208.522 77.8667 209.095 78.3066C211.445 80.1094 214.315 81.6523 217.239 81.1788C219.341 80.8384 221.128 79.506 222.72 78.0756L222.977 77.843C224.873 76.1068 226.64 74.2298 228.259 72.2325C230.03 70.0469 232.206 67.4532 234.994 67.8321C235.486 67.899 235.963 68.0613 236.438 68.2229C237.095 68.4463 237.748 68.6686 238.434 68.6364C239.616 68.5811 240.729 67.0148 239.815 66.263L235.124 62.4044C234.665 62.0273 234.136 61.6276 233.546 61.6937C233.126 61.7407 232.774 62.0169 232.446 62.2822L231.362 63.1606C228.835 65.2148 226.337 67.3134 224.134 69.7081C223.991 69.8634 223.847 70.0208 223.703 70.1794C221.916 72.1393 219.978 74.2663 217.373 74.3766C214.832 74.4843 212.731 72.6146 210.81 70.9059L210.801 70.898L210.801 70.8975L210.687 70.7962L210.522 70.6498L210.164 70.3355C208.127 68.5644 205.943 66.9614 203.643 65.5484C201.61 64.2995 199.351 63.1672 196.968 63.2913C194.181 63.4366 191.8 65.2575 189.754 67.1787L189.445 67.472C188.441 68.4244 187.243 69.4515 185.889 69.2208L185.781 69.2045C184.416 69.0249 183.12 69.851 182.072 70.7826L181.909 70.9305C179.17 73.4541 177.128 76.7264 176.064 80.2957C170.214 78.6194 163.758 79.1562 158.265 81.7755C156.881 82.4356 155.528 83.2462 154.552 84.4288C153.159 86.1174 152.721 88.2819 152.279 90.4655C151.957 92.0587 151.632 93.662 150.933 95.0983C150.726 95.5233 150.485 95.9375 150.244 96.3513L150.244 96.3518C149.68 97.3217 149.116 98.2897 148.996 99.3912C148.825 100.963 150.263 102.815 151.732 102.229C153.195 102.024 154.004 99.9794 153.076 98.8291C153.659 99.2626 154.481 99.3497 155.143 99.0479L153.668 96.2093C156.262 94.8858 158.575 93.0174 160.415 90.7607C161.168 89.8378 162.54 89.6253 163.69 89.9327C164.676 90.1961 165.539 90.7701 166.366 91.3788L166.776 91.6847C166.286 92.0286 166.548 92.9702 167.146 93.0104C166.787 91.4317 168.388 89.8081 169.997 89.9893C171.606 90.1704 172.796 91.9055 172.557 93.5067C171.67 95.6 169.544 96.7661 167.441 97.9194C165.159 99.1708 162.905 100.407 162.29 102.796C161.671 105.203 163.488 107.942 165.946 108.308C168.404 108.675 170.94 106.584 171.05 104.101C171.05 104.101 171.413 104.145 171.549 103.76C171.763 103.155 171.968 102.483 172.17 101.818L172.17 101.818C172.551 100.566 172.925 99.3363 173.345 98.6049C174.524 96.5542 176.678 94.9518 179.043 94.9358C179.795 94.9308 180.543 94.8324 181.29 94.7341C182.244 94.6086 183.197 94.4832 184.154 94.5527C185.861 94.6766 187.716 95.7093 187.932 97.4064C186.045 97.0056 184.067 97.0332 182.192 97.4866L188.789 98.3881C190.237 98.586 190.47 100.838 189.417 101.853C188.425 102.81 186.936 102.944 185.543 102.982L185.291 102.988C185.526 103.488 186.13 103.55 186.734 103.612C187.336 103.674 187.94 103.735 188.178 104.232ZM223.846 75.9575C221.757 78.1972 219.318 80.601 216.256 80.6618C213.579 80.715 211.268 78.9497 209.131 77.3169L208.973 77.1964L208.462 76.8096C206.074 75.0128 203.597 73.3337 201.044 71.7804C199.067 70.5775 196.789 69.4092 194.538 69.9495L198.066 71.1276C197.462 71.4379 197.234 72.3071 197.607 72.874C197.704 72.0366 198.683 71.5201 199.514 71.6658C200.344 71.8114 201.01 72.4345 201.515 73.1101C197.013 74.7468 193.15 78.0749 190.865 82.2842C190.44 83.0667 190.069 83.8773 189.697 84.6876L189.697 84.6878L189.697 84.688L189.697 84.6881L189.697 84.6883L189.697 84.6885L189.696 84.6886C189.193 85.7873 188.689 86.8854 188.054 87.9122C186.95 89.6966 185.334 91.3093 183.283 91.7514C182.996 91.8133 182.702 91.8521 182.408 91.8909C181.82 91.9685 181.233 92.046 180.706 92.3089C180.646 92.3385 180.585 92.3699 180.522 92.402C179.903 92.7189 179.14 93.1094 178.771 92.5703C178.167 91.6873 177.191 91.0683 176.135 90.899C177.988 85.0469 182.58 80.1263 188.29 77.8734C188.613 77.7459 188.498 77.2637 188.328 76.9607L185.827 72.5033C185.596 72.0916 185.884 71.5422 186.307 71.3333C186.731 71.1244 187.23 71.1656 187.698 71.2321C190.674 71.6556 193.525 72.9296 195.825 74.8646C196.193 75.1741 196.8 75.4824 197.08 75.0913C194.464 72.3599 190.678 71.0487 186.939 70.4817C190.184 70.2215 193.516 71.3001 195.993 73.4124L196.114 73.5147C196.706 74.0126 197.424 74.5433 198.121 74.2565C195.361 71.5154 191.551 69.8596 187.664 69.7124C188.474 69.1314 189.233 68.4831 189.992 67.8349L189.992 67.8348L189.992 67.8345C190.763 67.1757 191.534 66.5168 192.359 65.9287C193.996 64.7616 195.944 63.8621 197.949 64.0143C199.405 64.1248 200.76 64.7773 202.037 65.4842C204.737 66.9784 207.272 68.7695 209.582 70.8146C209.745 70.959 209.909 71.1054 210.075 71.2529L210.076 71.2542C212.272 73.214 214.667 75.352 217.553 75.1315C219.313 74.9971 220.888 73.9628 222.146 72.7254C222.843 72.0409 223.466 71.2887 224.089 70.5363C224.593 69.9287 225.096 69.321 225.639 68.7486C226.421 67.923 227.323 67.1495 228.42 66.8482C229.516 66.5469 230.841 66.8353 231.473 67.7809L223.846 75.9575ZM152.968 90.3112C153.401 88.1559 153.829 86.0247 155.317 84.4761C156.046 83.7178 156.972 83.1786 157.912 82.7073C162.723 80.2968 168.3 79.4445 173.611 80.3079C174.911 80.5192 176.513 81.2784 176.47 82.5152C176.461 82.5907 176.452 82.6663 176.444 82.7419C176.459 82.6646 176.467 82.5891 176.47 82.5152C177.091 77.3514 180.189 72.537 184.639 69.8422C184.982 72.5713 186.13 75.1944 187.901 77.2988C183.076 79.2328 179.031 83.0427 176.812 87.7436L176.777 87.8179C176.147 89.1356 175.156 90.7498 173.757 90.3946L174.527 86.1079C174.598 85.7148 174.664 85.289 174.484 84.9329C174.282 84.5353 173.839 84.346 173.406 84.2073L173.254 84.1602C170.748 83.4033 167.934 82.6695 165.612 83.8788C164.384 84.5186 163.491 85.6111 162.655 86.7341L162.033 87.5755C160.559 89.5602 158.914 91.4186 157.124 93.1237C156.402 93.8104 155.624 94.4918 154.669 94.7762C153.715 95.0605 152.539 94.8375 151.99 94.0067C152.46 92.8413 152.715 91.5722 152.968 90.3114L152.968 90.3112ZM168.199 107.333C166.694 107.861 165.482 107.567 164.326 106.867C163.832 106.567 163.368 106.184 163.095 105.675C162.687 104.91 162.766 103.971 163.024 103.143C163.409 101.906 164.173 100.789 165.187 99.9817C165.888 99.4232 166.691 99.0184 167.493 98.6137C167.77 98.474 168.047 98.3343 168.32 98.1883C170.984 96.7628 173.296 94.6867 174.999 92.1916C175.339 91.6935 176.04 91.5424 176.621 91.7013C177.203 91.8603 177.683 92.269 178.097 92.7076C178.393 93.0215 178.606 93.6392 178.201 93.7879C175.365 94.8292 173.055 97.2095 172.099 100.075C172.073 100.152 172.048 100.23 172.022 100.309L172.022 100.311C171.876 100.764 171.729 101.223 171.427 101.587C171.072 102.014 170.349 103.527 170.692 104.256C170.692 104.256 169.704 106.804 168.199 107.333ZM172.504 84.5779C172.959 84.6882 173.453 84.8439 173.697 85.2433C173.896 85.5703 173.876 85.9812 173.837 86.3622C173.683 87.8692 173.34 89.3568 172.818 90.7786C172.729 91.0189 172.465 91.3052 172.278 91.1296C172.082 90.0429 171.108 89.1452 170.009 89.0386C168.91 88.9321 167.782 89.6259 167.381 90.6547C167.302 90.8578 167.035 90.9292 166.826 90.8691C166.668 90.8241 166.535 90.7263 166.408 90.621L166.282 90.5149C164.99 89.427 163.224 88.9233 161.552 89.1656C162.466 87.6863 163.616 86.3533 164.946 85.2324C165.49 84.7737 166.079 84.3424 166.76 84.1347C167.4 83.9393 168.085 83.9532 168.753 83.9988C170.017 84.0852 171.273 84.2792 172.504 84.5779ZM232.617 66.597C231.991 65.9065 231.126 65.4367 230.205 65.2914L231.275 63.9798C231.615 63.5688 232.01 63.1478 232.535 63.0912C232.913 63.0503 233.282 63.2117 233.623 63.3815C234.763 63.9495 235.835 64.6548 236.808 65.4773C237.133 65.7517 237.459 66.0575 237.595 66.4602C237.732 66.863 237.607 67.385 237.22 67.5614C236.833 67.7378 236.288 67.3272 236.452 66.935L236.468 66.8909C236.536 66.6675 236.439 66.4005 236.238 66.2787L235.855 66.983C235.82 67.0445 235.779 67.1039 235.718 67.1366C235.468 67.2691 235.273 66.881 235.262 66.5985L235.26 66.5593C235.238 66.281 235.099 65.924 234.842 66.0061C234.799 66.4815 234.451 66.9154 233.996 67.06C233.541 67.2047 233.006 67.0517 232.697 66.6883L232.617 66.597ZM152.177 100.287L151.759 98.5811C151.547 98.5178 151.336 98.7274 151.302 98.9457C151.28 99.0912 151.309 99.236 151.351 99.3791L151.416 99.5922C151.633 100.317 151.614 101.11 151.361 101.823C150.933 100.908 150.719 99.8929 150.741 98.8824C150.455 98.7186 150.249 99.1996 150.264 99.5292L150.355 101.497C149.758 100.939 149.56 100.049 149.677 99.2409C149.795 98.4329 150.189 97.6918 150.628 97.0037C150.858 96.6445 151.111 96.285 151.47 96.0553C151.829 95.8257 152.32 95.7534 152.678 95.9837C152.976 96.175 153.11 96.5078 153.246 96.8453C153.349 97.1005 153.453 97.3584 153.629 97.5597C153.692 97.631 153.765 97.7041 153.84 97.7785C154.128 98.0662 154.435 98.3736 154.225 98.6744C153.601 98.276 153.032 97.791 152.54 97.2375C152.339 98.3594 152.485 99.5409 152.952 100.58C153.048 100.793 152.716 100.988 152.512 100.877C152.307 100.765 152.233 100.513 152.177 100.287ZM212.874 95.7887C213.202 95.5083 213.502 95.252 213.643 95.3258C214.056 95.5407 212.909 96.4339 212.305 96.6813C212.344 96.9714 212.766 96.849 213.014 96.6937C213.262 96.5383 213.951 96.3786 213.814 96.5499C212.958 97.6183 211.326 98.4509 209.828 98.5932C209.221 98.6509 208.475 98.476 208.292 97.8943C208.125 97.3636 208.527 96.85 208.948 96.4651L209.049 96.3753C209.226 96.2225 209.509 96.0752 209.666 96.2479C210.086 96.7072 210.838 96.3506 211.337 95.9788C211.337 95.9788 212.637 94.7678 212.85 94.8505C213.062 94.9327 212.186 96.3086 212.186 96.3086C212.399 96.1938 212.643 95.9853 212.874 95.7887ZM206.734 96.8269C206.888 96.7948 207.046 96.8592 207.176 96.9463C207.652 97.2632 207.87 97.9173 207.68 98.4558C207.49 98.9944 206.91 99.3669 206.341 99.3157C206.26 99.3084 206.176 99.2917 206.113 99.2398C205.982 99.131 206.003 98.9279 206.035 98.7607L206.271 97.5376C206.328 97.2423 206.44 96.8885 206.734 96.8269ZM179.703 93.5695C180.529 93.4447 181.381 93.4935 182.187 93.712C182.135 94.0452 181.742 94.1902 181.41 94.2527C180.387 94.4456 179.333 94.4727 178.302 94.3326C178.569 93.8504 179.158 93.6518 179.703 93.5695ZM231.813 67.2657L229.673 65.9516C230.741 65.8109 231.867 66.3902 232.374 67.3405C232.221 67.4746 231.985 67.3719 231.813 67.2657ZM184.001 92.0411C183.08 92.2678 182.169 92.5341 181.272 92.839C182.189 93.3675 183.512 92.9807 184.001 92.0411ZM175.064 90.7263C175.315 90.7827 175.194 91.1776 174.99 91.3348C174.369 91.8133 173.437 91.8393 172.79 91.3962L175.064 90.7263ZM233.101 62.1192C233.25 62.0866 233.402 62.1493 233.54 62.2144C234.435 62.6378 235.252 63.2272 235.936 63.9437L232.858 62.3035C232.907 62.2108 232.999 62.1416 233.101 62.1192ZM185.627 69.8634L185.658 69.8853C185.938 69.8499 186.227 69.8786 186.496 69.9688C186.252 70.4099 185.918 70.8003 185.519 71.1081C185.329 70.7144 185.372 70.2183 185.627 69.8634ZM238.857 66.431L238.863 66.4507C239.204 66.5961 239.431 66.9723 239.401 67.3415C238.7 66.9626 238.139 66.3326 237.844 65.5933C238.263 65.7468 238.627 66.0477 238.857 66.431ZM174.07 92.4225L174.017 92.4917C173.834 92.7319 173.616 92.9923 173.315 93.0219C173.015 93.0516 172.714 92.6582 172.929 92.4463C173.287 92.2931 173.705 92.2844 174.07 92.4225ZM152.758 95.0663C153.025 95.1334 153.324 95.3338 153.277 95.6047C152.665 95.514 152.062 95.3617 151.481 95.1508C151.884 94.9904 152.337 94.9604 152.758 95.0663ZM209.729 96.0063C209.589 96.0643 209.467 95.8079 209.601 95.736C209.601 95.736 210.543 94.1482 210.563 95.2719C210.578 95.5517 209.981 95.8833 209.729 96.0063ZM170.936 103.569C171.012 103.084 171.156 102.168 171.416 102.173C171.785 102.14 171.633 102.765 171.525 103.206L171.525 103.206C171.495 103.327 171.469 103.435 171.458 103.51C171.42 103.775 171.168 103.979 170.887 103.847C170.898 103.808 170.914 103.706 170.936 103.569ZM84.9054 118.909C86.779 119.104 88.6613 119.214 90.5448 119.239C90.3801 121.008 91.7897 122.777 93.5504 123.011C95.311 123.245 97.1342 121.906 97.4376 120.156C97.5594 119.453 98.5152 119.347 99.2253 119.415L103.745 119.846C104.52 119.92 105.622 119.695 105.552 118.92L105.122 114.171C105.083 113.743 105.243 113.122 105.663 113.214C107.454 113.606 109.44 112.263 109.718 110.452C109.996 108.64 108.476 106.752 106.645 106.663C105.766 106.62 105.367 105.462 105.61 104.615C105.741 104.16 105.982 103.75 106.223 103.34L106.223 103.34C106.43 102.987 106.637 102.634 106.775 102.251C107.074 101.423 106.856 100.257 106.002 100.041C99.5185 98.4015 92.6869 98.1528 86.1015 99.3169L85.9809 99.3386C85.6187 99.4051 85.2552 99.4883 84.9399 99.676C83.9038 100.293 83.8005 101.691 83.829 102.926L83.8505 103.612C83.9611 107.596 83.5781 111.593 82.7126 115.482L82.6931 115.571C82.4992 116.457 82.3364 117.471 82.9188 118.156C83.3504 118.664 84.0527 118.81 84.7235 118.889L84.9054 118.909ZM96.4348 120.065C96.4828 120.322 96.4125 120.588 96.3052 120.826L96.271 120.899C95.6431 122.167 93.8305 122.684 92.6353 121.915C91.4175 121.131 91.149 119.211 92.1052 118.124C89.7195 118.367 87.3066 118.344 84.9261 118.054C84.1893 117.965 83.2314 117.55 83.395 116.826C84.52 111.847 84.9339 106.709 84.6201 101.615C84.5633 100.692 85.7065 100.233 86.6189 100.082C92.5065 99.1068 98.5785 99.2572 104.411 100.523C105.157 100.685 106.11 101.27 105.767 101.952C104.957 103.557 104.613 105.393 104.786 107.182C104.83 107.638 105.176 108.24 105.578 108.019C106.659 107.423 108.199 107.943 108.698 109.072C109.197 110.202 108.544 111.691 107.375 112.088C106.206 112.486 104.78 111.704 104.487 110.505C104.163 112.959 104.22 115.462 104.654 117.899C104.804 118.743 103.573 119.04 102.719 118.961L95.8992 118.333C95.6842 118.659 95.8928 119.004 96.1121 119.366C96.249 119.592 96.39 119.825 96.4348 120.065ZM132.037 105.249L145.406 105.751L145.625 105.76C146.026 105.78 146.43 105.822 146.789 105.997C147.6 106.393 147.958 107.34 148.192 108.212C149.438 112.864 149.186 117.906 147.483 122.411L147.411 122.596C147.19 123.15 146.904 123.701 146.399 124.006C145.984 124.258 145.482 124.303 144.994 124.32L144.89 124.324C142.899 124.384 140.904 124.298 138.926 124.068C139.969 123.451 140.257 121.909 139.619 120.878C138.982 119.847 137.605 119.397 136.434 119.708C135.72 119.898 135.049 120.372 134.78 121.059C134.511 121.747 134.744 122.641 135.395 122.991C135.845 123.232 135.754 123.967 135.351 124.281C134.947 124.595 134.394 124.608 133.883 124.607L127.171 124.599C126.667 124.599 126.136 124.592 125.698 124.342C125.076 123.989 124.8 123.246 124.635 122.549C124.237 120.87 124.21 119.103 124.557 117.412C124.915 118.758 126.552 119.601 127.856 119.11C129.16 118.619 129.834 116.905 129.215 115.657C128.595 114.409 126.823 113.91 125.643 114.651L125.602 114.218C125.461 112.7 125.358 111.162 125.675 109.675C126.022 108.046 126.959 106.456 128.463 105.739C129.56 105.217 130.815 105.209 132.037 105.249ZM146.611 106.902C146.28 106.695 145.877 106.653 145.484 106.63L145.387 106.624C141.229 106.397 137.067 106.245 132.904 106.171L131.516 106.149C130.638 106.137 129.731 106.133 128.922 106.473C127.714 106.98 126.915 108.191 126.576 109.457C126.237 110.723 126.29 112.056 126.345 113.365C128.463 112.821 130.694 115.003 130.406 117.171C130.118 119.338 127.682 120.865 125.543 120.409C125.434 121.094 125.326 121.804 125.516 122.471C125.706 123.138 126.284 123.748 126.977 123.738L133.202 123.646C133.588 123.64 134.123 123.45 134.018 123.08C133.419 120.974 135.295 118.562 137.483 118.625C139.671 118.688 141.406 121.204 140.687 123.271C142.049 123.603 143.47 123.692 144.863 123.534C145.315 123.483 145.788 123.395 146.139 123.105C146.483 122.82 146.658 122.383 146.807 121.961C148.326 117.66 148.567 112.916 147.491 108.483C147.352 107.91 147.156 107.293 146.684 106.951L146.611 106.902ZM86.8656 147.073C86.2784 142.751 86.3562 138.34 87.0954 134.042L87.1326 133.834C87.3144 132.859 87.6217 131.831 88.4484 131.307C89.0673 130.914 89.8405 130.897 90.5775 130.91L96.2195 131.024C96.4763 131.029 96.7575 131.043 96.9477 131.216C97.1379 131.389 97.1258 131.777 96.8771 131.842C96.2832 131.995 95.9317 132.671 95.9928 133.281C96.054 133.891 96.4408 134.425 96.8989 134.833C97.9913 135.806 99.7093 136.175 100.951 135.401C102.192 134.628 102.517 132.585 101.369 131.678C104.005 131.671 106.642 131.725 109.276 131.841L110.264 131.887C110.583 131.903 110.935 131.935 111.155 132.167C111.319 132.342 111.37 132.593 111.404 132.83C111.664 134.66 111.311 136.571 110.416 138.187C110.273 138.444 109.948 138.725 109.734 138.524C108.822 137.667 107.263 137.754 106.302 138.554C105.34 139.354 104.95 140.703 105.096 141.945C105.236 143.141 106.083 144.43 107.287 144.391C107.626 144.38 107.98 144.269 108.328 144.16C108.951 143.965 109.554 143.777 110.006 144.184L108.707 149.549C108.476 150.502 108.072 151.63 107.11 151.819C101.554 152.906 95.7531 152.715 90.2812 151.266L90.0159 151.194C89.352 151.007 88.6916 150.77 88.179 150.315C87.2869 149.524 87.0262 148.254 86.8656 147.073ZM108.921 145.129C107.342 145.838 105.313 145.17 104.358 143.727C103.403 142.284 103.535 140.248 104.565 138.857C105.595 137.467 107.415 136.75 109.136 136.927L109.28 136.942C109.521 136.967 109.769 136.98 109.976 136.863C110.238 136.715 110.355 136.402 110.432 136.111C110.74 134.95 110.746 133.709 110.448 132.545L103.153 132.471C103.251 134.498 101.549 136.445 99.5275 136.62C97.5056 136.796 95.495 135.17 95.2427 133.156L95.2078 132.857C95.1698 132.555 95.1073 132.256 94.8857 132.061C94.73 131.924 94.5234 131.867 94.319 131.823L94.2425 131.807C92.1272 131.369 89.4396 131.155 88.2936 132.986C87.9033 133.61 87.7883 134.362 87.6984 135.092C87.182 139.283 87.2132 143.542 87.791 147.725L87.8193 147.921C87.9143 148.544 88.0688 149.184 88.5236 149.609C88.8363 149.901 89.2509 150.05 89.6625 150.174L89.7653 150.204C95.0323 151.752 100.663 152.045 106.063 151.054L106.363 150.997C106.628 150.946 106.904 150.887 107.115 150.718C107.39 150.497 107.5 150.136 107.596 149.797L108.921 145.129ZM148.098 156.485C148.098 156.485 148.143 155.647 148.254 155.373C148.454 154.878 149.03 154.18 149.03 154.18C148.988 154.371 148.929 154.575 148.869 154.786C148.663 155.508 148.434 156.305 148.75 156.903C148.993 157.365 152.626 159.837 153.879 160.424C159.238 162.932 164.629 165.211 170.044 167.5L170.045 167.5L170.045 167.501L170.046 167.501L170.047 167.501L170.047 167.501L170.047 167.502L170.048 167.502L170.048 167.502L170.048 167.502L170.048 167.502C172.262 168.438 174.479 169.375 176.701 170.331C172.864 169.796 169.355 167.944 165.937 166.122C165.12 170.24 167.349 174.444 170.405 177.321C172.631 179.417 175.265 180.987 177.9 182.557L177.9 182.557L177.9 182.558L177.9 182.558L177.9 182.558L177.901 182.558C178.884 183.144 179.868 183.73 180.83 184.344L181.183 184.571C184.596 186.791 187.848 189.575 189.306 193.362C189.573 194.057 190.424 194.464 191.133 194.237C191.842 194.01 192.298 193.184 192.112 192.463C192.839 193.082 192.39 194.427 191.49 194.746C190.591 195.065 189.574 194.593 188.927 193.892C188.439 193.364 188.103 192.723 187.768 192.084C187.658 191.874 187.548 191.665 187.433 191.459C185.367 187.771 181.645 185.438 177.948 183.297L176.213 182.297C172.202 179.965 168.099 177.175 166.439 172.864C160.124 173.753 153.579 172.961 147.659 170.591C146.392 170.084 145.154 169.506 143.915 168.929C141.943 168.009 139.972 167.09 137.893 166.458C136.735 166.106 135.131 166.043 134.675 167.164C134.675 167.164 134.675 167.164 134.675 167.165L134.673 167.167L134.673 167.167L134.673 167.167C134.66 167.189 134.575 167.333 134.203 167.358C134.028 167.37 133.874 167.062 133.828 166.859C133.786 166.801 133.775 166.641 133.78 166.312C133.783 166.136 134.157 165.368 134.844 164.902C135.322 164.577 135.855 164.466 136.135 164.407C136.261 164.381 136.335 164.365 136.329 164.346C136.316 164.301 135.835 164.168 135.393 164.373C135.052 164.531 134.728 164.742 134.43 164.936L134.43 164.937C133.968 165.237 133.57 165.497 133.268 165.456C132.858 165.402 132.571 165.205 132.573 164.792C132.576 164.379 132.694 163.879 133.017 163.626C133.708 163.083 134.592 162.793 135.469 162.821C135.658 162.827 135.868 162.858 135.989 163.003C136.11 163.149 136.044 163.435 135.855 163.44C134.716 163.472 133.398 163.639 132.935 164.799C132.8 165.136 133.613 165.205 133.931 165.029C134.115 164.927 134.275 164.789 134.434 164.65C134.55 164.549 134.665 164.449 134.791 164.362C135.165 164.103 135.627 163.971 136.082 163.995C136.265 164.005 136.467 164.051 136.573 164.201C136.678 164.352 136.597 164.62 136.413 164.62C135.234 164.618 134.139 165.622 134.038 166.797C134.042 166.84 134.071 167.034 134.208 167.083C134.367 167.14 134.547 167.012 134.554 166.999C135.187 165.914 136.321 165.2 137.52 165.588C137.973 165.735 138.408 165.954 138.841 166.172C139.598 166.553 140.349 166.931 141.182 166.914L140.728 164.256C138.735 162.364 135.694 161.656 133.07 162.474C132.789 162.562 132.485 162.69 132.367 162.959C132.248 163.228 132.491 163.627 132.768 163.526C132.329 163.918 131.611 163.228 131.785 162.666C131.959 162.104 132.584 161.824 133.156 161.686C136.365 160.911 139.525 162.414 142.578 163.866C143.144 164.136 143.708 164.404 144.266 164.655C150.486 167.45 157.553 168.325 164.267 167.131C163.963 167.92 162.969 168.143 162.127 168.222C156.156 168.789 150.049 167.862 144.515 165.55C143.819 166.403 144.12 167.752 144.881 168.547C145.642 169.342 146.732 169.716 147.781 170.05C153.659 171.919 159.9 173.378 165.959 172.228L165.08 166.486L165.062 166.381C165.018 166.152 164.933 165.914 164.721 165.838L164.667 165.818C156.974 163.055 151.111 160.95 143.58 153.516C143.565 153.501 143.55 153.486 143.536 153.47C143.441 155.663 142.737 156.134 139.846 155.485C133.538 154.07 127.068 153.274 120.663 154.06C121.188 151.681 121.834 149.328 122.599 147.014C120.508 147.649 118.087 145.701 118.259 143.523C118.432 141.345 121.129 139.802 123.094 140.757C123.802 139.199 123.877 137.364 123.299 135.753C123.022 134.981 124.188 134.558 125.009 134.572L129.545 134.65C130.179 134.661 131.068 134.382 130.922 133.765C130.573 132.302 131.604 130.655 133.072 130.329C134.513 130.008 136.112 131.019 136.458 132.45L136.476 132.53C136.793 134.065 138.722 134.585 140.291 134.582L141.071 134.577C142.427 134.572 143.84 134.641 144.731 135.605C145.796 136.758 145.522 138.56 145.138 140.094L145.112 140.196C144.925 140.928 144.66 141.522 144.394 142.119C143.886 143.256 143.373 144.405 143.38 146.555C143.382 147.431 143.4 148.235 143.423 148.972C143.558 148.457 143.674 148.118 143.674 148.118C143.674 148.118 158.267 159.384 167.372 161.037C168.483 160.089 167.885 158.195 166.799 157.218C166.342 156.806 165.819 156.471 165.297 156.137L165.297 156.136C164.581 155.677 163.867 155.22 163.329 154.569C162.259 153.275 162.095 151.516 161.932 149.772C161.755 147.875 161.579 145.996 160.244 144.753C160.124 144.642 159.997 144.538 159.87 144.434C159.583 144.2 159.297 143.966 159.105 143.653C158.629 142.88 158.888 141.819 159.493 141.142C160.097 140.464 160.97 140.095 161.832 139.81C163.623 139.22 165.58 138.907 167.389 139.439C169.197 139.972 170.798 141.513 170.944 143.393C171.302 142.652 172.068 142.126 172.888 142.058L171.678 143.3L173.18 143.356L171.093 144.475C172.333 146.868 172.075 149.788 171.208 152.341C171.102 152.653 170.987 152.966 170.872 153.279C170.411 154.531 169.946 155.794 170.036 157.11C170.148 158.729 171.554 160.406 173.129 160.102L173.208 160.085C175.102 159.642 177.163 159.954 178.841 160.938C180.798 162.086 182.111 163.997 183.41 165.889L183.41 165.889L183.41 165.889C183.711 166.328 184.012 166.766 184.32 167.193C185.763 169.195 187.479 171.063 189.645 172.246C191.811 173.429 194.484 173.853 196.778 172.942C197.199 172.775 197.606 172.565 198.011 172.355C198.7 171.998 199.387 171.643 200.144 171.5C201.347 171.272 202.863 171.885 202.984 173.104C202.382 172.057 200.916 171.848 199.754 172.177C199.098 172.363 198.491 172.675 197.883 172.987C197.414 173.228 196.944 173.469 196.451 173.653C193.982 174.573 191.136 173.939 188.903 172.542C186.739 171.189 185.06 169.195 183.55 167.134L183.405 166.934L183.317 166.812L183.222 166.681C183.14 166.567 183.058 166.453 182.976 166.339L182.973 166.334L182.957 166.312L182.944 166.295C181.883 164.815 180.814 163.325 179.399 162.19C177.812 160.916 175.664 160.142 173.717 160.706L173.598 160.742C171.735 161.337 169.803 159.531 169.503 157.597C169.203 155.664 170.023 153.752 170.823 151.967C171.649 150.125 170.23 147.935 168.408 147.067C166.718 146.261 164.671 146.243 162.966 147.019C162.414 147.27 162.303 147.987 162.31 148.601L162.312 148.669C162.369 150.84 162.909 153.13 164.466 154.643C164.929 155.093 165.467 155.459 166.003 155.824C166.675 156.282 167.345 156.738 167.866 157.356C168.802 158.468 168.913 160.522 167.575 161.091C169.845 161.542 172.089 162.125 174.291 162.838C162.402 161.412 151.55 155.604 143.807 148.682C143.64 148.993 143.521 149.324 143.446 149.663C143.459 150.004 143.472 150.328 143.484 150.637C143.502 151.072 143.518 151.477 143.53 151.852C143.886 153.104 144.752 154.217 145.958 154.721C145.877 153.844 146.188 152.939 146.79 152.297C146.392 153.147 145.755 154.78 148.098 156.485ZM166.684 140.038C165.627 139.823 164.552 139.699 163.474 139.669C163.399 139.803 163.368 139.962 163.389 140.115C164.589 140.236 165.767 140.574 166.849 141.106C166.385 141.554 165.637 141.268 165.028 141.035L164.993 141.022C163.953 140.625 162.806 140.513 161.71 140.702C161.151 140.799 160.59 140.98 160.154 141.343C159.719 141.707 159.428 142.279 159.514 142.84C159.624 143.556 160.287 144.056 160.953 144.343C162.603 145.052 164.599 144.895 166.118 143.936C166.241 143.858 166.41 143.994 166.415 144.14C166.419 144.285 166.319 144.412 166.214 144.513C165.605 145.098 164.711 145.273 163.868 145.307C163.621 145.317 163.373 145.318 163.126 145.318C162.525 145.319 161.925 145.321 161.343 145.457C161.413 145.937 162.008 146.112 162.49 146.155C164.334 146.321 166.211 146.106 167.969 145.525C168.41 145.38 168.804 145.825 169.056 146.215L170.889 149.057C171.518 148.485 171.498 147.479 171.22 146.676C171.112 146.363 170.972 146.06 170.832 145.757C170.615 145.285 170.397 144.814 170.3 144.306C170.247 144.026 170.231 143.739 170.215 143.453L170.215 143.453C170.192 143.051 170.17 142.65 170.043 142.27C169.598 140.931 168.066 140.321 166.684 140.038ZM143.498 165.284L141.806 164.273C141.619 164.161 141.27 164.136 141.285 164.354C141.211 165.236 141.264 166.317 141.819 167.062C142.168 167.532 142.422 167.773 143.678 168.108L143.628 165.637C143.625 165.506 143.61 165.352 143.498 165.284ZM169.75 152.301C169.96 152.184 170.096 151.972 170.223 151.768C170.451 151.404 170.686 151.018 170.703 150.588C170.72 150.159 170.432 149.685 170.003 149.661C169.789 149.649 169.585 149.747 169.408 149.867C169.016 150.135 168.71 150.526 168.547 150.971C168.739 151.26 169.191 151.013 169.394 150.733C169.598 150.452 169.899 150.099 170.213 150.246C169.992 150.966 169.61 151.637 169.105 152.196C169.234 152.399 169.54 152.418 169.75 152.301ZM172.805 173.224C172.343 172.461 171.844 171.637 171.002 171.377C172.818 174.945 175.678 177.974 179.135 179.994C180.342 180.699 181.617 181.283 182.892 181.866L182.892 181.867C184.67 182.681 186.445 183.493 188.028 184.632C190.011 186.058 191.639 187.975 192.724 190.164C192.337 187.064 189.792 184.651 187.057 183.141C185.819 182.457 184.515 181.901 183.212 181.345L183.212 181.345L183.212 181.345L183.212 181.345L183.212 181.345L183.212 181.344C181.636 180.672 180.062 180 178.605 179.104C176.283 177.676 174.307 175.691 172.889 173.363L172.805 173.224ZM178.687 174.372L178.737 174.49C178.959 175.029 179.107 175.704 178.667 176.058C178.316 176.341 177.794 176.222 177.389 176.023C176.514 175.594 175.798 174.85 175.402 173.959C175.919 173.866 176.406 173.616 176.782 173.249C177.095 172.945 177.637 173.017 177.978 173.289C178.32 173.56 178.509 173.974 178.687 174.372ZM178.384 175.633C178.843 174.843 177.957 173.651 177.515 173.566C177.323 173.53 177.121 173.717 176.904 173.918C176.681 174.125 176.443 174.346 176.183 174.354C176.183 174.354 177.926 176.423 178.384 175.633ZM200.755 178.318C211.551 178.151 222.176 173.078 229.093 164.788C229.451 164.359 230.145 164.364 230.628 164.646C231.11 164.928 231.431 165.414 231.734 165.883C232.075 165.84 232.094 165.313 231.864 165.058C231.751 164.932 231.608 164.839 231.465 164.747C231.317 164.652 231.17 164.557 231.056 164.426C230.593 163.896 230.86 163.079 231.147 162.437L232.428 159.576C232.6 159.193 232.866 158.747 233.286 158.76C233.593 158.769 233.825 159.03 234.015 159.271C236.095 161.896 238.018 164.645 239.772 167.497C238.657 167.65 237.598 167.084 236.553 166.525C235.386 165.901 234.237 165.287 233.049 165.694C232.013 166.05 231.389 167.075 230.828 168.015C228.991 171.089 226.898 174.044 224.269 176.475C218.163 182.12 209.739 184.462 201.547 185.894C206.564 187.893 212.118 188.526 217.456 187.707C220.511 187.239 223.565 186.264 225.974 184.327C226.949 183.542 227.799 182.616 228.645 181.694L234.879 174.899C235.244 174.502 235.898 174.901 236.224 175.331C236.55 175.762 236.993 176.299 237.505 176.126C237.155 175.305 236.535 174.601 235.765 174.15C235.735 173.176 235.724 172.133 236.256 171.316C236.788 170.499 238.086 170.119 238.745 170.838C240.906 173.192 242.973 175.632 244.941 178.15C243.758 178.315 242.646 177.788 241.542 177.264L241.541 177.264C241.2 177.103 240.86 176.941 240.518 176.801C239.072 176.206 237.031 176.182 236.342 177.586C234.458 181.426 232.502 185.364 229.333 188.237C224.041 193.035 216.415 194.006 209.304 194.688C206.15 194.99 202.911 195.272 199.861 194.417C197.64 193.795 195.631 192.599 193.652 191.416L192.081 190.478C191.612 190.587 191.975 191.301 192.385 191.553C195.014 193.165 197.724 194.81 200.762 195.343C201.536 195.479 202.322 195.54 203.106 195.583C210.331 195.981 217.636 194.839 224.395 192.257C227.214 191.18 230.088 189.725 231.671 187.156L237.247 178.103C237.46 177.756 237.695 177.39 238.066 177.223C238.518 177.018 239.043 177.163 239.517 177.309L244.569 178.873C245.085 179.032 245.578 178.432 245.533 177.894C245.489 177.355 245.108 176.913 244.746 176.511L240.151 171.418C239.545 170.746 238.893 170.045 238.025 169.789C237.156 169.533 236.028 169.937 235.842 170.823C235.292 173.437 233.463 175.568 231.698 177.574C228.966 180.678 226.123 183.867 222.375 185.615C217.002 188.122 210.719 187.257 204.904 186.1L208.706 185.064C210.587 184.551 212.472 184.037 214.3 183.356C221.389 180.711 227.48 175.477 231.161 168.866C231.799 167.719 232.55 166.393 233.847 166.183C234.912 166.01 235.807 166.653 236.722 167.31C237.265 167.701 237.816 168.097 238.414 168.329C239.296 168.673 240.681 168.23 240.488 167.304C240.445 167.095 240.322 166.912 240.201 166.735L235.503 159.861C234.851 158.907 233.868 157.825 232.762 158.16C231.874 158.429 231.525 159.443 231.217 160.337C231.198 160.391 231.18 160.444 231.162 160.497C229.718 164.65 225.98 167.505 222.435 170.106C220.884 171.245 219.329 172.386 217.659 173.343C212.783 176.138 207.103 177.258 201.489 177.524C199.903 177.6 198.881 179.069 197.946 180.413C197.835 180.573 197.725 180.731 197.615 180.885C196.015 183.132 193.761 184.907 191.201 185.937C191.618 186.414 192.397 186.146 192.94 185.82C195.517 184.271 197.718 182.101 199.304 179.546C199.654 178.983 200.092 178.328 200.755 178.318ZM167.327 153.353C167.069 153.892 166.509 154.274 165.914 154.317C165.318 154.359 164.709 154.061 164.378 153.564C164.256 153.381 164.263 153.029 164.482 153.052C164.926 153.664 165.872 153.837 166.504 153.421C166.778 153.241 167.251 153.035 167.327 153.353ZM162.613 149.322C162.675 148.867 163.066 148.479 163.52 148.419C163.975 148.359 164.452 148.634 164.629 149.057C164.298 149.051 164.077 148.987 163.893 148.934C163.518 148.826 163.297 148.762 162.613 149.322ZM166.082 151.918L165.562 152.13L165.533 152.113C165.395 152.365 165.006 152.07 164.981 151.783C164.975 151.724 164.973 151.661 164.972 151.598C164.964 151.355 164.957 151.103 164.758 150.991C164.502 151.347 164.379 151.82 164.517 152.237C164.656 152.653 165.093 152.975 165.527 152.905C165.96 152.834 166.28 152.31 166.082 151.918ZM166.763 148.413C167.414 148.476 167.587 148.515 167.759 148.947C167.793 149.032 167.516 148.948 167.252 148.867C167.057 148.808 166.87 148.751 166.818 148.765C164.624 149.374 166.111 148.349 166.763 148.413ZM166.559 149.537C166.914 149.829 166.79 150.965 166.262 150.742C166.04 150.649 165.804 148.917 166.559 149.537ZM183.285 180.32C183.117 180.103 183.319 179.724 183.593 179.742C183.713 179.823 183.793 179.96 183.805 180.104C183.698 180.271 183.481 180.36 183.287 180.315L183.285 180.32ZM178.421 178.016L178.797 177.965L178.827 177.955C178.962 177.714 178.541 177.429 178.367 177.643C178.328 177.767 178.348 177.908 178.421 178.016ZM181.065 179.541C180.847 179.596 180.824 179.223 180.949 179.036L181.464 179.281C181.381 179.42 181.231 179.516 181.071 179.533L181.065 179.541ZM174.679 173.989C174.624 173.845 174.419 173.787 174.297 173.88L174.329 173.914C174.223 174.048 174.301 174.282 174.467 174.325C174.62 174.313 174.734 174.132 174.679 173.989ZM163.68 150.724C163.471 150.72 163.256 150.512 163.273 150.157C163.29 149.803 163.392 149.476 163.699 149.656C164.005 149.836 163.895 150.727 163.68 150.724ZM67.1306 105.899C67.2535 106.067 67.5423 105.999 67.6561 105.825C67.7698 105.651 67.7598 105.427 67.7434 105.22C67.506 102.223 66.781 99.2663 65.6056 96.5001C65.2708 95.7123 64.9214 94.731 65.4665 94.0709C66.6459 97.1745 67.8351 100.317 68.227 103.614C68.3339 104.513 68.3608 105.497 67.8471 106.244C67.3335 106.99 66.0813 107.258 65.5377 106.533C66.3961 106.369 67.0656 105.515 67.0191 104.642C67.4095 104.918 67.4663 105.558 67.1306 105.899ZM76.0638 165.464C80.5426 165.297 85.7377 164.741 88.1513 160.965C88.7773 159.985 88.6745 158.427 88.5899 157.142C88.5219 156.11 88.4656 155.256 88.8081 155.02C89.5769 154.492 90.1601 155.899 90.1601 155.899C90.184 155.807 90.2115 155.693 90.2425 155.564C90.4712 154.617 90.8923 152.872 91.5002 153.211C91.7502 153.351 91.6485 154.201 91.5786 154.786C91.5622 154.923 91.5475 155.045 91.5396 155.141C91.5238 155.231 91.5204 155.306 91.5302 155.36C91.5327 155.359 91.5352 155.358 91.5377 155.357C91.5399 155.356 91.5421 155.355 91.5444 155.353C91.5486 155.351 91.5529 155.349 91.5572 155.346C91.5637 155.345 91.5715 155.339 91.5811 155.328C91.6818 155.246 91.8213 155.041 91.9766 154.814C92.2982 154.342 92.6871 153.772 92.9374 153.988C93.3304 154.328 91.8755 156.429 91.8755 156.429C91.8755 156.429 93.5917 154.608 93.72 155.398C93.8483 156.188 89.8895 163.234 86.3793 165.963C82.8691 168.693 77.9643 170.169 73.5637 169.533C73.6926 167.786 74.3128 165.53 76.0638 165.464ZM91.5811 155.328C91.5729 155.335 91.5649 155.341 91.5572 155.346C91.5305 155.349 91.5288 155.27 91.5396 155.141C91.5757 154.935 91.6768 154.655 91.8353 154.388C91.8045 154.48 91.7738 154.569 91.7449 154.653L91.7449 154.653C91.6155 155.028 91.5218 155.299 91.6145 155.279C91.6016 155.301 91.5905 155.317 91.5811 155.328ZM92.4425 153.737C92.1917 153.89 91.9872 154.133 91.8353 154.388C92.0777 153.665 92.3263 152.751 91.7621 152.668C90.8052 152.526 89.8405 154.071 89.9926 154.903C89.7379 154.238 88.6255 154.505 88.3457 155.16C88.1311 155.662 88.209 156.218 88.2863 156.77L88.2863 156.77L88.2863 156.771C88.3097 156.938 88.3331 157.105 88.3483 157.27C88.5906 159.906 86.5752 162.331 84.1641 163.424C81.8909 164.454 79.3296 164.56 76.8257 164.594L76.2415 164.601C74.8121 164.613 73.2654 164.554 72.1909 163.623C71.0838 162.663 71.1239 160.434 72.5415 160.064C76.1401 159.126 78.9326 155.685 79.1086 151.97C79.1606 150.872 79.8888 149.971 80.5928 149.099C80.656 149.021 80.719 148.943 80.7813 148.865L80.936 148.67C81.7245 147.661 82.3825 146.263 81.7547 145.147C80.7298 146.416 78.8425 146.902 77.3322 146.286C76.7021 146.029 76.1472 145.609 75.5957 145.19C74.8572 144.631 74.1249 144.075 73.2263 143.924C71.4692 143.628 69.6906 145.381 69.9616 147.143C69.4916 146.734 68.7408 147.327 68.6784 147.947C68.6417 148.311 68.7314 148.667 68.8215 149.025C68.8847 149.276 68.9482 149.528 68.9683 149.784C68.9917 150.082 68.956 150.379 68.9203 150.677C68.8962 150.878 68.872 151.079 68.866 151.281C68.8351 152.326 69.2839 153.302 69.7259 154.262L69.7271 154.265C69.7713 154.361 69.8155 154.457 69.8591 154.553L69.9772 154.816C70.4797 155.958 70.8435 157.312 70.2676 158.418C69.6916 159.524 67.7913 159.84 67.2743 158.706C64.7402 153.144 58.8442 149.285 52.7334 149.188C45.6582 149.075 39.2113 153.627 34.9423 159.27C34.4099 159.974 33.8875 160.733 33.7589 161.606C33.6304 162.479 34.0189 163.49 34.8463 163.798C35.6736 164.105 36.7673 163.305 36.5107 162.46C36.9244 162.961 37.7963 162.51 38.006 161.895C38.1238 161.55 38.1289 161.184 38.1339 160.816C38.1378 160.53 38.1418 160.242 38.1992 159.964C38.481 158.598 39.9047 157.83 41.1838 157.274L41.4418 157.162C44.4545 155.861 47.5899 154.708 50.8635 154.535C54.2306 154.357 57.803 155.355 60.0713 157.85C56.9048 158.543 55.0183 161.675 53.5076 164.572L53.298 164.976C51.7726 167.91 49.7858 171.106 46.5428 171.677C46.6545 172.317 47.2084 172.854 47.8512 172.946L35.8795 179.784L36.7689 180.928C33.8069 185.299 30.4712 189.417 26.8103 193.222C24.8198 195.291 22.2448 197.426 19.4249 196.887C18.915 196.79 18.4222 196.606 17.931 196.422C17.2119 196.153 16.4964 195.886 15.7363 195.894C14.457 195.908 13.1468 197.441 13.9983 198.396C15.8842 200.511 18.0461 202.379 20.4118 203.938L20.4731 203.978C20.7611 204.164 21.0785 204.339 21.4168 204.306C21.7588 204.273 22.041 204.035 22.2989 203.808L38.6013 189.456C39.9363 188.29 41.4034 187.126 43.1572 186.981L43.3053 186.966C44.6033 186.809 45.6843 186.009 46.7684 185.206L46.7686 185.206L46.7687 185.206C47.2406 184.857 47.7131 184.507 48.2044 184.21C49.8671 183.203 52.5968 183.145 53.2045 184.991C53.5274 185.972 53.0652 186.956 52.6096 187.926L52.6096 187.926C52.4739 188.215 52.3387 188.502 52.2251 188.788C51.7303 190.034 52.0843 191.97 53.4248 191.97L60.9268 191.968C61.1964 191.97 61.48 191.99 61.6867 192.158C61.903 192.335 61.9749 192.623 62.0122 192.905L62.0274 193.035C62.2698 195.337 62.1901 197.672 61.7914 199.952C61.3593 202.423 60.2771 205.13 57.9234 205.998C56.4389 206.546 54.8016 206.22 53.2547 205.837L43.8563 203.468C43.8604 202.325 44.9105 201.412 46.0179 201.129C46.9569 200.888 47.937 200.984 48.9077 201.078L49.0865 201.096L49.4288 201.127C51.8143 201.333 54.2326 201.153 56.5613 200.597L53.3619 192.167C53.6546 194.952 54.3587 197.694 55.4446 200.275L44.4412 200.44C43.4832 200.451 42.4208 200.39 41.7892 199.68C41.6271 199.497 41.4932 199.274 41.3606 199.053C41.0881 198.599 40.8208 198.153 40.3241 198.087C39.895 198.03 39.5005 198.31 39.1663 198.585C36.9843 200.382 35.1598 202.611 33.8297 205.104C34.2734 206.261 35.8042 206.609 37.0035 206.3C37.7051 206.119 38.3484 205.783 38.993 205.446L38.9932 205.446L38.9935 205.446C39.4506 205.207 39.9084 204.968 40.388 204.784C43.065 203.756 45.9748 204.535 48.7674 205.429L50.426 205.966C53.7041 207.013 57.7132 207.591 60.2244 205.238C61.7063 203.849 62.2738 201.755 62.5973 199.75C63.531 193.965 62.9607 187.944 60.9577 182.437C63.313 181.575 64.4627 178.977 65.3621 176.636L67.1233 172.051C67.7118 170.519 69.0206 168.649 70.5285 169.297C74.8391 171.148 79.9801 170.487 84.0635 168.177C88.1469 165.868 91.2398 162.065 93.3514 157.876L93.408 157.763C93.8214 156.931 94.3639 154.981 93.9137 154.756C93.7467 154.62 93.4413 154.835 93.2332 154.982C93.1207 155.061 93.0366 155.121 93.0182 155.094C93.007 155.077 93.0461 154.969 93.1015 154.816C93.3196 154.215 93.7905 152.917 92.4425 153.737ZM63.2614 179.14C62.7156 180.311 61.8223 181.686 60.5422 181.507C59.8568 181.411 59.3469 180.884 58.8895 180.343L58.6444 180.049C55.988 176.854 52.3414 174.698 48.6731 172.708L47.4509 172.05C50.4766 171.509 52.3887 168.559 53.7652 165.811L54.2039 164.935C55.4624 162.438 56.8895 159.872 59.4144 158.782C59.7634 158.631 60.1628 158.513 60.5176 158.65C60.5711 158.67 60.6288 158.694 60.6889 158.718L60.6898 158.718C61.1277 158.895 61.6917 159.124 61.69 158.706C60.8918 158.368 60.78 157.193 61.2564 156.469C61.6914 155.808 62.4314 155.435 63.1633 155.115L63.3719 155.025C62.9198 154.378 61.9067 154.898 61.372 155.478L61.328 155.525C60.7917 156.093 59.9728 156.711 59.3735 156.231C56.8973 154.248 53.5628 153.567 50.4002 153.817C47.2375 154.066 44.2049 155.168 41.2975 156.438C40.2319 156.903 39.1489 157.412 38.3494 158.256C37.7309 158.909 37.6526 159.792 37.5739 160.679C37.5509 160.938 37.5278 161.198 37.4912 161.453C37.4025 162.069 37.0625 162.087 36.763 162.102C36.6025 162.11 36.4536 162.118 36.3613 162.217C36.3539 162.225 36.3298 162.261 36.2936 162.314C36.1092 162.587 35.6102 163.325 35.392 163.247C35.0715 163.132 35.248 162.438 35.248 162.438C35.248 162.438 34.2865 162.695 34.2201 162.421C33.9876 161.459 35.4568 159.527 35.4568 159.527C37.9315 156.019 41.5608 153.136 45.5244 151.493C49.5614 149.819 54.2427 149.564 58.3121 151.158C62.8998 152.954 66.4849 157.118 67.5804 161.922C67.8535 163.119 69.2315 163.67 70.4401 163.889C70.5528 163.91 70.667 163.929 70.7819 163.949L70.7836 163.95L70.7848 163.95C71.9003 164.144 73.0865 164.351 73.7846 165.217C73.9903 165.473 73.9257 165.844 73.848 166.163L73.8253 166.255C73.5395 167.391 73.0534 168.659 71.939 168.986C70.9262 169.283 69.7468 168.45 69.6881 167.396C69.6829 167.304 69.6826 167.205 69.6823 167.106C69.681 166.697 69.6796 166.266 69.339 166.091L63.2614 179.14ZM53.6267 185.212C53.2838 183.27 52.1693 181.508 50.6894 180.205C50.7348 180.967 51.0438 181.71 51.5517 182.28C48.9921 183.045 46.5696 184.266 44.4326 185.869C43.8606 186.298 42.895 186.682 42.5755 186.042C41.3186 183.525 39.2849 181.404 36.8239 180.041L47.1383 174.351C47.6045 174.093 48.0974 173.829 48.6298 173.833C49.0426 173.836 49.4318 174.001 49.8017 174.192L49.9851 174.288C53.7723 176.323 57.1454 179.125 59.8404 182.475C60.5077 183.305 60.8067 184.357 61.0586 185.397L62.1907 190.164C62.2656 190.48 62.3178 190.87 62.0679 191.077C61.9272 191.193 61.7317 191.21 61.5495 191.221L61.3362 191.234L61.336 191.234C58.3081 191.414 55.8652 191.559 52.8434 191.069C52.4064 190.195 52.7667 189.127 53.1388 188.024C53.4576 187.079 53.785 186.108 53.6267 185.212ZM38.4853 182.029C39.601 183.047 40.603 184.189 41.4664 185.428C41.5588 185.56 41.6536 185.708 41.6408 185.869C41.6257 186.057 41.4708 186.199 41.3268 186.321L27.9265 197.643C27.3678 198.115 26.4913 198.015 25.8817 197.611C25.3483 197.257 24.9718 196.722 24.6273 196.178L24.4813 195.945C27.9526 194.197 30.2157 190.997 32.4988 187.768C33.9309 185.743 35.3709 183.707 37.122 182.011C37.2922 181.846 37.4839 181.676 37.7198 181.654C38.0116 181.626 38.2688 181.831 38.4853 182.029ZM77.4839 150.476L77.819 150.585C78.4718 150.8 78.5655 151.681 78.4701 152.361C78.075 155.178 76.2715 157.942 73.5506 158.772L73.4533 158.803C71.6794 159.395 70.3868 161.217 70.4295 163.089C69.2421 163.29 67.9898 162.322 67.8863 161.122C67.8656 160.883 67.9417 160.574 68.1796 160.541C69.2577 160.395 70.2582 159.752 70.8397 158.833C71.4211 157.913 71.5728 156.734 71.2429 155.697C71.1755 155.485 71.0888 155.273 71.0021 155.06C70.7554 154.456 70.5078 153.849 70.699 153.247C71.1104 153.292 71.1787 153.858 71.1281 154.269L71.1225 154.319C71.082 154.724 71.1446 155.246 71.5372 155.307C71.8071 154.716 71.8726 154.05 71.9377 153.389C72.0199 152.554 72.1012 151.728 72.5921 151.07C73.1533 150.318 74.1423 149.986 75.0804 149.991C75.9013 149.996 76.7 150.223 77.4839 150.476ZM17.3498 197.042L17.4361 196.945C17.9103 196.85 18.3509 197.463 18.1095 197.882C17.9547 198.151 18.4116 198.428 18.6724 198.26C18.9331 198.091 18.9912 197.741 19.0249 197.433C19.2856 197.356 19.5048 197.657 19.549 197.925C19.5608 197.996 19.5675 198.069 19.5743 198.143C19.5931 198.347 19.6119 198.551 19.7377 198.706C19.9087 198.918 20.3731 198.818 20.3018 198.556C20.1954 198.165 20.6607 197.855 21.063 197.804C21.1597 197.792 21.2594 197.786 21.3595 197.779C21.6754 197.759 21.994 197.739 22.2273 197.538L22.2624 197.51C22.5575 197.309 22.9118 197.698 23.1259 198.041L23.2254 198.208C23.6961 198.968 24.5093 199.509 25.3937 199.645C25.567 199.671 25.474 199.941 25.3442 200.059L22.303 202.824C22.1556 202.959 21.9222 202.857 21.7541 202.75C19.997 201.632 18.3802 200.293 16.9536 198.775C16.5042 198.297 16.9053 197.554 17.3498 197.042ZM43.4252 202.742C43.3327 203.096 43.0805 203.489 42.7163 203.456C41.8385 203.376 40.9454 203.466 40.1016 203.721C40.1848 203.364 40.0352 202.965 39.7383 202.75C39.5136 203.06 39.5948 203.548 39.9077 203.768L39.0567 204.58L38.6723 203.653C38.4739 203.702 38.4639 203.944 38.4737 204.167L38.481 204.305C38.5109 204.888 38.0069 205.446 37.4235 205.475C36.8402 205.504 36.283 204.999 36.2546 204.416C36.2237 203.78 36.7192 203.256 37.179 202.817L40.4439 199.694C40.5133 199.631 40.5925 199.572 40.6846 199.575C40.7864 199.579 40.8676 199.657 40.938 199.731L42.1684 201.016C42.407 201.266 42.247 201.638 42.091 202.001C41.9305 202.374 41.7743 202.738 42.0615 202.947C42.3443 202.968 42.5844 202.727 42.6978 202.467C42.7556 202.334 42.7918 202.194 42.828 202.053C42.8628 201.918 42.8975 201.784 42.9515 201.655C43.0616 201.394 43.2938 201.148 43.5772 201.158C43.8606 201.169 44.0724 201.578 43.85 201.754C43.6128 201.942 43.5407 202.253 43.4705 202.555C43.4558 202.618 43.4412 202.681 43.4252 202.742ZM21.4564 203.765C18.5985 202.172 16.0862 199.962 14.141 197.331C14.4063 197.088 14.7942 197.358 15.0418 197.642L15.103 197.717C16.9534 200.09 19.2946 202.078 21.9357 203.521C21.9105 203.731 21.6412 203.868 21.4564 203.765ZM35.302 203.415C36.5801 201.803 37.9914 200.296 39.5167 198.915C39.7532 198.7 40.2389 198.562 40.2923 198.876C38.516 200.514 36.8145 202.232 35.1947 204.024C35.0247 203.872 35.16 203.594 35.302 203.415ZM25.7759 199.162C24.9093 198.836 24.1419 198.252 23.5978 197.503C23.393 197.221 23.2693 196.736 23.5893 196.598C23.8422 196.49 24.0792 196.731 24.2502 196.964L24.3784 197.145C24.9295 197.899 25.7243 198.473 26.6144 198.756C26.6118 198.995 26.4103 199.215 26.1727 199.239C26.0374 199.252 25.9032 199.209 25.7759 199.162ZM69.4107 151.543C69.8204 151.56 70.1599 151.993 70.0784 152.395L70.088 152.401C70.1396 152.694 70.0969 153.003 69.9677 153.271C69.5272 152.824 69.3142 152.163 69.4107 151.543ZM77.2206 151.689C77.2725 151.686 77.3269 151.682 77.3821 151.682C77.4513 151.682 77.5308 151.696 77.6057 151.709L77.6058 151.709C77.8081 151.744 77.9775 151.773 77.8215 151.52C77.6077 151.172 76.9651 151.122 76.8528 151.514C76.8788 151.713 77.0323 151.703 77.2206 151.689ZM77.7087 153.401L77.7186 153.365C77.8853 152.776 77.8029 152.307 77.3714 152.299C77.2046 152.309 76.9356 153.152 76.9554 153.41C76.9751 153.667 77.2608 153.91 77.4875 153.787C77.6219 153.713 77.6674 153.549 77.7087 153.401ZM74.8642 153.171C74.5706 152.748 74.5494 152.152 74.8122 151.709C74.8514 151.643 74.8985 151.578 74.9659 151.541C75.1363 151.448 75.3599 151.583 75.4312 151.764C75.5024 151.945 75.4664 152.148 75.4294 152.339C75.4294 152.339 75.1578 153.594 74.8642 153.171ZM138.621 154.294C133.147 152.849 127.409 152.408 121.778 153C122.792 150.744 123.264 148.247 123.142 145.777C121.66 146.778 119.277 145.532 119.252 143.744C119.228 141.956 121.576 140.646 123.085 141.606C123.485 141.86 123.938 141.355 124.108 140.912C124.685 139.404 124.72 137.695 124.206 136.164C124.005 135.568 124.905 135.262 125.533 135.286L130.867 135.484C131.226 135.497 131.606 135.506 131.915 135.324C132.224 135.143 132.406 134.697 132.186 134.414C131.283 133.253 132.38 131.221 133.847 131.339C135.314 131.456 136.072 133.637 134.995 134.64C134.794 134.827 135.174 135.079 135.448 135.09L142.422 135.372C143.809 135.428 144.764 136.924 144.796 138.312C144.824 139.486 144.388 140.603 143.957 141.706C143.919 141.802 143.881 141.898 143.844 141.994L143.725 142.306C142.429 145.752 141.966 149.508 142.385 153.165C142.467 153.879 141.801 154.501 141.097 154.643C140.476 154.768 139.841 154.622 139.224 154.456L138.621 154.294Z" fill="#00160A"/>
<path fill-rule="evenodd" clip-rule="evenodd" d="M65.3685 89.1395C65.425 88.8116 65.8664 88.6294 66.1811 88.7478C66.4958 88.8661 66.7705 89.3251 66.534 89.578C66.1597 89.9782 65.2588 89.7758 65.3685 89.1395Z" fill="#FFB61D"/>
<path fill-rule="evenodd" clip-rule="evenodd" d="M201.76 176.699C201.55 176.869 201.134 176.925 201.1 176.657C201.922 175.849 202.497 174.792 202.728 173.662C202.993 173.596 203.062 174.017 202.991 174.281C202.752 175.17 202.476 176.12 201.76 176.699Z" fill="#00160A"/>
<path d="M25.0638 75.6335C25.051 75.8983 24.6493 75.8759 24.4081 75.7659C24.4998 75.5309 24.8558 75.458 25.0324 75.638L25.0638 75.6335Z" fill="black"/>
<path fill-rule="evenodd" clip-rule="evenodd" d="M138.525 150.447C138.24 150.692 137.776 150.302 137.824 149.93C137.872 149.558 138.207 149.298 138.527 149.102C139.675 148.403 140.997 147.993 142.339 147.919C142.366 148.431 141.7 148.63 141.195 148.72C140.124 148.909 139.1 149.354 138.23 150.006C138.384 150.104 138.493 150.268 138.525 150.447L138.525 150.447Z" fill="#00160A"/>
<path fill-rule="evenodd" clip-rule="evenodd" d="M142.32 151.166C141.686 151.458 141.041 151.727 140.387 151.973C140.456 152.248 140.85 152.246 141.119 152.154C141.387 152.062 141.74 151.967 141.909 152.195C141.458 152.858 140.369 152.943 139.82 152.359C139.581 152.105 139.139 152.262 138.828 152.105C138.383 151.88 138.478 151.204 138.75 150.786C139.317 149.913 140.379 149.387 141.417 149.465C141.812 149.494 142.281 149.698 142.301 150.094C141.061 149.994 139.787 150.484 138.933 151.388C139.403 151.765 140.09 151.502 140.632 151.239C141.173 150.976 141.886 150.748 142.32 151.166Z" fill="#00160A"/>
<path fill-rule="evenodd" clip-rule="evenodd" d="M76.1975 153.535C76.5475 153.897 76.6925 154.063 76.6833 154.587C76.6742 155.111 76.3839 155.443 75.9015 155.588C75.679 155.655 75.3737 155.596 75.3202 155.37C76.9248 155.071 76.3493 154.363 76.1975 153.535Z" fill="#00160A"/>
<path fill-rule="evenodd" clip-rule="evenodd" d="M74.1035 151.268C74.2839 150.705 75.031 150.412 75.5454 150.703C75.749 150.818 75.9163 151.023 75.9229 151.257C75.3164 151.26 74.8241 150.86 74.1035 151.268Z" fill="#00160A"/>
<path fill-rule="evenodd" clip-rule="evenodd" d="M75.4667 156.346C72.118 154.409 74.7233 156.861 75.4667 156.346Z" fill="#00160A"/>
</svg>
